%TF.GenerationSoftware,KiCad,Pcbnew,(5.1.6)-1*%
%TF.CreationDate,2020-07-30T09:39:53+02:00*%
%TF.ProjectId,motor-controller,6d6f746f-722d-4636-9f6e-74726f6c6c65,rev?*%
%TF.SameCoordinates,Original*%
%TF.FileFunction,Paste,Top*%
%TF.FilePolarity,Positive*%
%FSLAX46Y46*%
G04 Gerber Fmt 4.6, Leading zero omitted, Abs format (unit mm)*
G04 Created by KiCad (PCBNEW (5.1.6)-1) date 2020-07-30 09:39:53*
%MOMM*%
%LPD*%
G01*
G04 APERTURE LIST*
%ADD10R,2.000000X1.500000*%
%ADD11R,2.000000X3.800000*%
G04 APERTURE END LIST*
%TO.C,R1*%
G36*
G01*
X115175000Y-161625000D02*
X115175000Y-160375000D01*
G75*
G02*
X115425000Y-160125000I250000J0D01*
G01*
X116350000Y-160125000D01*
G75*
G02*
X116600000Y-160375000I0J-250000D01*
G01*
X116600000Y-161625000D01*
G75*
G02*
X116350000Y-161875000I-250000J0D01*
G01*
X115425000Y-161875000D01*
G75*
G02*
X115175000Y-161625000I0J250000D01*
G01*
G37*
G36*
G01*
X112200000Y-161625000D02*
X112200000Y-160375000D01*
G75*
G02*
X112450000Y-160125000I250000J0D01*
G01*
X113375000Y-160125000D01*
G75*
G02*
X113625000Y-160375000I0J-250000D01*
G01*
X113625000Y-161625000D01*
G75*
G02*
X113375000Y-161875000I-250000J0D01*
G01*
X112450000Y-161875000D01*
G75*
G02*
X112200000Y-161625000I0J250000D01*
G01*
G37*
%TD*%
%TO.C,C1*%
G36*
G01*
X118024999Y-157125000D02*
X118575001Y-157125000D01*
G75*
G02*
X118825000Y-157374999I0J-249999D01*
G01*
X118825000Y-158175001D01*
G75*
G02*
X118575001Y-158425000I-249999J0D01*
G01*
X118024999Y-158425000D01*
G75*
G02*
X117775000Y-158175001I0J249999D01*
G01*
X117775000Y-157374999D01*
G75*
G02*
X118024999Y-157125000I249999J0D01*
G01*
G37*
G36*
G01*
X118024999Y-155175000D02*
X118575001Y-155175000D01*
G75*
G02*
X118825000Y-155424999I0J-249999D01*
G01*
X118825000Y-156225001D01*
G75*
G02*
X118575001Y-156475000I-249999J0D01*
G01*
X118024999Y-156475000D01*
G75*
G02*
X117775000Y-156225001I0J249999D01*
G01*
X117775000Y-155424999D01*
G75*
G02*
X118024999Y-155175000I249999J0D01*
G01*
G37*
%TD*%
D10*
%TO.C,U1*%
X114150000Y-156800000D03*
X114150000Y-152200000D03*
X114150000Y-154500000D03*
D11*
X107850000Y-154500000D03*
%TD*%
%TO.C,U2*%
G36*
G01*
X114925000Y-133870000D02*
X114925000Y-133570000D01*
G75*
G02*
X115075000Y-133420000I150000J0D01*
G01*
X116825000Y-133420000D01*
G75*
G02*
X116975000Y-133570000I0J-150000D01*
G01*
X116975000Y-133870000D01*
G75*
G02*
X116825000Y-134020000I-150000J0D01*
G01*
X115075000Y-134020000D01*
G75*
G02*
X114925000Y-133870000I0J150000D01*
G01*
G37*
G36*
G01*
X114925000Y-135140000D02*
X114925000Y-134840000D01*
G75*
G02*
X115075000Y-134690000I150000J0D01*
G01*
X116825000Y-134690000D01*
G75*
G02*
X116975000Y-134840000I0J-150000D01*
G01*
X116975000Y-135140000D01*
G75*
G02*
X116825000Y-135290000I-150000J0D01*
G01*
X115075000Y-135290000D01*
G75*
G02*
X114925000Y-135140000I0J150000D01*
G01*
G37*
G36*
G01*
X114925000Y-136410000D02*
X114925000Y-136110000D01*
G75*
G02*
X115075000Y-135960000I150000J0D01*
G01*
X116825000Y-135960000D01*
G75*
G02*
X116975000Y-136110000I0J-150000D01*
G01*
X116975000Y-136410000D01*
G75*
G02*
X116825000Y-136560000I-150000J0D01*
G01*
X115075000Y-136560000D01*
G75*
G02*
X114925000Y-136410000I0J150000D01*
G01*
G37*
G36*
G01*
X114925000Y-137680000D02*
X114925000Y-137380000D01*
G75*
G02*
X115075000Y-137230000I150000J0D01*
G01*
X116825000Y-137230000D01*
G75*
G02*
X116975000Y-137380000I0J-150000D01*
G01*
X116975000Y-137680000D01*
G75*
G02*
X116825000Y-137830000I-150000J0D01*
G01*
X115075000Y-137830000D01*
G75*
G02*
X114925000Y-137680000I0J150000D01*
G01*
G37*
G36*
G01*
X114925000Y-138950000D02*
X114925000Y-138650000D01*
G75*
G02*
X115075000Y-138500000I150000J0D01*
G01*
X116825000Y-138500000D01*
G75*
G02*
X116975000Y-138650000I0J-150000D01*
G01*
X116975000Y-138950000D01*
G75*
G02*
X116825000Y-139100000I-150000J0D01*
G01*
X115075000Y-139100000D01*
G75*
G02*
X114925000Y-138950000I0J150000D01*
G01*
G37*
G36*
G01*
X114925000Y-140220000D02*
X114925000Y-139920000D01*
G75*
G02*
X115075000Y-139770000I150000J0D01*
G01*
X116825000Y-139770000D01*
G75*
G02*
X116975000Y-139920000I0J-150000D01*
G01*
X116975000Y-140220000D01*
G75*
G02*
X116825000Y-140370000I-150000J0D01*
G01*
X115075000Y-140370000D01*
G75*
G02*
X114925000Y-140220000I0J150000D01*
G01*
G37*
G36*
G01*
X114925000Y-141490000D02*
X114925000Y-141190000D01*
G75*
G02*
X115075000Y-141040000I150000J0D01*
G01*
X116825000Y-141040000D01*
G75*
G02*
X116975000Y-141190000I0J-150000D01*
G01*
X116975000Y-141490000D01*
G75*
G02*
X116825000Y-141640000I-150000J0D01*
G01*
X115075000Y-141640000D01*
G75*
G02*
X114925000Y-141490000I0J150000D01*
G01*
G37*
G36*
G01*
X114925000Y-142760000D02*
X114925000Y-142460000D01*
G75*
G02*
X115075000Y-142310000I150000J0D01*
G01*
X116825000Y-142310000D01*
G75*
G02*
X116975000Y-142460000I0J-150000D01*
G01*
X116975000Y-142760000D01*
G75*
G02*
X116825000Y-142910000I-150000J0D01*
G01*
X115075000Y-142910000D01*
G75*
G02*
X114925000Y-142760000I0J150000D01*
G01*
G37*
G36*
G01*
X114925000Y-144030000D02*
X114925000Y-143730000D01*
G75*
G02*
X115075000Y-143580000I150000J0D01*
G01*
X116825000Y-143580000D01*
G75*
G02*
X116975000Y-143730000I0J-150000D01*
G01*
X116975000Y-144030000D01*
G75*
G02*
X116825000Y-144180000I-150000J0D01*
G01*
X115075000Y-144180000D01*
G75*
G02*
X114925000Y-144030000I0J150000D01*
G01*
G37*
G36*
G01*
X105625000Y-144030000D02*
X105625000Y-143730000D01*
G75*
G02*
X105775000Y-143580000I150000J0D01*
G01*
X107525000Y-143580000D01*
G75*
G02*
X107675000Y-143730000I0J-150000D01*
G01*
X107675000Y-144030000D01*
G75*
G02*
X107525000Y-144180000I-150000J0D01*
G01*
X105775000Y-144180000D01*
G75*
G02*
X105625000Y-144030000I0J150000D01*
G01*
G37*
G36*
G01*
X105625000Y-142760000D02*
X105625000Y-142460000D01*
G75*
G02*
X105775000Y-142310000I150000J0D01*
G01*
X107525000Y-142310000D01*
G75*
G02*
X107675000Y-142460000I0J-150000D01*
G01*
X107675000Y-142760000D01*
G75*
G02*
X107525000Y-142910000I-150000J0D01*
G01*
X105775000Y-142910000D01*
G75*
G02*
X105625000Y-142760000I0J150000D01*
G01*
G37*
G36*
G01*
X105625000Y-141490000D02*
X105625000Y-141190000D01*
G75*
G02*
X105775000Y-141040000I150000J0D01*
G01*
X107525000Y-141040000D01*
G75*
G02*
X107675000Y-141190000I0J-150000D01*
G01*
X107675000Y-141490000D01*
G75*
G02*
X107525000Y-141640000I-150000J0D01*
G01*
X105775000Y-141640000D01*
G75*
G02*
X105625000Y-141490000I0J150000D01*
G01*
G37*
G36*
G01*
X105625000Y-140220000D02*
X105625000Y-139920000D01*
G75*
G02*
X105775000Y-139770000I150000J0D01*
G01*
X107525000Y-139770000D01*
G75*
G02*
X107675000Y-139920000I0J-150000D01*
G01*
X107675000Y-140220000D01*
G75*
G02*
X107525000Y-140370000I-150000J0D01*
G01*
X105775000Y-140370000D01*
G75*
G02*
X105625000Y-140220000I0J150000D01*
G01*
G37*
G36*
G01*
X105625000Y-138950000D02*
X105625000Y-138650000D01*
G75*
G02*
X105775000Y-138500000I150000J0D01*
G01*
X107525000Y-138500000D01*
G75*
G02*
X107675000Y-138650000I0J-150000D01*
G01*
X107675000Y-138950000D01*
G75*
G02*
X107525000Y-139100000I-150000J0D01*
G01*
X105775000Y-139100000D01*
G75*
G02*
X105625000Y-138950000I0J150000D01*
G01*
G37*
G36*
G01*
X105625000Y-137680000D02*
X105625000Y-137380000D01*
G75*
G02*
X105775000Y-137230000I150000J0D01*
G01*
X107525000Y-137230000D01*
G75*
G02*
X107675000Y-137380000I0J-150000D01*
G01*
X107675000Y-137680000D01*
G75*
G02*
X107525000Y-137830000I-150000J0D01*
G01*
X105775000Y-137830000D01*
G75*
G02*
X105625000Y-137680000I0J150000D01*
G01*
G37*
G36*
G01*
X105625000Y-136410000D02*
X105625000Y-136110000D01*
G75*
G02*
X105775000Y-135960000I150000J0D01*
G01*
X107525000Y-135960000D01*
G75*
G02*
X107675000Y-136110000I0J-150000D01*
G01*
X107675000Y-136410000D01*
G75*
G02*
X107525000Y-136560000I-150000J0D01*
G01*
X105775000Y-136560000D01*
G75*
G02*
X105625000Y-136410000I0J150000D01*
G01*
G37*
G36*
G01*
X105625000Y-135140000D02*
X105625000Y-134840000D01*
G75*
G02*
X105775000Y-134690000I150000J0D01*
G01*
X107525000Y-134690000D01*
G75*
G02*
X107675000Y-134840000I0J-150000D01*
G01*
X107675000Y-135140000D01*
G75*
G02*
X107525000Y-135290000I-150000J0D01*
G01*
X105775000Y-135290000D01*
G75*
G02*
X105625000Y-135140000I0J150000D01*
G01*
G37*
G36*
G01*
X105625000Y-133870000D02*
X105625000Y-133570000D01*
G75*
G02*
X105775000Y-133420000I150000J0D01*
G01*
X107525000Y-133420000D01*
G75*
G02*
X107675000Y-133570000I0J-150000D01*
G01*
X107675000Y-133870000D01*
G75*
G02*
X107525000Y-134020000I-150000J0D01*
G01*
X105775000Y-134020000D01*
G75*
G02*
X105625000Y-133870000I0J150000D01*
G01*
G37*
%TD*%
%TO.C,D1*%
G36*
G01*
X121225000Y-164925000D02*
X119975000Y-164925000D01*
G75*
G02*
X119725000Y-164675000I0J250000D01*
G01*
X119725000Y-163750000D01*
G75*
G02*
X119975000Y-163500000I250000J0D01*
G01*
X121225000Y-163500000D01*
G75*
G02*
X121475000Y-163750000I0J-250000D01*
G01*
X121475000Y-164675000D01*
G75*
G02*
X121225000Y-164925000I-250000J0D01*
G01*
G37*
G36*
G01*
X121225000Y-167900000D02*
X119975000Y-167900000D01*
G75*
G02*
X119725000Y-167650000I0J250000D01*
G01*
X119725000Y-166725000D01*
G75*
G02*
X119975000Y-166475000I250000J0D01*
G01*
X121225000Y-166475000D01*
G75*
G02*
X121475000Y-166725000I0J-250000D01*
G01*
X121475000Y-167650000D01*
G75*
G02*
X121225000Y-167900000I-250000J0D01*
G01*
G37*
%TD*%
M02*
