%TF.GenerationSoftware,KiCad,Pcbnew,(5.1.6)-1*%
%TF.CreationDate,2020-07-30T09:39:53+02:00*%
%TF.ProjectId,motor-controller,6d6f746f-722d-4636-9f6e-74726f6c6c65,rev?*%
%TF.SameCoordinates,Original*%
%TF.FileFunction,Soldermask,Top*%
%TF.FilePolarity,Negative*%
%FSLAX46Y46*%
G04 Gerber Fmt 4.6, Leading zero omitted, Abs format (unit mm)*
G04 Created by KiCad (PCBNEW (5.1.6)-1) date 2020-07-30 09:39:53*
%MOMM*%
%LPD*%
G01*
G04 APERTURE LIST*
%ADD10O,1.700000X1.700000*%
%ADD11R,1.700000X1.700000*%
%ADD12R,2.100000X1.600000*%
%ADD13R,2.100000X3.900000*%
%ADD14O,2.050000X1.800000*%
%ADD15O,1.800000X2.050000*%
%ADD16O,1.800000X2.100000*%
%ADD17C,2.300000*%
G04 APERTURE END LIST*
D10*
%TO.C,U4*%
X100520000Y-134200000D03*
X92900000Y-151980000D03*
X100520000Y-136740000D03*
X92900000Y-149440000D03*
X100520000Y-139280000D03*
X92900000Y-146900000D03*
X100520000Y-141820000D03*
X92900000Y-144360000D03*
X100520000Y-144360000D03*
X92900000Y-141820000D03*
X100520000Y-146900000D03*
X92900000Y-139280000D03*
X100520000Y-149440000D03*
X92900000Y-136740000D03*
X100520000Y-151980000D03*
D11*
X92900000Y-134200000D03*
%TD*%
%TO.C,R1*%
G36*
G01*
X115125000Y-161657456D02*
X115125000Y-160342544D01*
G75*
G02*
X115392544Y-160075000I267544J0D01*
G01*
X116382456Y-160075000D01*
G75*
G02*
X116650000Y-160342544I0J-267544D01*
G01*
X116650000Y-161657456D01*
G75*
G02*
X116382456Y-161925000I-267544J0D01*
G01*
X115392544Y-161925000D01*
G75*
G02*
X115125000Y-161657456I0J267544D01*
G01*
G37*
G36*
G01*
X112150000Y-161657456D02*
X112150000Y-160342544D01*
G75*
G02*
X112417544Y-160075000I267544J0D01*
G01*
X113407456Y-160075000D01*
G75*
G02*
X113675000Y-160342544I0J-267544D01*
G01*
X113675000Y-161657456D01*
G75*
G02*
X113407456Y-161925000I-267544J0D01*
G01*
X112417544Y-161925000D01*
G75*
G02*
X112150000Y-161657456I0J267544D01*
G01*
G37*
%TD*%
%TO.C,C1*%
G36*
G01*
X117998809Y-157075000D02*
X118601191Y-157075000D01*
G75*
G02*
X118875000Y-157348809I0J-273809D01*
G01*
X118875000Y-158201191D01*
G75*
G02*
X118601191Y-158475000I-273809J0D01*
G01*
X117998809Y-158475000D01*
G75*
G02*
X117725000Y-158201191I0J273809D01*
G01*
X117725000Y-157348809D01*
G75*
G02*
X117998809Y-157075000I273809J0D01*
G01*
G37*
G36*
G01*
X117998809Y-155125000D02*
X118601191Y-155125000D01*
G75*
G02*
X118875000Y-155398809I0J-273809D01*
G01*
X118875000Y-156251191D01*
G75*
G02*
X118601191Y-156525000I-273809J0D01*
G01*
X117998809Y-156525000D01*
G75*
G02*
X117725000Y-156251191I0J273809D01*
G01*
X117725000Y-155398809D01*
G75*
G02*
X117998809Y-155125000I273809J0D01*
G01*
G37*
%TD*%
D12*
%TO.C,U1*%
X114150000Y-156800000D03*
X114150000Y-152200000D03*
X114150000Y-154500000D03*
D13*
X107850000Y-154500000D03*
%TD*%
%TO.C,U2*%
G36*
G01*
X114875000Y-133895000D02*
X114875000Y-133545000D01*
G75*
G02*
X115050000Y-133370000I175000J0D01*
G01*
X116850000Y-133370000D01*
G75*
G02*
X117025000Y-133545000I0J-175000D01*
G01*
X117025000Y-133895000D01*
G75*
G02*
X116850000Y-134070000I-175000J0D01*
G01*
X115050000Y-134070000D01*
G75*
G02*
X114875000Y-133895000I0J175000D01*
G01*
G37*
G36*
G01*
X114875000Y-135165000D02*
X114875000Y-134815000D01*
G75*
G02*
X115050000Y-134640000I175000J0D01*
G01*
X116850000Y-134640000D01*
G75*
G02*
X117025000Y-134815000I0J-175000D01*
G01*
X117025000Y-135165000D01*
G75*
G02*
X116850000Y-135340000I-175000J0D01*
G01*
X115050000Y-135340000D01*
G75*
G02*
X114875000Y-135165000I0J175000D01*
G01*
G37*
G36*
G01*
X114875000Y-136435000D02*
X114875000Y-136085000D01*
G75*
G02*
X115050000Y-135910000I175000J0D01*
G01*
X116850000Y-135910000D01*
G75*
G02*
X117025000Y-136085000I0J-175000D01*
G01*
X117025000Y-136435000D01*
G75*
G02*
X116850000Y-136610000I-175000J0D01*
G01*
X115050000Y-136610000D01*
G75*
G02*
X114875000Y-136435000I0J175000D01*
G01*
G37*
G36*
G01*
X114875000Y-137705000D02*
X114875000Y-137355000D01*
G75*
G02*
X115050000Y-137180000I175000J0D01*
G01*
X116850000Y-137180000D01*
G75*
G02*
X117025000Y-137355000I0J-175000D01*
G01*
X117025000Y-137705000D01*
G75*
G02*
X116850000Y-137880000I-175000J0D01*
G01*
X115050000Y-137880000D01*
G75*
G02*
X114875000Y-137705000I0J175000D01*
G01*
G37*
G36*
G01*
X114875000Y-138975000D02*
X114875000Y-138625000D01*
G75*
G02*
X115050000Y-138450000I175000J0D01*
G01*
X116850000Y-138450000D01*
G75*
G02*
X117025000Y-138625000I0J-175000D01*
G01*
X117025000Y-138975000D01*
G75*
G02*
X116850000Y-139150000I-175000J0D01*
G01*
X115050000Y-139150000D01*
G75*
G02*
X114875000Y-138975000I0J175000D01*
G01*
G37*
G36*
G01*
X114875000Y-140245000D02*
X114875000Y-139895000D01*
G75*
G02*
X115050000Y-139720000I175000J0D01*
G01*
X116850000Y-139720000D01*
G75*
G02*
X117025000Y-139895000I0J-175000D01*
G01*
X117025000Y-140245000D01*
G75*
G02*
X116850000Y-140420000I-175000J0D01*
G01*
X115050000Y-140420000D01*
G75*
G02*
X114875000Y-140245000I0J175000D01*
G01*
G37*
G36*
G01*
X114875000Y-141515000D02*
X114875000Y-141165000D01*
G75*
G02*
X115050000Y-140990000I175000J0D01*
G01*
X116850000Y-140990000D01*
G75*
G02*
X117025000Y-141165000I0J-175000D01*
G01*
X117025000Y-141515000D01*
G75*
G02*
X116850000Y-141690000I-175000J0D01*
G01*
X115050000Y-141690000D01*
G75*
G02*
X114875000Y-141515000I0J175000D01*
G01*
G37*
G36*
G01*
X114875000Y-142785000D02*
X114875000Y-142435000D01*
G75*
G02*
X115050000Y-142260000I175000J0D01*
G01*
X116850000Y-142260000D01*
G75*
G02*
X117025000Y-142435000I0J-175000D01*
G01*
X117025000Y-142785000D01*
G75*
G02*
X116850000Y-142960000I-175000J0D01*
G01*
X115050000Y-142960000D01*
G75*
G02*
X114875000Y-142785000I0J175000D01*
G01*
G37*
G36*
G01*
X114875000Y-144055000D02*
X114875000Y-143705000D01*
G75*
G02*
X115050000Y-143530000I175000J0D01*
G01*
X116850000Y-143530000D01*
G75*
G02*
X117025000Y-143705000I0J-175000D01*
G01*
X117025000Y-144055000D01*
G75*
G02*
X116850000Y-144230000I-175000J0D01*
G01*
X115050000Y-144230000D01*
G75*
G02*
X114875000Y-144055000I0J175000D01*
G01*
G37*
G36*
G01*
X105575000Y-144055000D02*
X105575000Y-143705000D01*
G75*
G02*
X105750000Y-143530000I175000J0D01*
G01*
X107550000Y-143530000D01*
G75*
G02*
X107725000Y-143705000I0J-175000D01*
G01*
X107725000Y-144055000D01*
G75*
G02*
X107550000Y-144230000I-175000J0D01*
G01*
X105750000Y-144230000D01*
G75*
G02*
X105575000Y-144055000I0J175000D01*
G01*
G37*
G36*
G01*
X105575000Y-142785000D02*
X105575000Y-142435000D01*
G75*
G02*
X105750000Y-142260000I175000J0D01*
G01*
X107550000Y-142260000D01*
G75*
G02*
X107725000Y-142435000I0J-175000D01*
G01*
X107725000Y-142785000D01*
G75*
G02*
X107550000Y-142960000I-175000J0D01*
G01*
X105750000Y-142960000D01*
G75*
G02*
X105575000Y-142785000I0J175000D01*
G01*
G37*
G36*
G01*
X105575000Y-141515000D02*
X105575000Y-141165000D01*
G75*
G02*
X105750000Y-140990000I175000J0D01*
G01*
X107550000Y-140990000D01*
G75*
G02*
X107725000Y-141165000I0J-175000D01*
G01*
X107725000Y-141515000D01*
G75*
G02*
X107550000Y-141690000I-175000J0D01*
G01*
X105750000Y-141690000D01*
G75*
G02*
X105575000Y-141515000I0J175000D01*
G01*
G37*
G36*
G01*
X105575000Y-140245000D02*
X105575000Y-139895000D01*
G75*
G02*
X105750000Y-139720000I175000J0D01*
G01*
X107550000Y-139720000D01*
G75*
G02*
X107725000Y-139895000I0J-175000D01*
G01*
X107725000Y-140245000D01*
G75*
G02*
X107550000Y-140420000I-175000J0D01*
G01*
X105750000Y-140420000D01*
G75*
G02*
X105575000Y-140245000I0J175000D01*
G01*
G37*
G36*
G01*
X105575000Y-138975000D02*
X105575000Y-138625000D01*
G75*
G02*
X105750000Y-138450000I175000J0D01*
G01*
X107550000Y-138450000D01*
G75*
G02*
X107725000Y-138625000I0J-175000D01*
G01*
X107725000Y-138975000D01*
G75*
G02*
X107550000Y-139150000I-175000J0D01*
G01*
X105750000Y-139150000D01*
G75*
G02*
X105575000Y-138975000I0J175000D01*
G01*
G37*
G36*
G01*
X105575000Y-137705000D02*
X105575000Y-137355000D01*
G75*
G02*
X105750000Y-137180000I175000J0D01*
G01*
X107550000Y-137180000D01*
G75*
G02*
X107725000Y-137355000I0J-175000D01*
G01*
X107725000Y-137705000D01*
G75*
G02*
X107550000Y-137880000I-175000J0D01*
G01*
X105750000Y-137880000D01*
G75*
G02*
X105575000Y-137705000I0J175000D01*
G01*
G37*
G36*
G01*
X105575000Y-136435000D02*
X105575000Y-136085000D01*
G75*
G02*
X105750000Y-135910000I175000J0D01*
G01*
X107550000Y-135910000D01*
G75*
G02*
X107725000Y-136085000I0J-175000D01*
G01*
X107725000Y-136435000D01*
G75*
G02*
X107550000Y-136610000I-175000J0D01*
G01*
X105750000Y-136610000D01*
G75*
G02*
X105575000Y-136435000I0J175000D01*
G01*
G37*
G36*
G01*
X105575000Y-135165000D02*
X105575000Y-134815000D01*
G75*
G02*
X105750000Y-134640000I175000J0D01*
G01*
X107550000Y-134640000D01*
G75*
G02*
X107725000Y-134815000I0J-175000D01*
G01*
X107725000Y-135165000D01*
G75*
G02*
X107550000Y-135340000I-175000J0D01*
G01*
X105750000Y-135340000D01*
G75*
G02*
X105575000Y-135165000I0J175000D01*
G01*
G37*
G36*
G01*
X105575000Y-133895000D02*
X105575000Y-133545000D01*
G75*
G02*
X105750000Y-133370000I175000J0D01*
G01*
X107550000Y-133370000D01*
G75*
G02*
X107725000Y-133545000I0J-175000D01*
G01*
X107725000Y-133895000D01*
G75*
G02*
X107550000Y-134070000I-175000J0D01*
G01*
X105750000Y-134070000D01*
G75*
G02*
X105575000Y-133895000I0J175000D01*
G01*
G37*
%TD*%
D10*
%TO.C,U3*%
X121280000Y-152100000D03*
X128900000Y-134320000D03*
X121280000Y-149560000D03*
X128900000Y-136860000D03*
X121280000Y-147020000D03*
X128900000Y-139400000D03*
X121280000Y-144480000D03*
X128900000Y-141940000D03*
X121280000Y-141940000D03*
X128900000Y-144480000D03*
X121280000Y-139400000D03*
X128900000Y-147020000D03*
X121280000Y-136860000D03*
X128900000Y-149560000D03*
X121280000Y-134320000D03*
D11*
X128900000Y-152100000D03*
%TD*%
D14*
%TO.C,J4*%
X86500000Y-143400000D03*
X86500000Y-145900000D03*
X86500000Y-148400000D03*
G36*
G01*
X87260294Y-151800000D02*
X85739706Y-151800000D01*
G75*
G02*
X85475000Y-151535294I0J264706D01*
G01*
X85475000Y-150264706D01*
G75*
G02*
X85739706Y-150000000I264706J0D01*
G01*
X87260294Y-150000000D01*
G75*
G02*
X87525000Y-150264706I0J-264706D01*
G01*
X87525000Y-151535294D01*
G75*
G02*
X87260294Y-151800000I-264706J0D01*
G01*
G37*
%TD*%
%TO.C,J3*%
X135300000Y-150900000D03*
X135300000Y-148400000D03*
X135300000Y-145900000D03*
G36*
G01*
X134539706Y-142500000D02*
X136060294Y-142500000D01*
G75*
G02*
X136325000Y-142764706I0J-264706D01*
G01*
X136325000Y-144035294D01*
G75*
G02*
X136060294Y-144300000I-264706J0D01*
G01*
X134539706Y-144300000D01*
G75*
G02*
X134275000Y-144035294I0J264706D01*
G01*
X134275000Y-142764706D01*
G75*
G02*
X134539706Y-142500000I264706J0D01*
G01*
G37*
%TD*%
D15*
%TO.C,J2*%
X90500000Y-162500000D03*
X93000000Y-162500000D03*
X95500000Y-162500000D03*
X98000000Y-162500000D03*
X100500000Y-162500000D03*
G36*
G01*
X103900000Y-161739706D02*
X103900000Y-163260294D01*
G75*
G02*
X103635294Y-163525000I-264706J0D01*
G01*
X102364706Y-163525000D01*
G75*
G02*
X102100000Y-163260294I0J264706D01*
G01*
X102100000Y-161739706D01*
G75*
G02*
X102364706Y-161475000I264706J0D01*
G01*
X103635294Y-161475000D01*
G75*
G02*
X103900000Y-161739706I0J-264706D01*
G01*
G37*
%TD*%
D16*
%TO.C,J1*%
X126800000Y-162000000D03*
G36*
G01*
X130200000Y-161214706D02*
X130200000Y-162785294D01*
G75*
G02*
X129935294Y-163050000I-264706J0D01*
G01*
X128664706Y-163050000D01*
G75*
G02*
X128400000Y-162785294I0J264706D01*
G01*
X128400000Y-161214706D01*
G75*
G02*
X128664706Y-160950000I264706J0D01*
G01*
X129935294Y-160950000D01*
G75*
G02*
X130200000Y-161214706I0J-264706D01*
G01*
G37*
%TD*%
D17*
%TO.C,H4*%
X82500000Y-166200000D03*
%TD*%
%TO.C,H3*%
X139100000Y-133800000D03*
%TD*%
%TO.C,H2*%
X82500000Y-133800000D03*
%TD*%
%TO.C,H1*%
X139200000Y-166200000D03*
%TD*%
%TO.C,D1*%
G36*
G01*
X121257456Y-164975000D02*
X119942544Y-164975000D01*
G75*
G02*
X119675000Y-164707456I0J267544D01*
G01*
X119675000Y-163717544D01*
G75*
G02*
X119942544Y-163450000I267544J0D01*
G01*
X121257456Y-163450000D01*
G75*
G02*
X121525000Y-163717544I0J-267544D01*
G01*
X121525000Y-164707456D01*
G75*
G02*
X121257456Y-164975000I-267544J0D01*
G01*
G37*
G36*
G01*
X121257456Y-167950000D02*
X119942544Y-167950000D01*
G75*
G02*
X119675000Y-167682456I0J267544D01*
G01*
X119675000Y-166692544D01*
G75*
G02*
X119942544Y-166425000I267544J0D01*
G01*
X121257456Y-166425000D01*
G75*
G02*
X121525000Y-166692544I0J-267544D01*
G01*
X121525000Y-167682456D01*
G75*
G02*
X121257456Y-167950000I-267544J0D01*
G01*
G37*
%TD*%
M02*
