%TF.GenerationSoftware,KiCad,Pcbnew,(5.1.6)-1*%
%TF.CreationDate,2020-07-30T09:39:53+02:00*%
%TF.ProjectId,motor-controller,6d6f746f-722d-4636-9f6e-74726f6c6c65,rev?*%
%TF.SameCoordinates,Original*%
%TF.FileFunction,Copper,L2,Bot*%
%TF.FilePolarity,Positive*%
%FSLAX46Y46*%
G04 Gerber Fmt 4.6, Leading zero omitted, Abs format (unit mm)*
G04 Created by KiCad (PCBNEW (5.1.6)-1) date 2020-07-30 09:39:53*
%MOMM*%
%LPD*%
G01*
G04 APERTURE LIST*
%TA.AperFunction,ComponentPad*%
%ADD10O,1.600000X1.600000*%
%TD*%
%TA.AperFunction,ComponentPad*%
%ADD11R,1.600000X1.600000*%
%TD*%
%TA.AperFunction,ComponentPad*%
%ADD12O,1.950000X1.700000*%
%TD*%
%TA.AperFunction,ComponentPad*%
%ADD13O,1.700000X1.950000*%
%TD*%
%TA.AperFunction,ComponentPad*%
%ADD14O,1.700000X2.000000*%
%TD*%
%TA.AperFunction,ViaPad*%
%ADD15C,0.800000*%
%TD*%
%TA.AperFunction,Conductor*%
%ADD16C,0.250000*%
%TD*%
%TA.AperFunction,Conductor*%
%ADD17C,0.500000*%
%TD*%
%TA.AperFunction,Conductor*%
%ADD18C,0.254000*%
%TD*%
G04 APERTURE END LIST*
D10*
%TO.P,U4,16*%
%TO.N,VCC*%
X100520000Y-134200000D03*
%TO.P,U4,8*%
X92900000Y-151980000D03*
%TO.P,U4,15*%
%TO.N,GP7*%
X100520000Y-136740000D03*
%TO.P,U4,7*%
%TO.N,GP5*%
X92900000Y-149440000D03*
%TO.P,U4,14*%
%TO.N,M2D*%
X100520000Y-139280000D03*
%TO.P,U4,6*%
%TO.N,M2B*%
X92900000Y-146900000D03*
%TO.P,U4,13*%
%TO.N,GND*%
X100520000Y-141820000D03*
%TO.P,U4,5*%
X92900000Y-144360000D03*
%TO.P,U4,12*%
X100520000Y-144360000D03*
%TO.P,U4,4*%
X92900000Y-141820000D03*
%TO.P,U4,11*%
%TO.N,M2C*%
X100520000Y-146900000D03*
%TO.P,U4,3*%
%TO.N,M2A*%
X92900000Y-139280000D03*
%TO.P,U4,10*%
%TO.N,GP6*%
X100520000Y-149440000D03*
%TO.P,U4,2*%
%TO.N,GP4*%
X92900000Y-136740000D03*
%TO.P,U4,9*%
%TO.N,+5V*%
X100520000Y-151980000D03*
D11*
%TO.P,U4,1*%
X92900000Y-134200000D03*
%TD*%
D10*
%TO.P,U3,16*%
%TO.N,VCC*%
X121280000Y-152100000D03*
%TO.P,U3,8*%
X128900000Y-134320000D03*
%TO.P,U3,15*%
%TO.N,GP3*%
X121280000Y-149560000D03*
%TO.P,U3,7*%
%TO.N,GP1*%
X128900000Y-136860000D03*
%TO.P,U3,14*%
%TO.N,M1D*%
X121280000Y-147020000D03*
%TO.P,U3,6*%
%TO.N,M1B*%
X128900000Y-139400000D03*
%TO.P,U3,13*%
%TO.N,GND*%
X121280000Y-144480000D03*
%TO.P,U3,5*%
X128900000Y-141940000D03*
%TO.P,U3,12*%
X121280000Y-141940000D03*
%TO.P,U3,4*%
X128900000Y-144480000D03*
%TO.P,U3,11*%
%TO.N,M1C*%
X121280000Y-139400000D03*
%TO.P,U3,3*%
%TO.N,M1A*%
X128900000Y-147020000D03*
%TO.P,U3,10*%
%TO.N,GP2*%
X121280000Y-136860000D03*
%TO.P,U3,2*%
%TO.N,GP0*%
X128900000Y-149560000D03*
%TO.P,U3,9*%
%TO.N,+5V*%
X121280000Y-134320000D03*
D11*
%TO.P,U3,1*%
X128900000Y-152100000D03*
%TD*%
D12*
%TO.P,J4,4*%
%TO.N,M2D*%
X86500000Y-143400000D03*
%TO.P,J4,3*%
%TO.N,M2C*%
X86500000Y-145900000D03*
%TO.P,J4,2*%
%TO.N,M2B*%
X86500000Y-148400000D03*
%TO.P,J4,1*%
%TO.N,M2A*%
%TA.AperFunction,ComponentPad*%
G36*
G01*
X87225000Y-151750000D02*
X85775000Y-151750000D01*
G75*
G02*
X85525000Y-151500000I0J250000D01*
G01*
X85525000Y-150300000D01*
G75*
G02*
X85775000Y-150050000I250000J0D01*
G01*
X87225000Y-150050000D01*
G75*
G02*
X87475000Y-150300000I0J-250000D01*
G01*
X87475000Y-151500000D01*
G75*
G02*
X87225000Y-151750000I-250000J0D01*
G01*
G37*
%TD.AperFunction*%
%TD*%
%TO.P,J3,4*%
%TO.N,M1D*%
X135300000Y-150900000D03*
%TO.P,J3,3*%
%TO.N,M1C*%
X135300000Y-148400000D03*
%TO.P,J3,2*%
%TO.N,M1B*%
X135300000Y-145900000D03*
%TO.P,J3,1*%
%TO.N,M1A*%
%TA.AperFunction,ComponentPad*%
G36*
G01*
X134575000Y-142550000D02*
X136025000Y-142550000D01*
G75*
G02*
X136275000Y-142800000I0J-250000D01*
G01*
X136275000Y-144000000D01*
G75*
G02*
X136025000Y-144250000I-250000J0D01*
G01*
X134575000Y-144250000D01*
G75*
G02*
X134325000Y-144000000I0J250000D01*
G01*
X134325000Y-142800000D01*
G75*
G02*
X134575000Y-142550000I250000J0D01*
G01*
G37*
%TD.AperFunction*%
%TD*%
D13*
%TO.P,J2,6*%
%TO.N,GND*%
X90500000Y-162500000D03*
%TO.P,J2,5*%
%TO.N,CS*%
X93000000Y-162500000D03*
%TO.P,J2,4*%
%TO.N,MISO*%
X95500000Y-162500000D03*
%TO.P,J2,3*%
%TO.N,MOSI*%
X98000000Y-162500000D03*
%TO.P,J2,2*%
%TO.N,SCK*%
X100500000Y-162500000D03*
%TO.P,J2,1*%
%TO.N,+3V3*%
%TA.AperFunction,ComponentPad*%
G36*
G01*
X103850000Y-161775000D02*
X103850000Y-163225000D01*
G75*
G02*
X103600000Y-163475000I-250000J0D01*
G01*
X102400000Y-163475000D01*
G75*
G02*
X102150000Y-163225000I0J250000D01*
G01*
X102150000Y-161775000D01*
G75*
G02*
X102400000Y-161525000I250000J0D01*
G01*
X103600000Y-161525000D01*
G75*
G02*
X103850000Y-161775000I0J-250000D01*
G01*
G37*
%TD.AperFunction*%
%TD*%
D14*
%TO.P,J1,2*%
%TO.N,GND*%
X126800000Y-162000000D03*
%TO.P,J1,1*%
%TO.N,VCC*%
%TA.AperFunction,ComponentPad*%
G36*
G01*
X130150000Y-161250000D02*
X130150000Y-162750000D01*
G75*
G02*
X129900000Y-163000000I-250000J0D01*
G01*
X128700000Y-163000000D01*
G75*
G02*
X128450000Y-162750000I0J250000D01*
G01*
X128450000Y-161250000D01*
G75*
G02*
X128700000Y-161000000I250000J0D01*
G01*
X129900000Y-161000000D01*
G75*
G02*
X130150000Y-161250000I0J-250000D01*
G01*
G37*
%TD.AperFunction*%
%TD*%
D15*
%TO.N,VCC*%
X111400000Y-152200000D03*
%TO.N,CS*%
X108573300Y-144130600D03*
%TO.N,MOSI*%
X108138200Y-135653100D03*
%TO.N,+3V3*%
X114297400Y-133678200D03*
X113039500Y-140226700D03*
%TO.N,GP5*%
X98912700Y-133330200D03*
%TD*%
D16*
%TO.N,GND*%
X100520000Y-144360000D02*
X100520000Y-141820000D01*
X126642700Y-153246900D02*
X120819400Y-153246900D01*
X120819400Y-153246900D02*
X120154700Y-152582200D01*
X120154700Y-152582200D02*
X120154700Y-146449200D01*
X120154700Y-146449200D02*
X120998600Y-145605300D01*
X120998600Y-145605300D02*
X121280000Y-145605300D01*
X128900000Y-145605300D02*
X128618600Y-145605300D01*
X128618600Y-145605300D02*
X127774700Y-146449200D01*
X127774700Y-146449200D02*
X127774700Y-152114900D01*
X127774700Y-152114900D02*
X126642700Y-153246900D01*
X126800000Y-160674700D02*
X126642700Y-160517400D01*
X126642700Y-160517400D02*
X126642700Y-153246900D01*
X121280000Y-144480000D02*
X121280000Y-145605300D01*
X128900000Y-144480000D02*
X128900000Y-145605300D01*
X126800000Y-162000000D02*
X126800000Y-160674700D01*
X92900000Y-141820000D02*
X92900000Y-144360000D01*
X121280000Y-141940000D02*
X121280000Y-144480000D01*
X128900000Y-144480000D02*
X128900000Y-141940000D01*
X98626300Y-132590900D02*
X95478500Y-135738700D01*
X100520000Y-140881400D02*
X101695900Y-139705500D01*
X100520000Y-141820000D02*
X100520000Y-140881400D01*
X95478500Y-139241500D02*
X92900000Y-141820000D01*
X101695900Y-139705500D02*
X101695900Y-133760600D01*
X101695900Y-133760600D02*
X100526200Y-132590900D01*
X95478500Y-135738700D02*
X95478500Y-139241500D01*
X100526200Y-132590900D02*
X98626300Y-132590900D01*
%TO.N,+5V*%
X92900000Y-134200000D02*
X94025300Y-134200000D01*
X121280000Y-134320000D02*
X120154700Y-134320000D01*
X120154700Y-134320000D02*
X117481100Y-131646400D01*
X117481100Y-131646400D02*
X96578900Y-131646400D01*
X96578900Y-131646400D02*
X94025300Y-134200000D01*
D17*
%TO.N,VCC*%
X128900000Y-134320000D02*
X127380000Y-134320000D01*
X127380000Y-134320000D02*
X126400000Y-135300000D01*
X126400000Y-135300000D02*
X126400000Y-150000000D01*
X126400000Y-150000000D02*
X124300000Y-152100000D01*
X124300000Y-152100000D02*
X121280000Y-152100000D01*
X100520000Y-134200000D02*
X98800000Y-134200000D01*
X98800000Y-134200000D02*
X97800000Y-135200000D01*
X97800000Y-135200000D02*
X97800000Y-150700000D01*
X97800000Y-150700000D02*
X96520000Y-151980000D01*
X96520000Y-151980000D02*
X92900000Y-151980000D01*
X111400000Y-152200000D02*
X111400000Y-153200000D01*
X111400000Y-153200000D02*
X110600000Y-154000000D01*
X110600000Y-154000000D02*
X93600000Y-154000000D01*
X93600000Y-154000000D02*
X92900000Y-153300000D01*
X92900000Y-153300000D02*
X92900000Y-151980000D01*
D16*
%TO.N,CS*%
X94175300Y-162500000D02*
X94175300Y-161985800D01*
X94175300Y-161985800D02*
X101170500Y-154990600D01*
X101170500Y-154990600D02*
X110463200Y-154990600D01*
X110463200Y-154990600D02*
X112137600Y-153316200D01*
X112137600Y-153316200D02*
X112137600Y-147694900D01*
X112137600Y-147694900D02*
X108573300Y-144130600D01*
X93000000Y-162500000D02*
X94175300Y-162500000D01*
%TO.N,MOSI*%
X99175300Y-162500000D02*
X99175300Y-161985800D01*
X99175300Y-161985800D02*
X104369500Y-156791600D01*
X104369500Y-156791600D02*
X109305300Y-156791600D01*
X109305300Y-156791600D02*
X112589100Y-153507800D01*
X112589100Y-153507800D02*
X112589100Y-147074100D01*
X112589100Y-147074100D02*
X108138200Y-142623200D01*
X108138200Y-142623200D02*
X108138200Y-135653100D01*
X98000000Y-162500000D02*
X99175300Y-162500000D01*
%TO.N,+3V3*%
X113039500Y-140226700D02*
X113039500Y-134936100D01*
X113039500Y-134936100D02*
X114297400Y-133678200D01*
X103000000Y-162500000D02*
X104253300Y-162500000D01*
X104253300Y-162500000D02*
X113039500Y-153713800D01*
X113039500Y-153713800D02*
X113039500Y-140226700D01*
%TO.N,M1C*%
X122405300Y-138415400D02*
X122405300Y-139400000D01*
X127676000Y-133144700D02*
X122405300Y-138415400D01*
X122405300Y-139400000D02*
X121280000Y-139400000D01*
X136610000Y-148400000D02*
X137580000Y-147430000D01*
X137580000Y-147430000D02*
X137580000Y-141399400D01*
X135300000Y-148400000D02*
X136610000Y-148400000D01*
X137580000Y-141399400D02*
X129325300Y-133144700D01*
X129325300Y-133144700D02*
X127676000Y-133144700D01*
%TO.N,M1A*%
X128900000Y-147020000D02*
X130025300Y-147020000D01*
X135300000Y-143400000D02*
X133645300Y-143400000D01*
X133645300Y-143400000D02*
X130025300Y-147020000D01*
%TO.N,M2C*%
X100520000Y-146056000D02*
X100520000Y-146900000D01*
X90368700Y-140206500D02*
X92565200Y-138010000D01*
X94025400Y-136554900D02*
X98456500Y-132123800D01*
X86500000Y-145900000D02*
X88370000Y-145900000D01*
X90368700Y-143901300D02*
X90368700Y-140206500D01*
X88370000Y-145900000D02*
X90368700Y-143901300D01*
X102158500Y-144417500D02*
X100520000Y-146056000D01*
X102158500Y-133519000D02*
X102158500Y-144417500D01*
X92565200Y-138010000D02*
X93257900Y-138010000D01*
X94025400Y-137242500D02*
X94025400Y-136554900D01*
X93257900Y-138010000D02*
X94025400Y-137242500D01*
X98456500Y-132123800D02*
X100763300Y-132123800D01*
X100763300Y-132123800D02*
X102158500Y-133519000D01*
%TO.N,M2A*%
X92900000Y-139280000D02*
X92900000Y-140405300D01*
X86500000Y-150900000D02*
X91774700Y-145625300D01*
X91774700Y-145625300D02*
X91774700Y-141249200D01*
X91774700Y-141249200D02*
X92618600Y-140405300D01*
X92618600Y-140405300D02*
X92900000Y-140405300D01*
%TO.N,GP5*%
X98833300Y-133330200D02*
X98912700Y-133330200D01*
X96339500Y-135824000D02*
X98833300Y-133330200D01*
X96339500Y-147890500D02*
X96339500Y-135824000D01*
X92900000Y-149440000D02*
X94790000Y-149440000D01*
X94790000Y-149440000D02*
X96339500Y-147890500D01*
%TD*%
D18*
%TO.N,+5V*%
G36*
X98032224Y-131488826D02*
G01*
X97916499Y-131583799D01*
X97892701Y-131612797D01*
X94301774Y-135203725D01*
X94325812Y-135124482D01*
X94338072Y-135000000D01*
X94335000Y-134485750D01*
X94176250Y-134327000D01*
X93027000Y-134327000D01*
X93027000Y-134347000D01*
X92773000Y-134347000D01*
X92773000Y-134327000D01*
X91623750Y-134327000D01*
X91465000Y-134485750D01*
X91461928Y-135000000D01*
X91474188Y-135124482D01*
X91510498Y-135244180D01*
X91569463Y-135354494D01*
X91648815Y-135451185D01*
X91745506Y-135530537D01*
X91855820Y-135589502D01*
X91975518Y-135625812D01*
X91983961Y-135626643D01*
X91785363Y-135825241D01*
X91628320Y-136060273D01*
X91520147Y-136321426D01*
X91465000Y-136598665D01*
X91465000Y-136881335D01*
X91520147Y-137158574D01*
X91628320Y-137419727D01*
X91785363Y-137654759D01*
X91815501Y-137684897D01*
X89857698Y-139642701D01*
X89828700Y-139666499D01*
X89804902Y-139695497D01*
X89804901Y-139695498D01*
X89733726Y-139782224D01*
X89663154Y-139914254D01*
X89640025Y-139990503D01*
X89619698Y-140057514D01*
X89617510Y-140079727D01*
X89605024Y-140206500D01*
X89608701Y-140243832D01*
X89608700Y-143586498D01*
X88055199Y-145140000D01*
X87902595Y-145140000D01*
X87865706Y-145070986D01*
X87680134Y-144844866D01*
X87454014Y-144659294D01*
X87436626Y-144650000D01*
X87454014Y-144640706D01*
X87680134Y-144455134D01*
X87865706Y-144229014D01*
X88003599Y-143971034D01*
X88088513Y-143691111D01*
X88117185Y-143400000D01*
X88088513Y-143108889D01*
X88003599Y-142828966D01*
X87865706Y-142570986D01*
X87680134Y-142344866D01*
X87454014Y-142159294D01*
X87196034Y-142021401D01*
X86916111Y-141936487D01*
X86697950Y-141915000D01*
X86302050Y-141915000D01*
X86083889Y-141936487D01*
X85803966Y-142021401D01*
X85545986Y-142159294D01*
X85319866Y-142344866D01*
X85134294Y-142570986D01*
X84996401Y-142828966D01*
X84911487Y-143108889D01*
X84882815Y-143400000D01*
X84911487Y-143691111D01*
X84996401Y-143971034D01*
X85134294Y-144229014D01*
X85319866Y-144455134D01*
X85545986Y-144640706D01*
X85563374Y-144650000D01*
X85545986Y-144659294D01*
X85319866Y-144844866D01*
X85134294Y-145070986D01*
X84996401Y-145328966D01*
X84911487Y-145608889D01*
X84882815Y-145900000D01*
X84911487Y-146191111D01*
X84996401Y-146471034D01*
X85134294Y-146729014D01*
X85319866Y-146955134D01*
X85545986Y-147140706D01*
X85563374Y-147150000D01*
X85545986Y-147159294D01*
X85319866Y-147344866D01*
X85134294Y-147570986D01*
X84996401Y-147828966D01*
X84911487Y-148108889D01*
X84882815Y-148400000D01*
X84911487Y-148691111D01*
X84996401Y-148971034D01*
X85134294Y-149229014D01*
X85319866Y-149455134D01*
X85383337Y-149507223D01*
X85281614Y-149561595D01*
X85147038Y-149672038D01*
X85036595Y-149806614D01*
X84954528Y-149960150D01*
X84903992Y-150126746D01*
X84886928Y-150300000D01*
X84886928Y-151500000D01*
X84903992Y-151673254D01*
X84954528Y-151839850D01*
X85036595Y-151993386D01*
X85147038Y-152127962D01*
X85281614Y-152238405D01*
X85435150Y-152320472D01*
X85601746Y-152371008D01*
X85775000Y-152388072D01*
X87225000Y-152388072D01*
X87398254Y-152371008D01*
X87564850Y-152320472D01*
X87718386Y-152238405D01*
X87852962Y-152127962D01*
X87963405Y-151993386D01*
X88045472Y-151839850D01*
X88096008Y-151673254D01*
X88113072Y-151500000D01*
X88113072Y-150361729D01*
X91465000Y-147009802D01*
X91465000Y-147041335D01*
X91520147Y-147318574D01*
X91628320Y-147579727D01*
X91785363Y-147814759D01*
X91985241Y-148014637D01*
X92217759Y-148170000D01*
X91985241Y-148325363D01*
X91785363Y-148525241D01*
X91628320Y-148760273D01*
X91520147Y-149021426D01*
X91465000Y-149298665D01*
X91465000Y-149581335D01*
X91520147Y-149858574D01*
X91628320Y-150119727D01*
X91785363Y-150354759D01*
X91985241Y-150554637D01*
X92217759Y-150710000D01*
X91985241Y-150865363D01*
X91785363Y-151065241D01*
X91628320Y-151300273D01*
X91520147Y-151561426D01*
X91465000Y-151838665D01*
X91465000Y-152121335D01*
X91520147Y-152398574D01*
X91628320Y-152659727D01*
X91785363Y-152894759D01*
X91985241Y-153094637D01*
X92015000Y-153114521D01*
X92015000Y-153256530D01*
X92010719Y-153300000D01*
X92015000Y-153343469D01*
X92015000Y-153343476D01*
X92022690Y-153421554D01*
X92027805Y-153473490D01*
X92043157Y-153524096D01*
X92078411Y-153640312D01*
X92160589Y-153794058D01*
X92271183Y-153928817D01*
X92304956Y-153956534D01*
X92943470Y-154595049D01*
X92971183Y-154628817D01*
X93004951Y-154656530D01*
X93004953Y-154656532D01*
X93055912Y-154698353D01*
X93105941Y-154739411D01*
X93259687Y-154821589D01*
X93426510Y-154872195D01*
X93556523Y-154885000D01*
X93556533Y-154885000D01*
X93599999Y-154889281D01*
X93643465Y-154885000D01*
X100201298Y-154885000D01*
X93896566Y-161189733D01*
X93829014Y-161134294D01*
X93571034Y-160996401D01*
X93291111Y-160911487D01*
X93000000Y-160882815D01*
X92708890Y-160911487D01*
X92428967Y-160996401D01*
X92170987Y-161134294D01*
X91944866Y-161319866D01*
X91759294Y-161545986D01*
X91750000Y-161563374D01*
X91740706Y-161545986D01*
X91555134Y-161319866D01*
X91329014Y-161134294D01*
X91071034Y-160996401D01*
X90791111Y-160911487D01*
X90500000Y-160882815D01*
X90208890Y-160911487D01*
X89928967Y-160996401D01*
X89670987Y-161134294D01*
X89444866Y-161319866D01*
X89259294Y-161545986D01*
X89121401Y-161803966D01*
X89036487Y-162083889D01*
X89015000Y-162302050D01*
X89015000Y-162697949D01*
X89036487Y-162916110D01*
X89121401Y-163196033D01*
X89259294Y-163454013D01*
X89444866Y-163680134D01*
X89670986Y-163865706D01*
X89928966Y-164003599D01*
X90208889Y-164088513D01*
X90500000Y-164117185D01*
X90791110Y-164088513D01*
X91071033Y-164003599D01*
X91329013Y-163865706D01*
X91555134Y-163680134D01*
X91740706Y-163454014D01*
X91750000Y-163436626D01*
X91759294Y-163454013D01*
X91944866Y-163680134D01*
X92170986Y-163865706D01*
X92428966Y-164003599D01*
X92708889Y-164088513D01*
X93000000Y-164117185D01*
X93291110Y-164088513D01*
X93571033Y-164003599D01*
X93829013Y-163865706D01*
X94055134Y-163680134D01*
X94240706Y-163454014D01*
X94250000Y-163436626D01*
X94259294Y-163454013D01*
X94444866Y-163680134D01*
X94670986Y-163865706D01*
X94928966Y-164003599D01*
X95208889Y-164088513D01*
X95500000Y-164117185D01*
X95791110Y-164088513D01*
X96071033Y-164003599D01*
X96329013Y-163865706D01*
X96555134Y-163680134D01*
X96740706Y-163454014D01*
X96750000Y-163436626D01*
X96759294Y-163454013D01*
X96944866Y-163680134D01*
X97170986Y-163865706D01*
X97428966Y-164003599D01*
X97708889Y-164088513D01*
X98000000Y-164117185D01*
X98291110Y-164088513D01*
X98571033Y-164003599D01*
X98829013Y-163865706D01*
X99055134Y-163680134D01*
X99240706Y-163454014D01*
X99250000Y-163436626D01*
X99259294Y-163454013D01*
X99444866Y-163680134D01*
X99670986Y-163865706D01*
X99928966Y-164003599D01*
X100208889Y-164088513D01*
X100500000Y-164117185D01*
X100791110Y-164088513D01*
X101071033Y-164003599D01*
X101329013Y-163865706D01*
X101555134Y-163680134D01*
X101607223Y-163616663D01*
X101661595Y-163718386D01*
X101772038Y-163852962D01*
X101906614Y-163963405D01*
X102060150Y-164045472D01*
X102226746Y-164096008D01*
X102400000Y-164113072D01*
X103600000Y-164113072D01*
X103773254Y-164096008D01*
X103939850Y-164045472D01*
X104093386Y-163963405D01*
X104227962Y-163852962D01*
X104338405Y-163718386D01*
X104420472Y-163564850D01*
X104471008Y-163398254D01*
X104488072Y-163225000D01*
X104488072Y-163222981D01*
X104545547Y-163205546D01*
X104677576Y-163134974D01*
X104793301Y-163040001D01*
X104817104Y-163010997D01*
X113550504Y-154277598D01*
X113579501Y-154253801D01*
X113674474Y-154138076D01*
X113745046Y-154006047D01*
X113788503Y-153862786D01*
X113799500Y-153751133D01*
X113799500Y-153751124D01*
X113803176Y-153713801D01*
X113799500Y-153676478D01*
X113799500Y-146449200D01*
X119391024Y-146449200D01*
X119394701Y-146486532D01*
X119394700Y-152544877D01*
X119391024Y-152582200D01*
X119394700Y-152619522D01*
X119394700Y-152619532D01*
X119405697Y-152731185D01*
X119444677Y-152859687D01*
X119449154Y-152874446D01*
X119519726Y-153006476D01*
X119536168Y-153026510D01*
X119614699Y-153122201D01*
X119643702Y-153146003D01*
X120255600Y-153757902D01*
X120279399Y-153786901D01*
X120395124Y-153881874D01*
X120527153Y-153952446D01*
X120670414Y-153995903D01*
X120782067Y-154006900D01*
X120782075Y-154006900D01*
X120819400Y-154010576D01*
X120856725Y-154006900D01*
X125882701Y-154006900D01*
X125882700Y-160480077D01*
X125879024Y-160517400D01*
X125882700Y-160554722D01*
X125882700Y-160554732D01*
X125893697Y-160666385D01*
X125895237Y-160671461D01*
X125744866Y-160794866D01*
X125559294Y-161020986D01*
X125421401Y-161278966D01*
X125336487Y-161558889D01*
X125315000Y-161777050D01*
X125315000Y-162222949D01*
X125336487Y-162441110D01*
X125421401Y-162721033D01*
X125559294Y-162979013D01*
X125744866Y-163205134D01*
X125970986Y-163390706D01*
X126228966Y-163528599D01*
X126508889Y-163613513D01*
X126800000Y-163642185D01*
X127091110Y-163613513D01*
X127371033Y-163528599D01*
X127629013Y-163390706D01*
X127855134Y-163205134D01*
X127907223Y-163141663D01*
X127961595Y-163243386D01*
X128072038Y-163377962D01*
X128206614Y-163488405D01*
X128360150Y-163570472D01*
X128526746Y-163621008D01*
X128700000Y-163638072D01*
X129900000Y-163638072D01*
X130073254Y-163621008D01*
X130239850Y-163570472D01*
X130393386Y-163488405D01*
X130527962Y-163377962D01*
X130638405Y-163243386D01*
X130720472Y-163089850D01*
X130771008Y-162923254D01*
X130788072Y-162750000D01*
X130788072Y-161250000D01*
X130771008Y-161076746D01*
X130720472Y-160910150D01*
X130638405Y-160756614D01*
X130527962Y-160622038D01*
X130393386Y-160511595D01*
X130239850Y-160429528D01*
X130073254Y-160378992D01*
X129900000Y-160361928D01*
X128700000Y-160361928D01*
X128526746Y-160378992D01*
X128360150Y-160429528D01*
X128206614Y-160511595D01*
X128072038Y-160622038D01*
X127961595Y-160756614D01*
X127907223Y-160858337D01*
X127855134Y-160794866D01*
X127629014Y-160609294D01*
X127553246Y-160568795D01*
X127549003Y-160525714D01*
X127505546Y-160382453D01*
X127434974Y-160250424D01*
X127402700Y-160211098D01*
X127402700Y-153561701D01*
X127632769Y-153331633D01*
X127648815Y-153351185D01*
X127745506Y-153430537D01*
X127855820Y-153489502D01*
X127975518Y-153525812D01*
X128100000Y-153538072D01*
X128614250Y-153535000D01*
X128773000Y-153376250D01*
X128773000Y-152227000D01*
X129027000Y-152227000D01*
X129027000Y-153376250D01*
X129185750Y-153535000D01*
X129700000Y-153538072D01*
X129824482Y-153525812D01*
X129944180Y-153489502D01*
X130054494Y-153430537D01*
X130151185Y-153351185D01*
X130230537Y-153254494D01*
X130289502Y-153144180D01*
X130325812Y-153024482D01*
X130338072Y-152900000D01*
X130335000Y-152385750D01*
X130176250Y-152227000D01*
X129027000Y-152227000D01*
X128773000Y-152227000D01*
X128753000Y-152227000D01*
X128753000Y-151973000D01*
X128773000Y-151973000D01*
X128773000Y-151953000D01*
X129027000Y-151953000D01*
X129027000Y-151973000D01*
X130176250Y-151973000D01*
X130335000Y-151814250D01*
X130338072Y-151300000D01*
X130325812Y-151175518D01*
X130289502Y-151055820D01*
X130230537Y-150945506D01*
X130151185Y-150848815D01*
X130054494Y-150769463D01*
X129944180Y-150710498D01*
X129824482Y-150674188D01*
X129816039Y-150673357D01*
X130014637Y-150474759D01*
X130171680Y-150239727D01*
X130279853Y-149978574D01*
X130335000Y-149701335D01*
X130335000Y-149418665D01*
X130279853Y-149141426D01*
X130171680Y-148880273D01*
X130014637Y-148645241D01*
X129814759Y-148445363D01*
X129582241Y-148290000D01*
X129814759Y-148134637D01*
X130014637Y-147934759D01*
X130121947Y-147774158D01*
X130174286Y-147769003D01*
X130317547Y-147725546D01*
X130449576Y-147654974D01*
X130565301Y-147560001D01*
X130589104Y-147530997D01*
X133763488Y-144356614D01*
X133836595Y-144493386D01*
X133947038Y-144627962D01*
X134081614Y-144738405D01*
X134183337Y-144792777D01*
X134119866Y-144844866D01*
X133934294Y-145070986D01*
X133796401Y-145328966D01*
X133711487Y-145608889D01*
X133682815Y-145900000D01*
X133711487Y-146191111D01*
X133796401Y-146471034D01*
X133934294Y-146729014D01*
X134119866Y-146955134D01*
X134345986Y-147140706D01*
X134363374Y-147150000D01*
X134345986Y-147159294D01*
X134119866Y-147344866D01*
X133934294Y-147570986D01*
X133796401Y-147828966D01*
X133711487Y-148108889D01*
X133682815Y-148400000D01*
X133711487Y-148691111D01*
X133796401Y-148971034D01*
X133934294Y-149229014D01*
X134119866Y-149455134D01*
X134345986Y-149640706D01*
X134363374Y-149650000D01*
X134345986Y-149659294D01*
X134119866Y-149844866D01*
X133934294Y-150070986D01*
X133796401Y-150328966D01*
X133711487Y-150608889D01*
X133682815Y-150900000D01*
X133711487Y-151191111D01*
X133796401Y-151471034D01*
X133934294Y-151729014D01*
X134119866Y-151955134D01*
X134345986Y-152140706D01*
X134603966Y-152278599D01*
X134883889Y-152363513D01*
X135102050Y-152385000D01*
X135497950Y-152385000D01*
X135716111Y-152363513D01*
X135996034Y-152278599D01*
X136254014Y-152140706D01*
X136480134Y-151955134D01*
X136665706Y-151729014D01*
X136803599Y-151471034D01*
X136888513Y-151191111D01*
X136917185Y-150900000D01*
X136888513Y-150608889D01*
X136803599Y-150328966D01*
X136665706Y-150070986D01*
X136480134Y-149844866D01*
X136254014Y-149659294D01*
X136236626Y-149650000D01*
X136254014Y-149640706D01*
X136480134Y-149455134D01*
X136665706Y-149229014D01*
X136705666Y-149154255D01*
X136758986Y-149149003D01*
X136902247Y-149105546D01*
X137034276Y-149034974D01*
X137150001Y-148940001D01*
X137173804Y-148910998D01*
X138091004Y-147993798D01*
X138120001Y-147970001D01*
X138185246Y-147890500D01*
X138214974Y-147854277D01*
X138285546Y-147722247D01*
X138293977Y-147694454D01*
X138329003Y-147578986D01*
X138340000Y-147467333D01*
X138340000Y-147467324D01*
X138343676Y-147430001D01*
X138340000Y-147392678D01*
X138340000Y-141436725D01*
X138343676Y-141399400D01*
X138340000Y-141362075D01*
X138340000Y-141362067D01*
X138329003Y-141250414D01*
X138285546Y-141107153D01*
X138214974Y-140975124D01*
X138120001Y-140859399D01*
X138091003Y-140835601D01*
X130884519Y-133629117D01*
X137365000Y-133629117D01*
X137365000Y-133970883D01*
X137431675Y-134306081D01*
X137562463Y-134621831D01*
X137752337Y-134905998D01*
X137994002Y-135147663D01*
X138278169Y-135337537D01*
X138593919Y-135468325D01*
X138929117Y-135535000D01*
X139270883Y-135535000D01*
X139606081Y-135468325D01*
X139921831Y-135337537D01*
X140205998Y-135147663D01*
X140447663Y-134905998D01*
X140637537Y-134621831D01*
X140768325Y-134306081D01*
X140835000Y-133970883D01*
X140835000Y-133629117D01*
X140768325Y-133293919D01*
X140637537Y-132978169D01*
X140447663Y-132694002D01*
X140205998Y-132452337D01*
X139921831Y-132262463D01*
X139606081Y-132131675D01*
X139270883Y-132065000D01*
X138929117Y-132065000D01*
X138593919Y-132131675D01*
X138278169Y-132262463D01*
X137994002Y-132452337D01*
X137752337Y-132694002D01*
X137562463Y-132978169D01*
X137431675Y-133293919D01*
X137365000Y-133629117D01*
X130884519Y-133629117D01*
X129889104Y-132633703D01*
X129865301Y-132604699D01*
X129749576Y-132509726D01*
X129617547Y-132439154D01*
X129474286Y-132395697D01*
X129362633Y-132384700D01*
X129362622Y-132384700D01*
X129325300Y-132381024D01*
X129287978Y-132384700D01*
X127713322Y-132384700D01*
X127675999Y-132381024D01*
X127638676Y-132384700D01*
X127638667Y-132384700D01*
X127527014Y-132395697D01*
X127383753Y-132439154D01*
X127251724Y-132509726D01*
X127251722Y-132509727D01*
X127251723Y-132509727D01*
X127164996Y-132580901D01*
X127164992Y-132580905D01*
X127135999Y-132604699D01*
X127112205Y-132633692D01*
X122707659Y-137038240D01*
X122715000Y-137001335D01*
X122715000Y-136718665D01*
X122659853Y-136441426D01*
X122551680Y-136180273D01*
X122394637Y-135945241D01*
X122194759Y-135745363D01*
X121959727Y-135588320D01*
X121949135Y-135583933D01*
X122135131Y-135472385D01*
X122343519Y-135283414D01*
X122511037Y-135057420D01*
X122631246Y-134803087D01*
X122671904Y-134669039D01*
X122549915Y-134447000D01*
X121407000Y-134447000D01*
X121407000Y-134467000D01*
X121153000Y-134467000D01*
X121153000Y-134447000D01*
X120010085Y-134447000D01*
X119888096Y-134669039D01*
X119928754Y-134803087D01*
X120048963Y-135057420D01*
X120216481Y-135283414D01*
X120424869Y-135472385D01*
X120610865Y-135583933D01*
X120600273Y-135588320D01*
X120365241Y-135745363D01*
X120165363Y-135945241D01*
X120008320Y-136180273D01*
X119900147Y-136441426D01*
X119845000Y-136718665D01*
X119845000Y-137001335D01*
X119900147Y-137278574D01*
X120008320Y-137539727D01*
X120165363Y-137774759D01*
X120365241Y-137974637D01*
X120597759Y-138130000D01*
X120365241Y-138285363D01*
X120165363Y-138485241D01*
X120008320Y-138720273D01*
X119900147Y-138981426D01*
X119845000Y-139258665D01*
X119845000Y-139541335D01*
X119900147Y-139818574D01*
X120008320Y-140079727D01*
X120165363Y-140314759D01*
X120365241Y-140514637D01*
X120597759Y-140670000D01*
X120365241Y-140825363D01*
X120165363Y-141025241D01*
X120008320Y-141260273D01*
X119900147Y-141521426D01*
X119845000Y-141798665D01*
X119845000Y-142081335D01*
X119900147Y-142358574D01*
X120008320Y-142619727D01*
X120165363Y-142854759D01*
X120365241Y-143054637D01*
X120520000Y-143158044D01*
X120520001Y-143261956D01*
X120365241Y-143365363D01*
X120165363Y-143565241D01*
X120008320Y-143800273D01*
X119900147Y-144061426D01*
X119845000Y-144338665D01*
X119845000Y-144621335D01*
X119900147Y-144898574D01*
X120008320Y-145159727D01*
X120152937Y-145376162D01*
X119643698Y-145885401D01*
X119614700Y-145909199D01*
X119590902Y-145938197D01*
X119590901Y-145938198D01*
X119519726Y-146024924D01*
X119449154Y-146156954D01*
X119434585Y-146204985D01*
X119405698Y-146300214D01*
X119394701Y-146411867D01*
X119391024Y-146449200D01*
X113799500Y-146449200D01*
X113799500Y-140930411D01*
X113843437Y-140886474D01*
X113956705Y-140716956D01*
X114034726Y-140528598D01*
X114074500Y-140328639D01*
X114074500Y-140124761D01*
X114034726Y-139924802D01*
X113956705Y-139736444D01*
X113843437Y-139566926D01*
X113799500Y-139522989D01*
X113799500Y-135250901D01*
X114337202Y-134713200D01*
X114399339Y-134713200D01*
X114599298Y-134673426D01*
X114787656Y-134595405D01*
X114957174Y-134482137D01*
X115101337Y-134337974D01*
X115214605Y-134168456D01*
X115292626Y-133980098D01*
X115294443Y-133970961D01*
X119888096Y-133970961D01*
X120010085Y-134193000D01*
X121153000Y-134193000D01*
X121153000Y-133049376D01*
X121407000Y-133049376D01*
X121407000Y-134193000D01*
X122549915Y-134193000D01*
X122671904Y-133970961D01*
X122631246Y-133836913D01*
X122511037Y-133582580D01*
X122343519Y-133356586D01*
X122135131Y-133167615D01*
X121893881Y-133022930D01*
X121629040Y-132928091D01*
X121407000Y-133049376D01*
X121153000Y-133049376D01*
X120930960Y-132928091D01*
X120666119Y-133022930D01*
X120424869Y-133167615D01*
X120216481Y-133356586D01*
X120048963Y-133582580D01*
X119928754Y-133836913D01*
X119888096Y-133970961D01*
X115294443Y-133970961D01*
X115332400Y-133780139D01*
X115332400Y-133576261D01*
X115292626Y-133376302D01*
X115214605Y-133187944D01*
X115101337Y-133018426D01*
X114957174Y-132874263D01*
X114787656Y-132760995D01*
X114599298Y-132682974D01*
X114399339Y-132643200D01*
X114195461Y-132643200D01*
X113995502Y-132682974D01*
X113807144Y-132760995D01*
X113637626Y-132874263D01*
X113493463Y-133018426D01*
X113380195Y-133187944D01*
X113302174Y-133376302D01*
X113262400Y-133576261D01*
X113262400Y-133638398D01*
X112528498Y-134372301D01*
X112499500Y-134396099D01*
X112475702Y-134425097D01*
X112475701Y-134425098D01*
X112404526Y-134511824D01*
X112333954Y-134643854D01*
X112290498Y-134787115D01*
X112275824Y-134936100D01*
X112279501Y-134973432D01*
X112279500Y-139522989D01*
X112235563Y-139566926D01*
X112122295Y-139736444D01*
X112044274Y-139924802D01*
X112004500Y-140124761D01*
X112004500Y-140328639D01*
X112044274Y-140528598D01*
X112122295Y-140716956D01*
X112235563Y-140886474D01*
X112279501Y-140930412D01*
X112279501Y-145689699D01*
X108898200Y-142308399D01*
X108898200Y-136356811D01*
X108942137Y-136312874D01*
X109055405Y-136143356D01*
X109133426Y-135954998D01*
X109173200Y-135755039D01*
X109173200Y-135551161D01*
X109133426Y-135351202D01*
X109055405Y-135162844D01*
X108942137Y-134993326D01*
X108797974Y-134849163D01*
X108628456Y-134735895D01*
X108440098Y-134657874D01*
X108240139Y-134618100D01*
X108036261Y-134618100D01*
X107836302Y-134657874D01*
X107647944Y-134735895D01*
X107478426Y-134849163D01*
X107334263Y-134993326D01*
X107220995Y-135162844D01*
X107142974Y-135351202D01*
X107103200Y-135551161D01*
X107103200Y-135755039D01*
X107142974Y-135954998D01*
X107220995Y-136143356D01*
X107334263Y-136312874D01*
X107378201Y-136356812D01*
X107378200Y-142585877D01*
X107374524Y-142623200D01*
X107378200Y-142660522D01*
X107378200Y-142660532D01*
X107389197Y-142772185D01*
X107415835Y-142859999D01*
X107432654Y-142915446D01*
X107503226Y-143047476D01*
X107536746Y-143088320D01*
X107598199Y-143163201D01*
X107627203Y-143187004D01*
X107840194Y-143399995D01*
X107769363Y-143470826D01*
X107656095Y-143640344D01*
X107578074Y-143828702D01*
X107538300Y-144028661D01*
X107538300Y-144232539D01*
X107578074Y-144432498D01*
X107656095Y-144620856D01*
X107769363Y-144790374D01*
X107913526Y-144934537D01*
X108083044Y-145047805D01*
X108271402Y-145125826D01*
X108471361Y-145165600D01*
X108533499Y-145165600D01*
X111377601Y-148009704D01*
X111377600Y-151165000D01*
X111298061Y-151165000D01*
X111098102Y-151204774D01*
X110909744Y-151282795D01*
X110740226Y-151396063D01*
X110596063Y-151540226D01*
X110482795Y-151709744D01*
X110404774Y-151898102D01*
X110365000Y-152098061D01*
X110365000Y-152301939D01*
X110404774Y-152501898D01*
X110482795Y-152690256D01*
X110515001Y-152738455D01*
X110515001Y-152833421D01*
X110233422Y-153115000D01*
X101394302Y-153115000D01*
X101583519Y-152943414D01*
X101751037Y-152717420D01*
X101871246Y-152463087D01*
X101911904Y-152329039D01*
X101789915Y-152107000D01*
X100647000Y-152107000D01*
X100647000Y-152127000D01*
X100393000Y-152127000D01*
X100393000Y-152107000D01*
X99250085Y-152107000D01*
X99128096Y-152329039D01*
X99168754Y-152463087D01*
X99288963Y-152717420D01*
X99456481Y-152943414D01*
X99645698Y-153115000D01*
X93966579Y-153115000D01*
X93880487Y-153028909D01*
X94014637Y-152894759D01*
X94034521Y-152865000D01*
X96476531Y-152865000D01*
X96520000Y-152869281D01*
X96563469Y-152865000D01*
X96563477Y-152865000D01*
X96693490Y-152852195D01*
X96860313Y-152801589D01*
X97014059Y-152719411D01*
X97148817Y-152608817D01*
X97176534Y-152575044D01*
X98395049Y-151356530D01*
X98428817Y-151328817D01*
X98470185Y-151278411D01*
X98539410Y-151194060D01*
X98540380Y-151192246D01*
X98621589Y-151040313D01*
X98672195Y-150873490D01*
X98685000Y-150743477D01*
X98685000Y-150743467D01*
X98689281Y-150700001D01*
X98685000Y-150656535D01*
X98685000Y-135566578D01*
X99166579Y-135085000D01*
X99385479Y-135085000D01*
X99405363Y-135114759D01*
X99605241Y-135314637D01*
X99837759Y-135470000D01*
X99605241Y-135625363D01*
X99405363Y-135825241D01*
X99248320Y-136060273D01*
X99140147Y-136321426D01*
X99085000Y-136598665D01*
X99085000Y-136881335D01*
X99140147Y-137158574D01*
X99248320Y-137419727D01*
X99405363Y-137654759D01*
X99605241Y-137854637D01*
X99837759Y-138010000D01*
X99605241Y-138165363D01*
X99405363Y-138365241D01*
X99248320Y-138600273D01*
X99140147Y-138861426D01*
X99085000Y-139138665D01*
X99085000Y-139421335D01*
X99140147Y-139698574D01*
X99248320Y-139959727D01*
X99405363Y-140194759D01*
X99605241Y-140394637D01*
X99836008Y-140548830D01*
X99834062Y-140552470D01*
X99605241Y-140705363D01*
X99405363Y-140905241D01*
X99248320Y-141140273D01*
X99140147Y-141401426D01*
X99085000Y-141678665D01*
X99085000Y-141961335D01*
X99140147Y-142238574D01*
X99248320Y-142499727D01*
X99405363Y-142734759D01*
X99605241Y-142934637D01*
X99760001Y-143038044D01*
X99760000Y-143141956D01*
X99605241Y-143245363D01*
X99405363Y-143445241D01*
X99248320Y-143680273D01*
X99140147Y-143941426D01*
X99085000Y-144218665D01*
X99085000Y-144501335D01*
X99140147Y-144778574D01*
X99248320Y-145039727D01*
X99405363Y-145274759D01*
X99605241Y-145474637D01*
X99837759Y-145630000D01*
X99605241Y-145785363D01*
X99405363Y-145985241D01*
X99248320Y-146220273D01*
X99140147Y-146481426D01*
X99085000Y-146758665D01*
X99085000Y-147041335D01*
X99140147Y-147318574D01*
X99248320Y-147579727D01*
X99405363Y-147814759D01*
X99605241Y-148014637D01*
X99837759Y-148170000D01*
X99605241Y-148325363D01*
X99405363Y-148525241D01*
X99248320Y-148760273D01*
X99140147Y-149021426D01*
X99085000Y-149298665D01*
X99085000Y-149581335D01*
X99140147Y-149858574D01*
X99248320Y-150119727D01*
X99405363Y-150354759D01*
X99605241Y-150554637D01*
X99840273Y-150711680D01*
X99850865Y-150716067D01*
X99664869Y-150827615D01*
X99456481Y-151016586D01*
X99288963Y-151242580D01*
X99168754Y-151496913D01*
X99128096Y-151630961D01*
X99250085Y-151853000D01*
X100393000Y-151853000D01*
X100393000Y-151833000D01*
X100647000Y-151833000D01*
X100647000Y-151853000D01*
X101789915Y-151853000D01*
X101911904Y-151630961D01*
X101871246Y-151496913D01*
X101751037Y-151242580D01*
X101583519Y-151016586D01*
X101375131Y-150827615D01*
X101189135Y-150716067D01*
X101199727Y-150711680D01*
X101434759Y-150554637D01*
X101634637Y-150354759D01*
X101791680Y-150119727D01*
X101899853Y-149858574D01*
X101955000Y-149581335D01*
X101955000Y-149298665D01*
X101899853Y-149021426D01*
X101791680Y-148760273D01*
X101634637Y-148525241D01*
X101434759Y-148325363D01*
X101202241Y-148170000D01*
X101434759Y-148014637D01*
X101634637Y-147814759D01*
X101791680Y-147579727D01*
X101899853Y-147318574D01*
X101955000Y-147041335D01*
X101955000Y-146758665D01*
X101899853Y-146481426D01*
X101791680Y-146220273D01*
X101647023Y-146003778D01*
X102669503Y-144981299D01*
X102698501Y-144957501D01*
X102742182Y-144904276D01*
X102793474Y-144841777D01*
X102864046Y-144709747D01*
X102907503Y-144566486D01*
X102918500Y-144454833D01*
X102918500Y-144454823D01*
X102922176Y-144417500D01*
X102918500Y-144380177D01*
X102918500Y-133556325D01*
X102922176Y-133519000D01*
X102918500Y-133481675D01*
X102918500Y-133481667D01*
X102907503Y-133370014D01*
X102864046Y-133226753D01*
X102793474Y-133094724D01*
X102698501Y-132978999D01*
X102669504Y-132955202D01*
X101327104Y-131612803D01*
X101303301Y-131583799D01*
X101187576Y-131488826D01*
X101133647Y-131460000D01*
X139167721Y-131460000D01*
X139653893Y-131507670D01*
X140090498Y-131639489D01*
X140493185Y-131853600D01*
X140846612Y-132141848D01*
X141137327Y-132493261D01*
X141354242Y-132894439D01*
X141489106Y-133330113D01*
X141540001Y-133814353D01*
X141540000Y-166167721D01*
X141492330Y-166653894D01*
X141360512Y-167090497D01*
X141146399Y-167493186D01*
X140858150Y-167846613D01*
X140506739Y-168137327D01*
X140105564Y-168354240D01*
X139669886Y-168489106D01*
X139185664Y-168540000D01*
X82532279Y-168540000D01*
X82046106Y-168492330D01*
X81609503Y-168360512D01*
X81206814Y-168146399D01*
X80853387Y-167858150D01*
X80562673Y-167506739D01*
X80345760Y-167105564D01*
X80210894Y-166669886D01*
X80160000Y-166185664D01*
X80160000Y-166029117D01*
X80765000Y-166029117D01*
X80765000Y-166370883D01*
X80831675Y-166706081D01*
X80962463Y-167021831D01*
X81152337Y-167305998D01*
X81394002Y-167547663D01*
X81678169Y-167737537D01*
X81993919Y-167868325D01*
X82329117Y-167935000D01*
X82670883Y-167935000D01*
X83006081Y-167868325D01*
X83321831Y-167737537D01*
X83605998Y-167547663D01*
X83847663Y-167305998D01*
X84037537Y-167021831D01*
X84168325Y-166706081D01*
X84235000Y-166370883D01*
X84235000Y-166029117D01*
X137465000Y-166029117D01*
X137465000Y-166370883D01*
X137531675Y-166706081D01*
X137662463Y-167021831D01*
X137852337Y-167305998D01*
X138094002Y-167547663D01*
X138378169Y-167737537D01*
X138693919Y-167868325D01*
X139029117Y-167935000D01*
X139370883Y-167935000D01*
X139706081Y-167868325D01*
X140021831Y-167737537D01*
X140305998Y-167547663D01*
X140547663Y-167305998D01*
X140737537Y-167021831D01*
X140868325Y-166706081D01*
X140935000Y-166370883D01*
X140935000Y-166029117D01*
X140868325Y-165693919D01*
X140737537Y-165378169D01*
X140547663Y-165094002D01*
X140305998Y-164852337D01*
X140021831Y-164662463D01*
X139706081Y-164531675D01*
X139370883Y-164465000D01*
X139029117Y-164465000D01*
X138693919Y-164531675D01*
X138378169Y-164662463D01*
X138094002Y-164852337D01*
X137852337Y-165094002D01*
X137662463Y-165378169D01*
X137531675Y-165693919D01*
X137465000Y-166029117D01*
X84235000Y-166029117D01*
X84168325Y-165693919D01*
X84037537Y-165378169D01*
X83847663Y-165094002D01*
X83605998Y-164852337D01*
X83321831Y-164662463D01*
X83006081Y-164531675D01*
X82670883Y-164465000D01*
X82329117Y-164465000D01*
X81993919Y-164531675D01*
X81678169Y-164662463D01*
X81394002Y-164852337D01*
X81152337Y-165094002D01*
X80962463Y-165378169D01*
X80831675Y-165693919D01*
X80765000Y-166029117D01*
X80160000Y-166029117D01*
X80160000Y-133832279D01*
X80179920Y-133629117D01*
X80765000Y-133629117D01*
X80765000Y-133970883D01*
X80831675Y-134306081D01*
X80962463Y-134621831D01*
X81152337Y-134905998D01*
X81394002Y-135147663D01*
X81678169Y-135337537D01*
X81993919Y-135468325D01*
X82329117Y-135535000D01*
X82670883Y-135535000D01*
X83006081Y-135468325D01*
X83321831Y-135337537D01*
X83605998Y-135147663D01*
X83847663Y-134905998D01*
X84037537Y-134621831D01*
X84168325Y-134306081D01*
X84235000Y-133970883D01*
X84235000Y-133629117D01*
X84189426Y-133400000D01*
X91461928Y-133400000D01*
X91465000Y-133914250D01*
X91623750Y-134073000D01*
X92773000Y-134073000D01*
X92773000Y-132923750D01*
X93027000Y-132923750D01*
X93027000Y-134073000D01*
X94176250Y-134073000D01*
X94335000Y-133914250D01*
X94338072Y-133400000D01*
X94325812Y-133275518D01*
X94289502Y-133155820D01*
X94230537Y-133045506D01*
X94151185Y-132948815D01*
X94054494Y-132869463D01*
X93944180Y-132810498D01*
X93824482Y-132774188D01*
X93700000Y-132761928D01*
X93185750Y-132765000D01*
X93027000Y-132923750D01*
X92773000Y-132923750D01*
X92614250Y-132765000D01*
X92100000Y-132761928D01*
X91975518Y-132774188D01*
X91855820Y-132810498D01*
X91745506Y-132869463D01*
X91648815Y-132948815D01*
X91569463Y-133045506D01*
X91510498Y-133155820D01*
X91474188Y-133275518D01*
X91461928Y-133400000D01*
X84189426Y-133400000D01*
X84168325Y-133293919D01*
X84037537Y-132978169D01*
X83847663Y-132694002D01*
X83605998Y-132452337D01*
X83321831Y-132262463D01*
X83006081Y-132131675D01*
X82670883Y-132065000D01*
X82329117Y-132065000D01*
X81993919Y-132131675D01*
X81678169Y-132262463D01*
X81394002Y-132452337D01*
X81152337Y-132694002D01*
X80962463Y-132978169D01*
X80831675Y-133293919D01*
X80765000Y-133629117D01*
X80179920Y-133629117D01*
X80207670Y-133346107D01*
X80339489Y-132909502D01*
X80553600Y-132506815D01*
X80841848Y-132153388D01*
X81193261Y-131862673D01*
X81594439Y-131645758D01*
X82030113Y-131510894D01*
X82514344Y-131460000D01*
X98086153Y-131460000D01*
X98032224Y-131488826D01*
G37*
X98032224Y-131488826D02*
X97916499Y-131583799D01*
X97892701Y-131612797D01*
X94301774Y-135203725D01*
X94325812Y-135124482D01*
X94338072Y-135000000D01*
X94335000Y-134485750D01*
X94176250Y-134327000D01*
X93027000Y-134327000D01*
X93027000Y-134347000D01*
X92773000Y-134347000D01*
X92773000Y-134327000D01*
X91623750Y-134327000D01*
X91465000Y-134485750D01*
X91461928Y-135000000D01*
X91474188Y-135124482D01*
X91510498Y-135244180D01*
X91569463Y-135354494D01*
X91648815Y-135451185D01*
X91745506Y-135530537D01*
X91855820Y-135589502D01*
X91975518Y-135625812D01*
X91983961Y-135626643D01*
X91785363Y-135825241D01*
X91628320Y-136060273D01*
X91520147Y-136321426D01*
X91465000Y-136598665D01*
X91465000Y-136881335D01*
X91520147Y-137158574D01*
X91628320Y-137419727D01*
X91785363Y-137654759D01*
X91815501Y-137684897D01*
X89857698Y-139642701D01*
X89828700Y-139666499D01*
X89804902Y-139695497D01*
X89804901Y-139695498D01*
X89733726Y-139782224D01*
X89663154Y-139914254D01*
X89640025Y-139990503D01*
X89619698Y-140057514D01*
X89617510Y-140079727D01*
X89605024Y-140206500D01*
X89608701Y-140243832D01*
X89608700Y-143586498D01*
X88055199Y-145140000D01*
X87902595Y-145140000D01*
X87865706Y-145070986D01*
X87680134Y-144844866D01*
X87454014Y-144659294D01*
X87436626Y-144650000D01*
X87454014Y-144640706D01*
X87680134Y-144455134D01*
X87865706Y-144229014D01*
X88003599Y-143971034D01*
X88088513Y-143691111D01*
X88117185Y-143400000D01*
X88088513Y-143108889D01*
X88003599Y-142828966D01*
X87865706Y-142570986D01*
X87680134Y-142344866D01*
X87454014Y-142159294D01*
X87196034Y-142021401D01*
X86916111Y-141936487D01*
X86697950Y-141915000D01*
X86302050Y-141915000D01*
X86083889Y-141936487D01*
X85803966Y-142021401D01*
X85545986Y-142159294D01*
X85319866Y-142344866D01*
X85134294Y-142570986D01*
X84996401Y-142828966D01*
X84911487Y-143108889D01*
X84882815Y-143400000D01*
X84911487Y-143691111D01*
X84996401Y-143971034D01*
X85134294Y-144229014D01*
X85319866Y-144455134D01*
X85545986Y-144640706D01*
X85563374Y-144650000D01*
X85545986Y-144659294D01*
X85319866Y-144844866D01*
X85134294Y-145070986D01*
X84996401Y-145328966D01*
X84911487Y-145608889D01*
X84882815Y-145900000D01*
X84911487Y-146191111D01*
X84996401Y-146471034D01*
X85134294Y-146729014D01*
X85319866Y-146955134D01*
X85545986Y-147140706D01*
X85563374Y-147150000D01*
X85545986Y-147159294D01*
X85319866Y-147344866D01*
X85134294Y-147570986D01*
X84996401Y-147828966D01*
X84911487Y-148108889D01*
X84882815Y-148400000D01*
X84911487Y-148691111D01*
X84996401Y-148971034D01*
X85134294Y-149229014D01*
X85319866Y-149455134D01*
X85383337Y-149507223D01*
X85281614Y-149561595D01*
X85147038Y-149672038D01*
X85036595Y-149806614D01*
X84954528Y-149960150D01*
X84903992Y-150126746D01*
X84886928Y-150300000D01*
X84886928Y-151500000D01*
X84903992Y-151673254D01*
X84954528Y-151839850D01*
X85036595Y-151993386D01*
X85147038Y-152127962D01*
X85281614Y-152238405D01*
X85435150Y-152320472D01*
X85601746Y-152371008D01*
X85775000Y-152388072D01*
X87225000Y-152388072D01*
X87398254Y-152371008D01*
X87564850Y-152320472D01*
X87718386Y-152238405D01*
X87852962Y-152127962D01*
X87963405Y-151993386D01*
X88045472Y-151839850D01*
X88096008Y-151673254D01*
X88113072Y-151500000D01*
X88113072Y-150361729D01*
X91465000Y-147009802D01*
X91465000Y-147041335D01*
X91520147Y-147318574D01*
X91628320Y-147579727D01*
X91785363Y-147814759D01*
X91985241Y-148014637D01*
X92217759Y-148170000D01*
X91985241Y-148325363D01*
X91785363Y-148525241D01*
X91628320Y-148760273D01*
X91520147Y-149021426D01*
X91465000Y-149298665D01*
X91465000Y-149581335D01*
X91520147Y-149858574D01*
X91628320Y-150119727D01*
X91785363Y-150354759D01*
X91985241Y-150554637D01*
X92217759Y-150710000D01*
X91985241Y-150865363D01*
X91785363Y-151065241D01*
X91628320Y-151300273D01*
X91520147Y-151561426D01*
X91465000Y-151838665D01*
X91465000Y-152121335D01*
X91520147Y-152398574D01*
X91628320Y-152659727D01*
X91785363Y-152894759D01*
X91985241Y-153094637D01*
X92015000Y-153114521D01*
X92015000Y-153256530D01*
X92010719Y-153300000D01*
X92015000Y-153343469D01*
X92015000Y-153343476D01*
X92022690Y-153421554D01*
X92027805Y-153473490D01*
X92043157Y-153524096D01*
X92078411Y-153640312D01*
X92160589Y-153794058D01*
X92271183Y-153928817D01*
X92304956Y-153956534D01*
X92943470Y-154595049D01*
X92971183Y-154628817D01*
X93004951Y-154656530D01*
X93004953Y-154656532D01*
X93055912Y-154698353D01*
X93105941Y-154739411D01*
X93259687Y-154821589D01*
X93426510Y-154872195D01*
X93556523Y-154885000D01*
X93556533Y-154885000D01*
X93599999Y-154889281D01*
X93643465Y-154885000D01*
X100201298Y-154885000D01*
X93896566Y-161189733D01*
X93829014Y-161134294D01*
X93571034Y-160996401D01*
X93291111Y-160911487D01*
X93000000Y-160882815D01*
X92708890Y-160911487D01*
X92428967Y-160996401D01*
X92170987Y-161134294D01*
X91944866Y-161319866D01*
X91759294Y-161545986D01*
X91750000Y-161563374D01*
X91740706Y-161545986D01*
X91555134Y-161319866D01*
X91329014Y-161134294D01*
X91071034Y-160996401D01*
X90791111Y-160911487D01*
X90500000Y-160882815D01*
X90208890Y-160911487D01*
X89928967Y-160996401D01*
X89670987Y-161134294D01*
X89444866Y-161319866D01*
X89259294Y-161545986D01*
X89121401Y-161803966D01*
X89036487Y-162083889D01*
X89015000Y-162302050D01*
X89015000Y-162697949D01*
X89036487Y-162916110D01*
X89121401Y-163196033D01*
X89259294Y-163454013D01*
X89444866Y-163680134D01*
X89670986Y-163865706D01*
X89928966Y-164003599D01*
X90208889Y-164088513D01*
X90500000Y-164117185D01*
X90791110Y-164088513D01*
X91071033Y-164003599D01*
X91329013Y-163865706D01*
X91555134Y-163680134D01*
X91740706Y-163454014D01*
X91750000Y-163436626D01*
X91759294Y-163454013D01*
X91944866Y-163680134D01*
X92170986Y-163865706D01*
X92428966Y-164003599D01*
X92708889Y-164088513D01*
X93000000Y-164117185D01*
X93291110Y-164088513D01*
X93571033Y-164003599D01*
X93829013Y-163865706D01*
X94055134Y-163680134D01*
X94240706Y-163454014D01*
X94250000Y-163436626D01*
X94259294Y-163454013D01*
X94444866Y-163680134D01*
X94670986Y-163865706D01*
X94928966Y-164003599D01*
X95208889Y-164088513D01*
X95500000Y-164117185D01*
X95791110Y-164088513D01*
X96071033Y-164003599D01*
X96329013Y-163865706D01*
X96555134Y-163680134D01*
X96740706Y-163454014D01*
X96750000Y-163436626D01*
X96759294Y-163454013D01*
X96944866Y-163680134D01*
X97170986Y-163865706D01*
X97428966Y-164003599D01*
X97708889Y-164088513D01*
X98000000Y-164117185D01*
X98291110Y-164088513D01*
X98571033Y-164003599D01*
X98829013Y-163865706D01*
X99055134Y-163680134D01*
X99240706Y-163454014D01*
X99250000Y-163436626D01*
X99259294Y-163454013D01*
X99444866Y-163680134D01*
X99670986Y-163865706D01*
X99928966Y-164003599D01*
X100208889Y-164088513D01*
X100500000Y-164117185D01*
X100791110Y-164088513D01*
X101071033Y-164003599D01*
X101329013Y-163865706D01*
X101555134Y-163680134D01*
X101607223Y-163616663D01*
X101661595Y-163718386D01*
X101772038Y-163852962D01*
X101906614Y-163963405D01*
X102060150Y-164045472D01*
X102226746Y-164096008D01*
X102400000Y-164113072D01*
X103600000Y-164113072D01*
X103773254Y-164096008D01*
X103939850Y-164045472D01*
X104093386Y-163963405D01*
X104227962Y-163852962D01*
X104338405Y-163718386D01*
X104420472Y-163564850D01*
X104471008Y-163398254D01*
X104488072Y-163225000D01*
X104488072Y-163222981D01*
X104545547Y-163205546D01*
X104677576Y-163134974D01*
X104793301Y-163040001D01*
X104817104Y-163010997D01*
X113550504Y-154277598D01*
X113579501Y-154253801D01*
X113674474Y-154138076D01*
X113745046Y-154006047D01*
X113788503Y-153862786D01*
X113799500Y-153751133D01*
X113799500Y-153751124D01*
X113803176Y-153713801D01*
X113799500Y-153676478D01*
X113799500Y-146449200D01*
X119391024Y-146449200D01*
X119394701Y-146486532D01*
X119394700Y-152544877D01*
X119391024Y-152582200D01*
X119394700Y-152619522D01*
X119394700Y-152619532D01*
X119405697Y-152731185D01*
X119444677Y-152859687D01*
X119449154Y-152874446D01*
X119519726Y-153006476D01*
X119536168Y-153026510D01*
X119614699Y-153122201D01*
X119643702Y-153146003D01*
X120255600Y-153757902D01*
X120279399Y-153786901D01*
X120395124Y-153881874D01*
X120527153Y-153952446D01*
X120670414Y-153995903D01*
X120782067Y-154006900D01*
X120782075Y-154006900D01*
X120819400Y-154010576D01*
X120856725Y-154006900D01*
X125882701Y-154006900D01*
X125882700Y-160480077D01*
X125879024Y-160517400D01*
X125882700Y-160554722D01*
X125882700Y-160554732D01*
X125893697Y-160666385D01*
X125895237Y-160671461D01*
X125744866Y-160794866D01*
X125559294Y-161020986D01*
X125421401Y-161278966D01*
X125336487Y-161558889D01*
X125315000Y-161777050D01*
X125315000Y-162222949D01*
X125336487Y-162441110D01*
X125421401Y-162721033D01*
X125559294Y-162979013D01*
X125744866Y-163205134D01*
X125970986Y-163390706D01*
X126228966Y-163528599D01*
X126508889Y-163613513D01*
X126800000Y-163642185D01*
X127091110Y-163613513D01*
X127371033Y-163528599D01*
X127629013Y-163390706D01*
X127855134Y-163205134D01*
X127907223Y-163141663D01*
X127961595Y-163243386D01*
X128072038Y-163377962D01*
X128206614Y-163488405D01*
X128360150Y-163570472D01*
X128526746Y-163621008D01*
X128700000Y-163638072D01*
X129900000Y-163638072D01*
X130073254Y-163621008D01*
X130239850Y-163570472D01*
X130393386Y-163488405D01*
X130527962Y-163377962D01*
X130638405Y-163243386D01*
X130720472Y-163089850D01*
X130771008Y-162923254D01*
X130788072Y-162750000D01*
X130788072Y-161250000D01*
X130771008Y-161076746D01*
X130720472Y-160910150D01*
X130638405Y-160756614D01*
X130527962Y-160622038D01*
X130393386Y-160511595D01*
X130239850Y-160429528D01*
X130073254Y-160378992D01*
X129900000Y-160361928D01*
X128700000Y-160361928D01*
X128526746Y-160378992D01*
X128360150Y-160429528D01*
X128206614Y-160511595D01*
X128072038Y-160622038D01*
X127961595Y-160756614D01*
X127907223Y-160858337D01*
X127855134Y-160794866D01*
X127629014Y-160609294D01*
X127553246Y-160568795D01*
X127549003Y-160525714D01*
X127505546Y-160382453D01*
X127434974Y-160250424D01*
X127402700Y-160211098D01*
X127402700Y-153561701D01*
X127632769Y-153331633D01*
X127648815Y-153351185D01*
X127745506Y-153430537D01*
X127855820Y-153489502D01*
X127975518Y-153525812D01*
X128100000Y-153538072D01*
X128614250Y-153535000D01*
X128773000Y-153376250D01*
X128773000Y-152227000D01*
X129027000Y-152227000D01*
X129027000Y-153376250D01*
X129185750Y-153535000D01*
X129700000Y-153538072D01*
X129824482Y-153525812D01*
X129944180Y-153489502D01*
X130054494Y-153430537D01*
X130151185Y-153351185D01*
X130230537Y-153254494D01*
X130289502Y-153144180D01*
X130325812Y-153024482D01*
X130338072Y-152900000D01*
X130335000Y-152385750D01*
X130176250Y-152227000D01*
X129027000Y-152227000D01*
X128773000Y-152227000D01*
X128753000Y-152227000D01*
X128753000Y-151973000D01*
X128773000Y-151973000D01*
X128773000Y-151953000D01*
X129027000Y-151953000D01*
X129027000Y-151973000D01*
X130176250Y-151973000D01*
X130335000Y-151814250D01*
X130338072Y-151300000D01*
X130325812Y-151175518D01*
X130289502Y-151055820D01*
X130230537Y-150945506D01*
X130151185Y-150848815D01*
X130054494Y-150769463D01*
X129944180Y-150710498D01*
X129824482Y-150674188D01*
X129816039Y-150673357D01*
X130014637Y-150474759D01*
X130171680Y-150239727D01*
X130279853Y-149978574D01*
X130335000Y-149701335D01*
X130335000Y-149418665D01*
X130279853Y-149141426D01*
X130171680Y-148880273D01*
X130014637Y-148645241D01*
X129814759Y-148445363D01*
X129582241Y-148290000D01*
X129814759Y-148134637D01*
X130014637Y-147934759D01*
X130121947Y-147774158D01*
X130174286Y-147769003D01*
X130317547Y-147725546D01*
X130449576Y-147654974D01*
X130565301Y-147560001D01*
X130589104Y-147530997D01*
X133763488Y-144356614D01*
X133836595Y-144493386D01*
X133947038Y-144627962D01*
X134081614Y-144738405D01*
X134183337Y-144792777D01*
X134119866Y-144844866D01*
X133934294Y-145070986D01*
X133796401Y-145328966D01*
X133711487Y-145608889D01*
X133682815Y-145900000D01*
X133711487Y-146191111D01*
X133796401Y-146471034D01*
X133934294Y-146729014D01*
X134119866Y-146955134D01*
X134345986Y-147140706D01*
X134363374Y-147150000D01*
X134345986Y-147159294D01*
X134119866Y-147344866D01*
X133934294Y-147570986D01*
X133796401Y-147828966D01*
X133711487Y-148108889D01*
X133682815Y-148400000D01*
X133711487Y-148691111D01*
X133796401Y-148971034D01*
X133934294Y-149229014D01*
X134119866Y-149455134D01*
X134345986Y-149640706D01*
X134363374Y-149650000D01*
X134345986Y-149659294D01*
X134119866Y-149844866D01*
X133934294Y-150070986D01*
X133796401Y-150328966D01*
X133711487Y-150608889D01*
X133682815Y-150900000D01*
X133711487Y-151191111D01*
X133796401Y-151471034D01*
X133934294Y-151729014D01*
X134119866Y-151955134D01*
X134345986Y-152140706D01*
X134603966Y-152278599D01*
X134883889Y-152363513D01*
X135102050Y-152385000D01*
X135497950Y-152385000D01*
X135716111Y-152363513D01*
X135996034Y-152278599D01*
X136254014Y-152140706D01*
X136480134Y-151955134D01*
X136665706Y-151729014D01*
X136803599Y-151471034D01*
X136888513Y-151191111D01*
X136917185Y-150900000D01*
X136888513Y-150608889D01*
X136803599Y-150328966D01*
X136665706Y-150070986D01*
X136480134Y-149844866D01*
X136254014Y-149659294D01*
X136236626Y-149650000D01*
X136254014Y-149640706D01*
X136480134Y-149455134D01*
X136665706Y-149229014D01*
X136705666Y-149154255D01*
X136758986Y-149149003D01*
X136902247Y-149105546D01*
X137034276Y-149034974D01*
X137150001Y-148940001D01*
X137173804Y-148910998D01*
X138091004Y-147993798D01*
X138120001Y-147970001D01*
X138185246Y-147890500D01*
X138214974Y-147854277D01*
X138285546Y-147722247D01*
X138293977Y-147694454D01*
X138329003Y-147578986D01*
X138340000Y-147467333D01*
X138340000Y-147467324D01*
X138343676Y-147430001D01*
X138340000Y-147392678D01*
X138340000Y-141436725D01*
X138343676Y-141399400D01*
X138340000Y-141362075D01*
X138340000Y-141362067D01*
X138329003Y-141250414D01*
X138285546Y-141107153D01*
X138214974Y-140975124D01*
X138120001Y-140859399D01*
X138091003Y-140835601D01*
X130884519Y-133629117D01*
X137365000Y-133629117D01*
X137365000Y-133970883D01*
X137431675Y-134306081D01*
X137562463Y-134621831D01*
X137752337Y-134905998D01*
X137994002Y-135147663D01*
X138278169Y-135337537D01*
X138593919Y-135468325D01*
X138929117Y-135535000D01*
X139270883Y-135535000D01*
X139606081Y-135468325D01*
X139921831Y-135337537D01*
X140205998Y-135147663D01*
X140447663Y-134905998D01*
X140637537Y-134621831D01*
X140768325Y-134306081D01*
X140835000Y-133970883D01*
X140835000Y-133629117D01*
X140768325Y-133293919D01*
X140637537Y-132978169D01*
X140447663Y-132694002D01*
X140205998Y-132452337D01*
X139921831Y-132262463D01*
X139606081Y-132131675D01*
X139270883Y-132065000D01*
X138929117Y-132065000D01*
X138593919Y-132131675D01*
X138278169Y-132262463D01*
X137994002Y-132452337D01*
X137752337Y-132694002D01*
X137562463Y-132978169D01*
X137431675Y-133293919D01*
X137365000Y-133629117D01*
X130884519Y-133629117D01*
X129889104Y-132633703D01*
X129865301Y-132604699D01*
X129749576Y-132509726D01*
X129617547Y-132439154D01*
X129474286Y-132395697D01*
X129362633Y-132384700D01*
X129362622Y-132384700D01*
X129325300Y-132381024D01*
X129287978Y-132384700D01*
X127713322Y-132384700D01*
X127675999Y-132381024D01*
X127638676Y-132384700D01*
X127638667Y-132384700D01*
X127527014Y-132395697D01*
X127383753Y-132439154D01*
X127251724Y-132509726D01*
X127251722Y-132509727D01*
X127251723Y-132509727D01*
X127164996Y-132580901D01*
X127164992Y-132580905D01*
X127135999Y-132604699D01*
X127112205Y-132633692D01*
X122707659Y-137038240D01*
X122715000Y-137001335D01*
X122715000Y-136718665D01*
X122659853Y-136441426D01*
X122551680Y-136180273D01*
X122394637Y-135945241D01*
X122194759Y-135745363D01*
X121959727Y-135588320D01*
X121949135Y-135583933D01*
X122135131Y-135472385D01*
X122343519Y-135283414D01*
X122511037Y-135057420D01*
X122631246Y-134803087D01*
X122671904Y-134669039D01*
X122549915Y-134447000D01*
X121407000Y-134447000D01*
X121407000Y-134467000D01*
X121153000Y-134467000D01*
X121153000Y-134447000D01*
X120010085Y-134447000D01*
X119888096Y-134669039D01*
X119928754Y-134803087D01*
X120048963Y-135057420D01*
X120216481Y-135283414D01*
X120424869Y-135472385D01*
X120610865Y-135583933D01*
X120600273Y-135588320D01*
X120365241Y-135745363D01*
X120165363Y-135945241D01*
X120008320Y-136180273D01*
X119900147Y-136441426D01*
X119845000Y-136718665D01*
X119845000Y-137001335D01*
X119900147Y-137278574D01*
X120008320Y-137539727D01*
X120165363Y-137774759D01*
X120365241Y-137974637D01*
X120597759Y-138130000D01*
X120365241Y-138285363D01*
X120165363Y-138485241D01*
X120008320Y-138720273D01*
X119900147Y-138981426D01*
X119845000Y-139258665D01*
X119845000Y-139541335D01*
X119900147Y-139818574D01*
X120008320Y-140079727D01*
X120165363Y-140314759D01*
X120365241Y-140514637D01*
X120597759Y-140670000D01*
X120365241Y-140825363D01*
X120165363Y-141025241D01*
X120008320Y-141260273D01*
X119900147Y-141521426D01*
X119845000Y-141798665D01*
X119845000Y-142081335D01*
X119900147Y-142358574D01*
X120008320Y-142619727D01*
X120165363Y-142854759D01*
X120365241Y-143054637D01*
X120520000Y-143158044D01*
X120520001Y-143261956D01*
X120365241Y-143365363D01*
X120165363Y-143565241D01*
X120008320Y-143800273D01*
X119900147Y-144061426D01*
X119845000Y-144338665D01*
X119845000Y-144621335D01*
X119900147Y-144898574D01*
X120008320Y-145159727D01*
X120152937Y-145376162D01*
X119643698Y-145885401D01*
X119614700Y-145909199D01*
X119590902Y-145938197D01*
X119590901Y-145938198D01*
X119519726Y-146024924D01*
X119449154Y-146156954D01*
X119434585Y-146204985D01*
X119405698Y-146300214D01*
X119394701Y-146411867D01*
X119391024Y-146449200D01*
X113799500Y-146449200D01*
X113799500Y-140930411D01*
X113843437Y-140886474D01*
X113956705Y-140716956D01*
X114034726Y-140528598D01*
X114074500Y-140328639D01*
X114074500Y-140124761D01*
X114034726Y-139924802D01*
X113956705Y-139736444D01*
X113843437Y-139566926D01*
X113799500Y-139522989D01*
X113799500Y-135250901D01*
X114337202Y-134713200D01*
X114399339Y-134713200D01*
X114599298Y-134673426D01*
X114787656Y-134595405D01*
X114957174Y-134482137D01*
X115101337Y-134337974D01*
X115214605Y-134168456D01*
X115292626Y-133980098D01*
X115294443Y-133970961D01*
X119888096Y-133970961D01*
X120010085Y-134193000D01*
X121153000Y-134193000D01*
X121153000Y-133049376D01*
X121407000Y-133049376D01*
X121407000Y-134193000D01*
X122549915Y-134193000D01*
X122671904Y-133970961D01*
X122631246Y-133836913D01*
X122511037Y-133582580D01*
X122343519Y-133356586D01*
X122135131Y-133167615D01*
X121893881Y-133022930D01*
X121629040Y-132928091D01*
X121407000Y-133049376D01*
X121153000Y-133049376D01*
X120930960Y-132928091D01*
X120666119Y-133022930D01*
X120424869Y-133167615D01*
X120216481Y-133356586D01*
X120048963Y-133582580D01*
X119928754Y-133836913D01*
X119888096Y-133970961D01*
X115294443Y-133970961D01*
X115332400Y-133780139D01*
X115332400Y-133576261D01*
X115292626Y-133376302D01*
X115214605Y-133187944D01*
X115101337Y-133018426D01*
X114957174Y-132874263D01*
X114787656Y-132760995D01*
X114599298Y-132682974D01*
X114399339Y-132643200D01*
X114195461Y-132643200D01*
X113995502Y-132682974D01*
X113807144Y-132760995D01*
X113637626Y-132874263D01*
X113493463Y-133018426D01*
X113380195Y-133187944D01*
X113302174Y-133376302D01*
X113262400Y-133576261D01*
X113262400Y-133638398D01*
X112528498Y-134372301D01*
X112499500Y-134396099D01*
X112475702Y-134425097D01*
X112475701Y-134425098D01*
X112404526Y-134511824D01*
X112333954Y-134643854D01*
X112290498Y-134787115D01*
X112275824Y-134936100D01*
X112279501Y-134973432D01*
X112279500Y-139522989D01*
X112235563Y-139566926D01*
X112122295Y-139736444D01*
X112044274Y-139924802D01*
X112004500Y-140124761D01*
X112004500Y-140328639D01*
X112044274Y-140528598D01*
X112122295Y-140716956D01*
X112235563Y-140886474D01*
X112279501Y-140930412D01*
X112279501Y-145689699D01*
X108898200Y-142308399D01*
X108898200Y-136356811D01*
X108942137Y-136312874D01*
X109055405Y-136143356D01*
X109133426Y-135954998D01*
X109173200Y-135755039D01*
X109173200Y-135551161D01*
X109133426Y-135351202D01*
X109055405Y-135162844D01*
X108942137Y-134993326D01*
X108797974Y-134849163D01*
X108628456Y-134735895D01*
X108440098Y-134657874D01*
X108240139Y-134618100D01*
X108036261Y-134618100D01*
X107836302Y-134657874D01*
X107647944Y-134735895D01*
X107478426Y-134849163D01*
X107334263Y-134993326D01*
X107220995Y-135162844D01*
X107142974Y-135351202D01*
X107103200Y-135551161D01*
X107103200Y-135755039D01*
X107142974Y-135954998D01*
X107220995Y-136143356D01*
X107334263Y-136312874D01*
X107378201Y-136356812D01*
X107378200Y-142585877D01*
X107374524Y-142623200D01*
X107378200Y-142660522D01*
X107378200Y-142660532D01*
X107389197Y-142772185D01*
X107415835Y-142859999D01*
X107432654Y-142915446D01*
X107503226Y-143047476D01*
X107536746Y-143088320D01*
X107598199Y-143163201D01*
X107627203Y-143187004D01*
X107840194Y-143399995D01*
X107769363Y-143470826D01*
X107656095Y-143640344D01*
X107578074Y-143828702D01*
X107538300Y-144028661D01*
X107538300Y-144232539D01*
X107578074Y-144432498D01*
X107656095Y-144620856D01*
X107769363Y-144790374D01*
X107913526Y-144934537D01*
X108083044Y-145047805D01*
X108271402Y-145125826D01*
X108471361Y-145165600D01*
X108533499Y-145165600D01*
X111377601Y-148009704D01*
X111377600Y-151165000D01*
X111298061Y-151165000D01*
X111098102Y-151204774D01*
X110909744Y-151282795D01*
X110740226Y-151396063D01*
X110596063Y-151540226D01*
X110482795Y-151709744D01*
X110404774Y-151898102D01*
X110365000Y-152098061D01*
X110365000Y-152301939D01*
X110404774Y-152501898D01*
X110482795Y-152690256D01*
X110515001Y-152738455D01*
X110515001Y-152833421D01*
X110233422Y-153115000D01*
X101394302Y-153115000D01*
X101583519Y-152943414D01*
X101751037Y-152717420D01*
X101871246Y-152463087D01*
X101911904Y-152329039D01*
X101789915Y-152107000D01*
X100647000Y-152107000D01*
X100647000Y-152127000D01*
X100393000Y-152127000D01*
X100393000Y-152107000D01*
X99250085Y-152107000D01*
X99128096Y-152329039D01*
X99168754Y-152463087D01*
X99288963Y-152717420D01*
X99456481Y-152943414D01*
X99645698Y-153115000D01*
X93966579Y-153115000D01*
X93880487Y-153028909D01*
X94014637Y-152894759D01*
X94034521Y-152865000D01*
X96476531Y-152865000D01*
X96520000Y-152869281D01*
X96563469Y-152865000D01*
X96563477Y-152865000D01*
X96693490Y-152852195D01*
X96860313Y-152801589D01*
X97014059Y-152719411D01*
X97148817Y-152608817D01*
X97176534Y-152575044D01*
X98395049Y-151356530D01*
X98428817Y-151328817D01*
X98470185Y-151278411D01*
X98539410Y-151194060D01*
X98540380Y-151192246D01*
X98621589Y-151040313D01*
X98672195Y-150873490D01*
X98685000Y-150743477D01*
X98685000Y-150743467D01*
X98689281Y-150700001D01*
X98685000Y-150656535D01*
X98685000Y-135566578D01*
X99166579Y-135085000D01*
X99385479Y-135085000D01*
X99405363Y-135114759D01*
X99605241Y-135314637D01*
X99837759Y-135470000D01*
X99605241Y-135625363D01*
X99405363Y-135825241D01*
X99248320Y-136060273D01*
X99140147Y-136321426D01*
X99085000Y-136598665D01*
X99085000Y-136881335D01*
X99140147Y-137158574D01*
X99248320Y-137419727D01*
X99405363Y-137654759D01*
X99605241Y-137854637D01*
X99837759Y-138010000D01*
X99605241Y-138165363D01*
X99405363Y-138365241D01*
X99248320Y-138600273D01*
X99140147Y-138861426D01*
X99085000Y-139138665D01*
X99085000Y-139421335D01*
X99140147Y-139698574D01*
X99248320Y-139959727D01*
X99405363Y-140194759D01*
X99605241Y-140394637D01*
X99836008Y-140548830D01*
X99834062Y-140552470D01*
X99605241Y-140705363D01*
X99405363Y-140905241D01*
X99248320Y-141140273D01*
X99140147Y-141401426D01*
X99085000Y-141678665D01*
X99085000Y-141961335D01*
X99140147Y-142238574D01*
X99248320Y-142499727D01*
X99405363Y-142734759D01*
X99605241Y-142934637D01*
X99760001Y-143038044D01*
X99760000Y-143141956D01*
X99605241Y-143245363D01*
X99405363Y-143445241D01*
X99248320Y-143680273D01*
X99140147Y-143941426D01*
X99085000Y-144218665D01*
X99085000Y-144501335D01*
X99140147Y-144778574D01*
X99248320Y-145039727D01*
X99405363Y-145274759D01*
X99605241Y-145474637D01*
X99837759Y-145630000D01*
X99605241Y-145785363D01*
X99405363Y-145985241D01*
X99248320Y-146220273D01*
X99140147Y-146481426D01*
X99085000Y-146758665D01*
X99085000Y-147041335D01*
X99140147Y-147318574D01*
X99248320Y-147579727D01*
X99405363Y-147814759D01*
X99605241Y-148014637D01*
X99837759Y-148170000D01*
X99605241Y-148325363D01*
X99405363Y-148525241D01*
X99248320Y-148760273D01*
X99140147Y-149021426D01*
X99085000Y-149298665D01*
X99085000Y-149581335D01*
X99140147Y-149858574D01*
X99248320Y-150119727D01*
X99405363Y-150354759D01*
X99605241Y-150554637D01*
X99840273Y-150711680D01*
X99850865Y-150716067D01*
X99664869Y-150827615D01*
X99456481Y-151016586D01*
X99288963Y-151242580D01*
X99168754Y-151496913D01*
X99128096Y-151630961D01*
X99250085Y-151853000D01*
X100393000Y-151853000D01*
X100393000Y-151833000D01*
X100647000Y-151833000D01*
X100647000Y-151853000D01*
X101789915Y-151853000D01*
X101911904Y-151630961D01*
X101871246Y-151496913D01*
X101751037Y-151242580D01*
X101583519Y-151016586D01*
X101375131Y-150827615D01*
X101189135Y-150716067D01*
X101199727Y-150711680D01*
X101434759Y-150554637D01*
X101634637Y-150354759D01*
X101791680Y-150119727D01*
X101899853Y-149858574D01*
X101955000Y-149581335D01*
X101955000Y-149298665D01*
X101899853Y-149021426D01*
X101791680Y-148760273D01*
X101634637Y-148525241D01*
X101434759Y-148325363D01*
X101202241Y-148170000D01*
X101434759Y-148014637D01*
X101634637Y-147814759D01*
X101791680Y-147579727D01*
X101899853Y-147318574D01*
X101955000Y-147041335D01*
X101955000Y-146758665D01*
X101899853Y-146481426D01*
X101791680Y-146220273D01*
X101647023Y-146003778D01*
X102669503Y-144981299D01*
X102698501Y-144957501D01*
X102742182Y-144904276D01*
X102793474Y-144841777D01*
X102864046Y-144709747D01*
X102907503Y-144566486D01*
X102918500Y-144454833D01*
X102918500Y-144454823D01*
X102922176Y-144417500D01*
X102918500Y-144380177D01*
X102918500Y-133556325D01*
X102922176Y-133519000D01*
X102918500Y-133481675D01*
X102918500Y-133481667D01*
X102907503Y-133370014D01*
X102864046Y-133226753D01*
X102793474Y-133094724D01*
X102698501Y-132978999D01*
X102669504Y-132955202D01*
X101327104Y-131612803D01*
X101303301Y-131583799D01*
X101187576Y-131488826D01*
X101133647Y-131460000D01*
X139167721Y-131460000D01*
X139653893Y-131507670D01*
X140090498Y-131639489D01*
X140493185Y-131853600D01*
X140846612Y-132141848D01*
X141137327Y-132493261D01*
X141354242Y-132894439D01*
X141489106Y-133330113D01*
X141540001Y-133814353D01*
X141540000Y-166167721D01*
X141492330Y-166653894D01*
X141360512Y-167090497D01*
X141146399Y-167493186D01*
X140858150Y-167846613D01*
X140506739Y-168137327D01*
X140105564Y-168354240D01*
X139669886Y-168489106D01*
X139185664Y-168540000D01*
X82532279Y-168540000D01*
X82046106Y-168492330D01*
X81609503Y-168360512D01*
X81206814Y-168146399D01*
X80853387Y-167858150D01*
X80562673Y-167506739D01*
X80345760Y-167105564D01*
X80210894Y-166669886D01*
X80160000Y-166185664D01*
X80160000Y-166029117D01*
X80765000Y-166029117D01*
X80765000Y-166370883D01*
X80831675Y-166706081D01*
X80962463Y-167021831D01*
X81152337Y-167305998D01*
X81394002Y-167547663D01*
X81678169Y-167737537D01*
X81993919Y-167868325D01*
X82329117Y-167935000D01*
X82670883Y-167935000D01*
X83006081Y-167868325D01*
X83321831Y-167737537D01*
X83605998Y-167547663D01*
X83847663Y-167305998D01*
X84037537Y-167021831D01*
X84168325Y-166706081D01*
X84235000Y-166370883D01*
X84235000Y-166029117D01*
X137465000Y-166029117D01*
X137465000Y-166370883D01*
X137531675Y-166706081D01*
X137662463Y-167021831D01*
X137852337Y-167305998D01*
X138094002Y-167547663D01*
X138378169Y-167737537D01*
X138693919Y-167868325D01*
X139029117Y-167935000D01*
X139370883Y-167935000D01*
X139706081Y-167868325D01*
X140021831Y-167737537D01*
X140305998Y-167547663D01*
X140547663Y-167305998D01*
X140737537Y-167021831D01*
X140868325Y-166706081D01*
X140935000Y-166370883D01*
X140935000Y-166029117D01*
X140868325Y-165693919D01*
X140737537Y-165378169D01*
X140547663Y-165094002D01*
X140305998Y-164852337D01*
X140021831Y-164662463D01*
X139706081Y-164531675D01*
X139370883Y-164465000D01*
X139029117Y-164465000D01*
X138693919Y-164531675D01*
X138378169Y-164662463D01*
X138094002Y-164852337D01*
X137852337Y-165094002D01*
X137662463Y-165378169D01*
X137531675Y-165693919D01*
X137465000Y-166029117D01*
X84235000Y-166029117D01*
X84168325Y-165693919D01*
X84037537Y-165378169D01*
X83847663Y-165094002D01*
X83605998Y-164852337D01*
X83321831Y-164662463D01*
X83006081Y-164531675D01*
X82670883Y-164465000D01*
X82329117Y-164465000D01*
X81993919Y-164531675D01*
X81678169Y-164662463D01*
X81394002Y-164852337D01*
X81152337Y-165094002D01*
X80962463Y-165378169D01*
X80831675Y-165693919D01*
X80765000Y-166029117D01*
X80160000Y-166029117D01*
X80160000Y-133832279D01*
X80179920Y-133629117D01*
X80765000Y-133629117D01*
X80765000Y-133970883D01*
X80831675Y-134306081D01*
X80962463Y-134621831D01*
X81152337Y-134905998D01*
X81394002Y-135147663D01*
X81678169Y-135337537D01*
X81993919Y-135468325D01*
X82329117Y-135535000D01*
X82670883Y-135535000D01*
X83006081Y-135468325D01*
X83321831Y-135337537D01*
X83605998Y-135147663D01*
X83847663Y-134905998D01*
X84037537Y-134621831D01*
X84168325Y-134306081D01*
X84235000Y-133970883D01*
X84235000Y-133629117D01*
X84189426Y-133400000D01*
X91461928Y-133400000D01*
X91465000Y-133914250D01*
X91623750Y-134073000D01*
X92773000Y-134073000D01*
X92773000Y-132923750D01*
X93027000Y-132923750D01*
X93027000Y-134073000D01*
X94176250Y-134073000D01*
X94335000Y-133914250D01*
X94338072Y-133400000D01*
X94325812Y-133275518D01*
X94289502Y-133155820D01*
X94230537Y-133045506D01*
X94151185Y-132948815D01*
X94054494Y-132869463D01*
X93944180Y-132810498D01*
X93824482Y-132774188D01*
X93700000Y-132761928D01*
X93185750Y-132765000D01*
X93027000Y-132923750D01*
X92773000Y-132923750D01*
X92614250Y-132765000D01*
X92100000Y-132761928D01*
X91975518Y-132774188D01*
X91855820Y-132810498D01*
X91745506Y-132869463D01*
X91648815Y-132948815D01*
X91569463Y-133045506D01*
X91510498Y-133155820D01*
X91474188Y-133275518D01*
X91461928Y-133400000D01*
X84189426Y-133400000D01*
X84168325Y-133293919D01*
X84037537Y-132978169D01*
X83847663Y-132694002D01*
X83605998Y-132452337D01*
X83321831Y-132262463D01*
X83006081Y-132131675D01*
X82670883Y-132065000D01*
X82329117Y-132065000D01*
X81993919Y-132131675D01*
X81678169Y-132262463D01*
X81394002Y-132452337D01*
X81152337Y-132694002D01*
X80962463Y-132978169D01*
X80831675Y-133293919D01*
X80765000Y-133629117D01*
X80179920Y-133629117D01*
X80207670Y-133346107D01*
X80339489Y-132909502D01*
X80553600Y-132506815D01*
X80841848Y-132153388D01*
X81193261Y-131862673D01*
X81594439Y-131645758D01*
X82030113Y-131510894D01*
X82514344Y-131460000D01*
X98086153Y-131460000D01*
X98032224Y-131488826D01*
%TD*%
M02*
