%TF.GenerationSoftware,KiCad,Pcbnew,(5.1.6)-1*%
%TF.CreationDate,2020-07-30T09:39:52+02:00*%
%TF.ProjectId,motor-controller,6d6f746f-722d-4636-9f6e-74726f6c6c65,rev?*%
%TF.SameCoordinates,Original*%
%TF.FileFunction,Copper,L1,Top*%
%TF.FilePolarity,Positive*%
%FSLAX46Y46*%
G04 Gerber Fmt 4.6, Leading zero omitted, Abs format (unit mm)*
G04 Created by KiCad (PCBNEW (5.1.6)-1) date 2020-07-30 09:39:53*
%MOMM*%
%LPD*%
G01*
G04 APERTURE LIST*
%TA.AperFunction,ComponentPad*%
%ADD10O,1.600000X1.600000*%
%TD*%
%TA.AperFunction,ComponentPad*%
%ADD11R,1.600000X1.600000*%
%TD*%
%TA.AperFunction,SMDPad,CuDef*%
%ADD12R,2.000000X1.500000*%
%TD*%
%TA.AperFunction,SMDPad,CuDef*%
%ADD13R,2.000000X3.800000*%
%TD*%
%TA.AperFunction,ComponentPad*%
%ADD14O,1.950000X1.700000*%
%TD*%
%TA.AperFunction,ComponentPad*%
%ADD15O,1.700000X1.950000*%
%TD*%
%TA.AperFunction,ComponentPad*%
%ADD16O,1.700000X2.000000*%
%TD*%
%TA.AperFunction,ViaPad*%
%ADD17C,0.800000*%
%TD*%
%TA.AperFunction,Conductor*%
%ADD18C,0.250000*%
%TD*%
%TA.AperFunction,Conductor*%
%ADD19C,0.500000*%
%TD*%
%TA.AperFunction,Conductor*%
%ADD20C,0.254000*%
%TD*%
G04 APERTURE END LIST*
D10*
%TO.P,U4,16*%
%TO.N,VCC*%
X100520000Y-134200000D03*
%TO.P,U4,8*%
X92900000Y-151980000D03*
%TO.P,U4,15*%
%TO.N,GP7*%
X100520000Y-136740000D03*
%TO.P,U4,7*%
%TO.N,GP5*%
X92900000Y-149440000D03*
%TO.P,U4,14*%
%TO.N,M2D*%
X100520000Y-139280000D03*
%TO.P,U4,6*%
%TO.N,M2B*%
X92900000Y-146900000D03*
%TO.P,U4,13*%
%TO.N,GND*%
X100520000Y-141820000D03*
%TO.P,U4,5*%
X92900000Y-144360000D03*
%TO.P,U4,12*%
X100520000Y-144360000D03*
%TO.P,U4,4*%
X92900000Y-141820000D03*
%TO.P,U4,11*%
%TO.N,M2C*%
X100520000Y-146900000D03*
%TO.P,U4,3*%
%TO.N,M2A*%
X92900000Y-139280000D03*
%TO.P,U4,10*%
%TO.N,GP6*%
X100520000Y-149440000D03*
%TO.P,U4,2*%
%TO.N,GP4*%
X92900000Y-136740000D03*
%TO.P,U4,9*%
%TO.N,+5V*%
X100520000Y-151980000D03*
D11*
%TO.P,U4,1*%
X92900000Y-134200000D03*
%TD*%
%TO.P,R1,2*%
%TO.N,GND*%
%TA.AperFunction,SMDPad,CuDef*%
G36*
G01*
X115175000Y-161625000D02*
X115175000Y-160375000D01*
G75*
G02*
X115425000Y-160125000I250000J0D01*
G01*
X116350000Y-160125000D01*
G75*
G02*
X116600000Y-160375000I0J-250000D01*
G01*
X116600000Y-161625000D01*
G75*
G02*
X116350000Y-161875000I-250000J0D01*
G01*
X115425000Y-161875000D01*
G75*
G02*
X115175000Y-161625000I0J250000D01*
G01*
G37*
%TD.AperFunction*%
%TO.P,R1,1*%
%TO.N,Net-(D1-Pad1)*%
%TA.AperFunction,SMDPad,CuDef*%
G36*
G01*
X112200000Y-161625000D02*
X112200000Y-160375000D01*
G75*
G02*
X112450000Y-160125000I250000J0D01*
G01*
X113375000Y-160125000D01*
G75*
G02*
X113625000Y-160375000I0J-250000D01*
G01*
X113625000Y-161625000D01*
G75*
G02*
X113375000Y-161875000I-250000J0D01*
G01*
X112450000Y-161875000D01*
G75*
G02*
X112200000Y-161625000I0J250000D01*
G01*
G37*
%TD.AperFunction*%
%TD*%
%TO.P,C1,2*%
%TO.N,GND*%
%TA.AperFunction,SMDPad,CuDef*%
G36*
G01*
X118024999Y-157125000D02*
X118575001Y-157125000D01*
G75*
G02*
X118825000Y-157374999I0J-249999D01*
G01*
X118825000Y-158175001D01*
G75*
G02*
X118575001Y-158425000I-249999J0D01*
G01*
X118024999Y-158425000D01*
G75*
G02*
X117775000Y-158175001I0J249999D01*
G01*
X117775000Y-157374999D01*
G75*
G02*
X118024999Y-157125000I249999J0D01*
G01*
G37*
%TD.AperFunction*%
%TO.P,C1,1*%
%TO.N,+5V*%
%TA.AperFunction,SMDPad,CuDef*%
G36*
G01*
X118024999Y-155175000D02*
X118575001Y-155175000D01*
G75*
G02*
X118825000Y-155424999I0J-249999D01*
G01*
X118825000Y-156225001D01*
G75*
G02*
X118575001Y-156475000I-249999J0D01*
G01*
X118024999Y-156475000D01*
G75*
G02*
X117775000Y-156225001I0J249999D01*
G01*
X117775000Y-155424999D01*
G75*
G02*
X118024999Y-155175000I249999J0D01*
G01*
G37*
%TD.AperFunction*%
%TD*%
D12*
%TO.P,U1,1*%
%TO.N,GND*%
X114150000Y-156800000D03*
%TO.P,U1,3*%
%TO.N,VCC*%
X114150000Y-152200000D03*
%TO.P,U1,2*%
%TO.N,+5V*%
X114150000Y-154500000D03*
D13*
X107850000Y-154500000D03*
%TD*%
%TO.P,U2,18*%
%TO.N,+3V3*%
%TA.AperFunction,SMDPad,CuDef*%
G36*
G01*
X114925000Y-133870000D02*
X114925000Y-133570000D01*
G75*
G02*
X115075000Y-133420000I150000J0D01*
G01*
X116825000Y-133420000D01*
G75*
G02*
X116975000Y-133570000I0J-150000D01*
G01*
X116975000Y-133870000D01*
G75*
G02*
X116825000Y-134020000I-150000J0D01*
G01*
X115075000Y-134020000D01*
G75*
G02*
X114925000Y-133870000I0J150000D01*
G01*
G37*
%TD.AperFunction*%
%TO.P,U2,17*%
%TO.N,GP7*%
%TA.AperFunction,SMDPad,CuDef*%
G36*
G01*
X114925000Y-135140000D02*
X114925000Y-134840000D01*
G75*
G02*
X115075000Y-134690000I150000J0D01*
G01*
X116825000Y-134690000D01*
G75*
G02*
X116975000Y-134840000I0J-150000D01*
G01*
X116975000Y-135140000D01*
G75*
G02*
X116825000Y-135290000I-150000J0D01*
G01*
X115075000Y-135290000D01*
G75*
G02*
X114925000Y-135140000I0J150000D01*
G01*
G37*
%TD.AperFunction*%
%TO.P,U2,16*%
%TO.N,GP6*%
%TA.AperFunction,SMDPad,CuDef*%
G36*
G01*
X114925000Y-136410000D02*
X114925000Y-136110000D01*
G75*
G02*
X115075000Y-135960000I150000J0D01*
G01*
X116825000Y-135960000D01*
G75*
G02*
X116975000Y-136110000I0J-150000D01*
G01*
X116975000Y-136410000D01*
G75*
G02*
X116825000Y-136560000I-150000J0D01*
G01*
X115075000Y-136560000D01*
G75*
G02*
X114925000Y-136410000I0J150000D01*
G01*
G37*
%TD.AperFunction*%
%TO.P,U2,15*%
%TO.N,GP5*%
%TA.AperFunction,SMDPad,CuDef*%
G36*
G01*
X114925000Y-137680000D02*
X114925000Y-137380000D01*
G75*
G02*
X115075000Y-137230000I150000J0D01*
G01*
X116825000Y-137230000D01*
G75*
G02*
X116975000Y-137380000I0J-150000D01*
G01*
X116975000Y-137680000D01*
G75*
G02*
X116825000Y-137830000I-150000J0D01*
G01*
X115075000Y-137830000D01*
G75*
G02*
X114925000Y-137680000I0J150000D01*
G01*
G37*
%TD.AperFunction*%
%TO.P,U2,14*%
%TO.N,GP4*%
%TA.AperFunction,SMDPad,CuDef*%
G36*
G01*
X114925000Y-138950000D02*
X114925000Y-138650000D01*
G75*
G02*
X115075000Y-138500000I150000J0D01*
G01*
X116825000Y-138500000D01*
G75*
G02*
X116975000Y-138650000I0J-150000D01*
G01*
X116975000Y-138950000D01*
G75*
G02*
X116825000Y-139100000I-150000J0D01*
G01*
X115075000Y-139100000D01*
G75*
G02*
X114925000Y-138950000I0J150000D01*
G01*
G37*
%TD.AperFunction*%
%TO.P,U2,13*%
%TO.N,GP3*%
%TA.AperFunction,SMDPad,CuDef*%
G36*
G01*
X114925000Y-140220000D02*
X114925000Y-139920000D01*
G75*
G02*
X115075000Y-139770000I150000J0D01*
G01*
X116825000Y-139770000D01*
G75*
G02*
X116975000Y-139920000I0J-150000D01*
G01*
X116975000Y-140220000D01*
G75*
G02*
X116825000Y-140370000I-150000J0D01*
G01*
X115075000Y-140370000D01*
G75*
G02*
X114925000Y-140220000I0J150000D01*
G01*
G37*
%TD.AperFunction*%
%TO.P,U2,12*%
%TO.N,GP2*%
%TA.AperFunction,SMDPad,CuDef*%
G36*
G01*
X114925000Y-141490000D02*
X114925000Y-141190000D01*
G75*
G02*
X115075000Y-141040000I150000J0D01*
G01*
X116825000Y-141040000D01*
G75*
G02*
X116975000Y-141190000I0J-150000D01*
G01*
X116975000Y-141490000D01*
G75*
G02*
X116825000Y-141640000I-150000J0D01*
G01*
X115075000Y-141640000D01*
G75*
G02*
X114925000Y-141490000I0J150000D01*
G01*
G37*
%TD.AperFunction*%
%TO.P,U2,11*%
%TO.N,GP1*%
%TA.AperFunction,SMDPad,CuDef*%
G36*
G01*
X114925000Y-142760000D02*
X114925000Y-142460000D01*
G75*
G02*
X115075000Y-142310000I150000J0D01*
G01*
X116825000Y-142310000D01*
G75*
G02*
X116975000Y-142460000I0J-150000D01*
G01*
X116975000Y-142760000D01*
G75*
G02*
X116825000Y-142910000I-150000J0D01*
G01*
X115075000Y-142910000D01*
G75*
G02*
X114925000Y-142760000I0J150000D01*
G01*
G37*
%TD.AperFunction*%
%TO.P,U2,10*%
%TO.N,GP0*%
%TA.AperFunction,SMDPad,CuDef*%
G36*
G01*
X114925000Y-144030000D02*
X114925000Y-143730000D01*
G75*
G02*
X115075000Y-143580000I150000J0D01*
G01*
X116825000Y-143580000D01*
G75*
G02*
X116975000Y-143730000I0J-150000D01*
G01*
X116975000Y-144030000D01*
G75*
G02*
X116825000Y-144180000I-150000J0D01*
G01*
X115075000Y-144180000D01*
G75*
G02*
X114925000Y-144030000I0J150000D01*
G01*
G37*
%TD.AperFunction*%
%TO.P,U2,9*%
%TO.N,GND*%
%TA.AperFunction,SMDPad,CuDef*%
G36*
G01*
X105625000Y-144030000D02*
X105625000Y-143730000D01*
G75*
G02*
X105775000Y-143580000I150000J0D01*
G01*
X107525000Y-143580000D01*
G75*
G02*
X107675000Y-143730000I0J-150000D01*
G01*
X107675000Y-144030000D01*
G75*
G02*
X107525000Y-144180000I-150000J0D01*
G01*
X105775000Y-144180000D01*
G75*
G02*
X105625000Y-144030000I0J150000D01*
G01*
G37*
%TD.AperFunction*%
%TO.P,U2,8*%
%TO.N,Net-(U2-Pad8)*%
%TA.AperFunction,SMDPad,CuDef*%
G36*
G01*
X105625000Y-142760000D02*
X105625000Y-142460000D01*
G75*
G02*
X105775000Y-142310000I150000J0D01*
G01*
X107525000Y-142310000D01*
G75*
G02*
X107675000Y-142460000I0J-150000D01*
G01*
X107675000Y-142760000D01*
G75*
G02*
X107525000Y-142910000I-150000J0D01*
G01*
X105775000Y-142910000D01*
G75*
G02*
X105625000Y-142760000I0J150000D01*
G01*
G37*
%TD.AperFunction*%
%TO.P,U2,7*%
%TO.N,CS*%
%TA.AperFunction,SMDPad,CuDef*%
G36*
G01*
X105625000Y-141490000D02*
X105625000Y-141190000D01*
G75*
G02*
X105775000Y-141040000I150000J0D01*
G01*
X107525000Y-141040000D01*
G75*
G02*
X107675000Y-141190000I0J-150000D01*
G01*
X107675000Y-141490000D01*
G75*
G02*
X107525000Y-141640000I-150000J0D01*
G01*
X105775000Y-141640000D01*
G75*
G02*
X105625000Y-141490000I0J150000D01*
G01*
G37*
%TD.AperFunction*%
%TO.P,U2,6*%
%TO.N,+3V3*%
%TA.AperFunction,SMDPad,CuDef*%
G36*
G01*
X105625000Y-140220000D02*
X105625000Y-139920000D01*
G75*
G02*
X105775000Y-139770000I150000J0D01*
G01*
X107525000Y-139770000D01*
G75*
G02*
X107675000Y-139920000I0J-150000D01*
G01*
X107675000Y-140220000D01*
G75*
G02*
X107525000Y-140370000I-150000J0D01*
G01*
X105775000Y-140370000D01*
G75*
G02*
X105625000Y-140220000I0J150000D01*
G01*
G37*
%TD.AperFunction*%
%TO.P,U2,5*%
%TO.N,GND*%
%TA.AperFunction,SMDPad,CuDef*%
G36*
G01*
X105625000Y-138950000D02*
X105625000Y-138650000D01*
G75*
G02*
X105775000Y-138500000I150000J0D01*
G01*
X107525000Y-138500000D01*
G75*
G02*
X107675000Y-138650000I0J-150000D01*
G01*
X107675000Y-138950000D01*
G75*
G02*
X107525000Y-139100000I-150000J0D01*
G01*
X105775000Y-139100000D01*
G75*
G02*
X105625000Y-138950000I0J150000D01*
G01*
G37*
%TD.AperFunction*%
%TO.P,U2,4*%
%TA.AperFunction,SMDPad,CuDef*%
G36*
G01*
X105625000Y-137680000D02*
X105625000Y-137380000D01*
G75*
G02*
X105775000Y-137230000I150000J0D01*
G01*
X107525000Y-137230000D01*
G75*
G02*
X107675000Y-137380000I0J-150000D01*
G01*
X107675000Y-137680000D01*
G75*
G02*
X107525000Y-137830000I-150000J0D01*
G01*
X105775000Y-137830000D01*
G75*
G02*
X105625000Y-137680000I0J150000D01*
G01*
G37*
%TD.AperFunction*%
%TO.P,U2,3*%
%TO.N,MISO*%
%TA.AperFunction,SMDPad,CuDef*%
G36*
G01*
X105625000Y-136410000D02*
X105625000Y-136110000D01*
G75*
G02*
X105775000Y-135960000I150000J0D01*
G01*
X107525000Y-135960000D01*
G75*
G02*
X107675000Y-136110000I0J-150000D01*
G01*
X107675000Y-136410000D01*
G75*
G02*
X107525000Y-136560000I-150000J0D01*
G01*
X105775000Y-136560000D01*
G75*
G02*
X105625000Y-136410000I0J150000D01*
G01*
G37*
%TD.AperFunction*%
%TO.P,U2,2*%
%TO.N,MOSI*%
%TA.AperFunction,SMDPad,CuDef*%
G36*
G01*
X105625000Y-135140000D02*
X105625000Y-134840000D01*
G75*
G02*
X105775000Y-134690000I150000J0D01*
G01*
X107525000Y-134690000D01*
G75*
G02*
X107675000Y-134840000I0J-150000D01*
G01*
X107675000Y-135140000D01*
G75*
G02*
X107525000Y-135290000I-150000J0D01*
G01*
X105775000Y-135290000D01*
G75*
G02*
X105625000Y-135140000I0J150000D01*
G01*
G37*
%TD.AperFunction*%
%TO.P,U2,1*%
%TO.N,SCK*%
%TA.AperFunction,SMDPad,CuDef*%
G36*
G01*
X105625000Y-133870000D02*
X105625000Y-133570000D01*
G75*
G02*
X105775000Y-133420000I150000J0D01*
G01*
X107525000Y-133420000D01*
G75*
G02*
X107675000Y-133570000I0J-150000D01*
G01*
X107675000Y-133870000D01*
G75*
G02*
X107525000Y-134020000I-150000J0D01*
G01*
X105775000Y-134020000D01*
G75*
G02*
X105625000Y-133870000I0J150000D01*
G01*
G37*
%TD.AperFunction*%
%TD*%
D10*
%TO.P,U3,16*%
%TO.N,VCC*%
X121280000Y-152100000D03*
%TO.P,U3,8*%
X128900000Y-134320000D03*
%TO.P,U3,15*%
%TO.N,GP3*%
X121280000Y-149560000D03*
%TO.P,U3,7*%
%TO.N,GP1*%
X128900000Y-136860000D03*
%TO.P,U3,14*%
%TO.N,M1D*%
X121280000Y-147020000D03*
%TO.P,U3,6*%
%TO.N,M1B*%
X128900000Y-139400000D03*
%TO.P,U3,13*%
%TO.N,GND*%
X121280000Y-144480000D03*
%TO.P,U3,5*%
X128900000Y-141940000D03*
%TO.P,U3,12*%
X121280000Y-141940000D03*
%TO.P,U3,4*%
X128900000Y-144480000D03*
%TO.P,U3,11*%
%TO.N,M1C*%
X121280000Y-139400000D03*
%TO.P,U3,3*%
%TO.N,M1A*%
X128900000Y-147020000D03*
%TO.P,U3,10*%
%TO.N,GP2*%
X121280000Y-136860000D03*
%TO.P,U3,2*%
%TO.N,GP0*%
X128900000Y-149560000D03*
%TO.P,U3,9*%
%TO.N,+5V*%
X121280000Y-134320000D03*
D11*
%TO.P,U3,1*%
X128900000Y-152100000D03*
%TD*%
D14*
%TO.P,J4,4*%
%TO.N,M2D*%
X86500000Y-143400000D03*
%TO.P,J4,3*%
%TO.N,M2C*%
X86500000Y-145900000D03*
%TO.P,J4,2*%
%TO.N,M2B*%
X86500000Y-148400000D03*
%TO.P,J4,1*%
%TO.N,M2A*%
%TA.AperFunction,ComponentPad*%
G36*
G01*
X87225000Y-151750000D02*
X85775000Y-151750000D01*
G75*
G02*
X85525000Y-151500000I0J250000D01*
G01*
X85525000Y-150300000D01*
G75*
G02*
X85775000Y-150050000I250000J0D01*
G01*
X87225000Y-150050000D01*
G75*
G02*
X87475000Y-150300000I0J-250000D01*
G01*
X87475000Y-151500000D01*
G75*
G02*
X87225000Y-151750000I-250000J0D01*
G01*
G37*
%TD.AperFunction*%
%TD*%
%TO.P,J3,4*%
%TO.N,M1D*%
X135300000Y-150900000D03*
%TO.P,J3,3*%
%TO.N,M1C*%
X135300000Y-148400000D03*
%TO.P,J3,2*%
%TO.N,M1B*%
X135300000Y-145900000D03*
%TO.P,J3,1*%
%TO.N,M1A*%
%TA.AperFunction,ComponentPad*%
G36*
G01*
X134575000Y-142550000D02*
X136025000Y-142550000D01*
G75*
G02*
X136275000Y-142800000I0J-250000D01*
G01*
X136275000Y-144000000D01*
G75*
G02*
X136025000Y-144250000I-250000J0D01*
G01*
X134575000Y-144250000D01*
G75*
G02*
X134325000Y-144000000I0J250000D01*
G01*
X134325000Y-142800000D01*
G75*
G02*
X134575000Y-142550000I250000J0D01*
G01*
G37*
%TD.AperFunction*%
%TD*%
D15*
%TO.P,J2,6*%
%TO.N,GND*%
X90500000Y-162500000D03*
%TO.P,J2,5*%
%TO.N,CS*%
X93000000Y-162500000D03*
%TO.P,J2,4*%
%TO.N,MISO*%
X95500000Y-162500000D03*
%TO.P,J2,3*%
%TO.N,MOSI*%
X98000000Y-162500000D03*
%TO.P,J2,2*%
%TO.N,SCK*%
X100500000Y-162500000D03*
%TO.P,J2,1*%
%TO.N,+3V3*%
%TA.AperFunction,ComponentPad*%
G36*
G01*
X103850000Y-161775000D02*
X103850000Y-163225000D01*
G75*
G02*
X103600000Y-163475000I-250000J0D01*
G01*
X102400000Y-163475000D01*
G75*
G02*
X102150000Y-163225000I0J250000D01*
G01*
X102150000Y-161775000D01*
G75*
G02*
X102400000Y-161525000I250000J0D01*
G01*
X103600000Y-161525000D01*
G75*
G02*
X103850000Y-161775000I0J-250000D01*
G01*
G37*
%TD.AperFunction*%
%TD*%
D16*
%TO.P,J1,2*%
%TO.N,GND*%
X126800000Y-162000000D03*
%TO.P,J1,1*%
%TO.N,VCC*%
%TA.AperFunction,ComponentPad*%
G36*
G01*
X130150000Y-161250000D02*
X130150000Y-162750000D01*
G75*
G02*
X129900000Y-163000000I-250000J0D01*
G01*
X128700000Y-163000000D01*
G75*
G02*
X128450000Y-162750000I0J250000D01*
G01*
X128450000Y-161250000D01*
G75*
G02*
X128700000Y-161000000I250000J0D01*
G01*
X129900000Y-161000000D01*
G75*
G02*
X130150000Y-161250000I0J-250000D01*
G01*
G37*
%TD.AperFunction*%
%TD*%
%TO.P,D1,2*%
%TO.N,+5V*%
%TA.AperFunction,SMDPad,CuDef*%
G36*
G01*
X121225000Y-164925000D02*
X119975000Y-164925000D01*
G75*
G02*
X119725000Y-164675000I0J250000D01*
G01*
X119725000Y-163750000D01*
G75*
G02*
X119975000Y-163500000I250000J0D01*
G01*
X121225000Y-163500000D01*
G75*
G02*
X121475000Y-163750000I0J-250000D01*
G01*
X121475000Y-164675000D01*
G75*
G02*
X121225000Y-164925000I-250000J0D01*
G01*
G37*
%TD.AperFunction*%
%TO.P,D1,1*%
%TO.N,Net-(D1-Pad1)*%
%TA.AperFunction,SMDPad,CuDef*%
G36*
G01*
X121225000Y-167900000D02*
X119975000Y-167900000D01*
G75*
G02*
X119725000Y-167650000I0J250000D01*
G01*
X119725000Y-166725000D01*
G75*
G02*
X119975000Y-166475000I250000J0D01*
G01*
X121225000Y-166475000D01*
G75*
G02*
X121475000Y-166725000I0J-250000D01*
G01*
X121475000Y-167650000D01*
G75*
G02*
X121225000Y-167900000I-250000J0D01*
G01*
G37*
%TD.AperFunction*%
%TD*%
D17*
%TO.N,VCC*%
X111400000Y-152200000D03*
%TO.N,CS*%
X108573300Y-144130600D03*
%TO.N,MOSI*%
X108138200Y-135653100D03*
%TO.N,+3V3*%
X114297400Y-133678200D03*
X113039500Y-140226700D03*
%TO.N,GP5*%
X98912700Y-133330200D03*
%TD*%
D18*
%TO.N,GND*%
X100520000Y-141820000D02*
X101645300Y-141820000D01*
X101645300Y-141820000D02*
X104665300Y-138800000D01*
X104665300Y-138800000D02*
X106650000Y-138800000D01*
X94775000Y-156800000D02*
X94775000Y-147079000D01*
X94775000Y-147079000D02*
X93181300Y-145485300D01*
X93181300Y-145485300D02*
X92900000Y-145485300D01*
X91675300Y-162500000D02*
X91675300Y-159899700D01*
X91675300Y-159899700D02*
X94775000Y-156800000D01*
X92900000Y-144360000D02*
X92900000Y-145485300D01*
X90500000Y-162500000D02*
X91675300Y-162500000D01*
X100520000Y-144360000D02*
X101645300Y-144360000D01*
X106650000Y-143880000D02*
X102125300Y-143880000D01*
X102125300Y-143880000D02*
X101645300Y-144360000D01*
X106650000Y-137530000D02*
X106650000Y-138800000D01*
D19*
X118300000Y-157775000D02*
X117875000Y-157775000D01*
D18*
X114150000Y-156800000D02*
X94775000Y-156800000D01*
D19*
X116900000Y-156800000D02*
X114150000Y-156800000D01*
X117875000Y-157775000D02*
X116900000Y-156800000D01*
X118300000Y-157775000D02*
X118300000Y-160300000D01*
X118300000Y-160300000D02*
X117600000Y-161000000D01*
X117600000Y-161000000D02*
X116744000Y-161000000D01*
D18*
X115888000Y-161000000D02*
X115887500Y-161000000D01*
D19*
X116744000Y-161000000D02*
X115888000Y-161000000D01*
D18*
X126800000Y-162000000D02*
X125624700Y-162000000D01*
X122347900Y-165276800D02*
X125624700Y-162000000D01*
X119706300Y-165276800D02*
X122347900Y-165276800D01*
X116744000Y-162314500D02*
X119706300Y-165276800D01*
X116744000Y-161000000D02*
X116744000Y-162314500D01*
D19*
%TO.N,+5V*%
X92900000Y-134200000D02*
X94800000Y-134200000D01*
X94800000Y-134200000D02*
X96100000Y-135500000D01*
X96100000Y-135500000D02*
X96100000Y-150300000D01*
X96100000Y-150300000D02*
X97780000Y-151980000D01*
X97780000Y-151980000D02*
X100520000Y-151980000D01*
X121280000Y-134320000D02*
X122720000Y-134320000D01*
X122720000Y-134320000D02*
X124600000Y-136200000D01*
X124600000Y-136200000D02*
X124600000Y-149600000D01*
X124600000Y-149600000D02*
X127100000Y-152100000D01*
X127100000Y-152100000D02*
X128900000Y-152100000D01*
X103040000Y-154500000D02*
X100520000Y-151980000D01*
X107850000Y-154500000D02*
X103040000Y-154500000D01*
X114150000Y-154500000D02*
X107850000Y-154500000D01*
D18*
X120600000Y-157612500D02*
X120600000Y-164212500D01*
D19*
X118300000Y-155825000D02*
X118300000Y-155312500D01*
D18*
X118300000Y-155312500D02*
X120600000Y-157612500D01*
D19*
X118300000Y-155312500D02*
X118300000Y-154800000D01*
X118300000Y-154800000D02*
X118000000Y-154500000D01*
X118000000Y-154500000D02*
X114150000Y-154500000D01*
D18*
%TO.N,Net-(D1-Pad1)*%
X120600000Y-167187500D02*
X119100000Y-167187500D01*
X119100000Y-167187500D02*
X112912500Y-161000000D01*
D19*
%TO.N,VCC*%
X121280000Y-152100000D02*
X123800000Y-152100000D01*
X123800000Y-152100000D02*
X129300000Y-157600000D01*
X129300000Y-157600000D02*
X129300000Y-162000000D01*
X114250000Y-152100000D02*
X114150000Y-152200000D01*
X121280000Y-152100000D02*
X114250000Y-152100000D01*
X114150000Y-152200000D02*
X111400000Y-152200000D01*
D18*
%TO.N,CS*%
X106650000Y-141340000D02*
X107197300Y-141340000D01*
X107197300Y-141340000D02*
X108573300Y-142716000D01*
X108573300Y-142716000D02*
X108573300Y-144130600D01*
%TO.N,MISO*%
X94324700Y-162500000D02*
X95500000Y-162500000D01*
X95657500Y-132169900D02*
X91538500Y-132169900D01*
X101020000Y-135480000D02*
X98967600Y-135480000D01*
X98967600Y-135480000D02*
X95657500Y-132169900D01*
X106650000Y-136260000D02*
X101800000Y-136260000D01*
X91538500Y-132169900D02*
X85162500Y-138545900D01*
X101800000Y-136260000D02*
X101020000Y-135480000D01*
X93533200Y-163805700D02*
X94324700Y-163014200D01*
X85162500Y-138545900D02*
X85162500Y-158955400D01*
X90012800Y-163805700D02*
X93533200Y-163805700D01*
X85162500Y-158955400D02*
X90012800Y-163805700D01*
X94324700Y-163014200D02*
X94324700Y-162500000D01*
%TO.N,MOSI*%
X108138200Y-135653100D02*
X107475100Y-134990000D01*
X107475100Y-134990000D02*
X106650000Y-134990000D01*
%TO.N,SCK*%
X100500000Y-162500000D02*
X99324700Y-162500000D01*
X106650000Y-133720000D02*
X104645800Y-131715800D01*
X104645800Y-131715800D02*
X91355700Y-131715800D01*
X91355700Y-131715800D02*
X84712100Y-138359400D01*
X84712100Y-138359400D02*
X84712100Y-159262800D01*
X84712100Y-159262800D02*
X89738900Y-164289600D01*
X89738900Y-164289600D02*
X98049300Y-164289600D01*
X98049300Y-164289600D02*
X99324700Y-163014200D01*
X99324700Y-163014200D02*
X99324700Y-162500000D01*
%TO.N,+3V3*%
X115950000Y-133720000D02*
X114339200Y-133720000D01*
X114339200Y-133720000D02*
X114297400Y-133678200D01*
X106650000Y-140070000D02*
X112882800Y-140070000D01*
X112882800Y-140070000D02*
X113039500Y-140226700D01*
%TO.N,M1D*%
X121280000Y-148145300D02*
X121677400Y-148145300D01*
X121677400Y-148145300D02*
X127246500Y-153714400D01*
X127246500Y-153714400D02*
X133660900Y-153714400D01*
X133660900Y-153714400D02*
X135300000Y-152075300D01*
X121280000Y-147020000D02*
X121280000Y-148145300D01*
X135300000Y-150900000D02*
X135300000Y-152075300D01*
%TO.N,M1B*%
X128900000Y-139400000D02*
X130025300Y-139400000D01*
X135300000Y-145900000D02*
X135300000Y-144724700D01*
X135300000Y-144724700D02*
X134476700Y-144724700D01*
X134476700Y-144724700D02*
X130025300Y-140273300D01*
X130025300Y-140273300D02*
X130025300Y-139400000D01*
%TO.N,M2D*%
X100520000Y-139150000D02*
X100520000Y-139280000D01*
X100520000Y-139160000D02*
X100520000Y-139280000D01*
X100520000Y-139280000D02*
X100520000Y-139170000D01*
X86500000Y-137845300D02*
X86500000Y-143400000D01*
X91721100Y-132624200D02*
X86500000Y-137845300D01*
X94762800Y-132624200D02*
X91721100Y-132624200D01*
X100520000Y-139280000D02*
X100520000Y-138381400D01*
X100520000Y-138381400D02*
X94762800Y-132624200D01*
%TO.N,M2B*%
X92900000Y-146900000D02*
X91774700Y-146900000D01*
X86500000Y-148400000D02*
X90274700Y-148400000D01*
X90274700Y-148400000D02*
X91774700Y-146900000D01*
%TO.N,GP7*%
X100520000Y-136740000D02*
X101645300Y-136740000D01*
X115950000Y-134990000D02*
X111847700Y-134990000D01*
X111847700Y-134990000D02*
X109942700Y-136895000D01*
X109942700Y-136895000D02*
X101800300Y-136895000D01*
X101800300Y-136895000D02*
X101645300Y-136740000D01*
%TO.N,GP6*%
X115950000Y-136260000D02*
X116395000Y-136260000D01*
X116395000Y-136260000D02*
X117360600Y-137225600D01*
X117360600Y-137225600D02*
X117360600Y-139189600D01*
X117360600Y-139189600D02*
X117115200Y-139435000D01*
X117115200Y-139435000D02*
X114857200Y-139435000D01*
X114857200Y-139435000D02*
X104852200Y-149440000D01*
X104852200Y-149440000D02*
X100520000Y-149440000D01*
%TO.N,GP5*%
X117041400Y-134355000D02*
X114661600Y-134355000D01*
X117331500Y-134645100D02*
X117041400Y-134355000D01*
X114591400Y-134425200D02*
X114018600Y-134425200D01*
X114018600Y-134425200D02*
X113948400Y-134355000D01*
X114661600Y-134355000D02*
X114591400Y-134425200D01*
X117331500Y-135321900D02*
X117331500Y-134645100D01*
X117028400Y-135625000D02*
X117331500Y-135321900D01*
X114833300Y-135625000D02*
X117028400Y-135625000D01*
X114599000Y-135859300D02*
X114833300Y-135625000D01*
X114599000Y-136685700D02*
X114599000Y-135859300D01*
X115950000Y-137530000D02*
X115443300Y-137530000D01*
X99168300Y-133074600D02*
X98912700Y-133330200D01*
X115443300Y-137530000D02*
X114599000Y-136685700D01*
X113948400Y-134355000D02*
X104752600Y-134355000D01*
X103472200Y-133074600D02*
X99168300Y-133074600D01*
X104752600Y-134355000D02*
X103472200Y-133074600D01*
%TO.N,GP4*%
X108401700Y-138800000D02*
X115950000Y-138800000D01*
X107766700Y-139435000D02*
X108401700Y-138800000D01*
X89500000Y-136300000D02*
X89500000Y-135482200D01*
X91907600Y-133074600D02*
X94490900Y-133074600D01*
X104705200Y-139435000D02*
X107766700Y-139435000D01*
X89940000Y-136740000D02*
X89500000Y-136300000D01*
X89500000Y-135482200D02*
X91907600Y-133074600D01*
X92900000Y-136740000D02*
X89940000Y-136740000D01*
X101146900Y-142993300D02*
X104705200Y-139435000D01*
X101146900Y-142993300D02*
X101146700Y-142993300D01*
X101146700Y-142993300D02*
X101090000Y-143050000D01*
X101090000Y-143050000D02*
X99830000Y-143050000D01*
X99183150Y-142403150D02*
X99183150Y-137766850D01*
X99830000Y-143050000D02*
X99183150Y-142403150D01*
X94490900Y-133074600D02*
X99183150Y-137766850D01*
%TO.N,GP3*%
X115950000Y-140070000D02*
X115522700Y-140070000D01*
X115522700Y-140070000D02*
X114599000Y-140993700D01*
X114599000Y-140993700D02*
X114599000Y-144227900D01*
X114599000Y-144227900D02*
X119931100Y-149560000D01*
X119931100Y-149560000D02*
X121280000Y-149560000D01*
%TO.N,GP2*%
X121280000Y-136860000D02*
X120154700Y-136860000D01*
X115950000Y-141340000D02*
X116481200Y-141340000D01*
X116481200Y-141340000D02*
X120154700Y-137666500D01*
X120154700Y-137666500D02*
X120154700Y-136860000D01*
%TO.N,GP1*%
X128900000Y-136860000D02*
X127774700Y-136860000D01*
X127774700Y-136860000D02*
X124041400Y-133126700D01*
X124041400Y-133126700D02*
X120839300Y-133126700D01*
X120839300Y-133126700D02*
X120154600Y-133811400D01*
X120154600Y-133811400D02*
X120154600Y-134792100D01*
X120154600Y-134792100D02*
X120952500Y-135590000D01*
X120952500Y-135590000D02*
X121617200Y-135590000D01*
X121617200Y-135590000D02*
X122452800Y-136425600D01*
X122452800Y-136425600D02*
X122452800Y-137354100D01*
X122452800Y-137354100D02*
X121821500Y-137985400D01*
X121821500Y-137985400D02*
X121002000Y-137985400D01*
X121002000Y-137985400D02*
X116377400Y-142610000D01*
X116377400Y-142610000D02*
X115950000Y-142610000D01*
%TO.N,GP0*%
X128900000Y-149560000D02*
X128900000Y-150685300D01*
X115950000Y-143880000D02*
X117820000Y-145750000D01*
X117820000Y-145750000D02*
X121621800Y-145750000D01*
X121621800Y-145750000D02*
X122985200Y-147113400D01*
X122985200Y-147113400D02*
X122985200Y-148816200D01*
X122985200Y-148816200D02*
X127394400Y-153225400D01*
X127394400Y-153225400D02*
X129898800Y-153225400D01*
X129898800Y-153225400D02*
X130025300Y-153098900D01*
X130025300Y-153098900D02*
X130025300Y-151107200D01*
X130025300Y-151107200D02*
X129603400Y-150685300D01*
X129603400Y-150685300D02*
X128900000Y-150685300D01*
%TD*%
D20*
%TO.N,GND*%
G36*
X84201103Y-137795596D02*
G01*
X84172099Y-137819399D01*
X84127135Y-137874188D01*
X84077126Y-137935124D01*
X84015190Y-138050997D01*
X84006554Y-138067154D01*
X83963097Y-138210415D01*
X83952100Y-138322068D01*
X83952100Y-138322078D01*
X83948424Y-138359400D01*
X83952100Y-138396722D01*
X83952101Y-159225467D01*
X83948424Y-159262800D01*
X83963098Y-159411785D01*
X84006554Y-159555046D01*
X84077126Y-159687076D01*
X84145596Y-159770506D01*
X84172100Y-159802801D01*
X84201098Y-159826599D01*
X89175101Y-164800603D01*
X89198899Y-164829601D01*
X89314624Y-164924574D01*
X89446653Y-164995146D01*
X89589914Y-165038603D01*
X89701567Y-165049600D01*
X89701575Y-165049600D01*
X89738900Y-165053276D01*
X89776225Y-165049600D01*
X98011978Y-165049600D01*
X98049300Y-165053276D01*
X98086622Y-165049600D01*
X98086633Y-165049600D01*
X98198286Y-165038603D01*
X98341547Y-164995146D01*
X98473576Y-164924574D01*
X98589301Y-164829601D01*
X98613104Y-164800597D01*
X99603434Y-163810268D01*
X99670986Y-163865706D01*
X99928966Y-164003599D01*
X100208889Y-164088513D01*
X100500000Y-164117185D01*
X100791110Y-164088513D01*
X101071033Y-164003599D01*
X101329013Y-163865706D01*
X101555134Y-163680134D01*
X101607223Y-163616663D01*
X101661595Y-163718386D01*
X101772038Y-163852962D01*
X101906614Y-163963405D01*
X102060150Y-164045472D01*
X102226746Y-164096008D01*
X102400000Y-164113072D01*
X103600000Y-164113072D01*
X103773254Y-164096008D01*
X103939850Y-164045472D01*
X104093386Y-163963405D01*
X104227962Y-163852962D01*
X104338405Y-163718386D01*
X104420472Y-163564850D01*
X104471008Y-163398254D01*
X104488072Y-163225000D01*
X104488072Y-161775000D01*
X104471008Y-161601746D01*
X104420472Y-161435150D01*
X104338405Y-161281614D01*
X104227962Y-161147038D01*
X104093386Y-161036595D01*
X103939850Y-160954528D01*
X103773254Y-160903992D01*
X103600000Y-160886928D01*
X102400000Y-160886928D01*
X102226746Y-160903992D01*
X102060150Y-160954528D01*
X101906614Y-161036595D01*
X101772038Y-161147038D01*
X101661595Y-161281614D01*
X101607223Y-161383337D01*
X101555134Y-161319866D01*
X101329014Y-161134294D01*
X101071034Y-160996401D01*
X100791111Y-160911487D01*
X100500000Y-160882815D01*
X100208890Y-160911487D01*
X99928967Y-160996401D01*
X99670987Y-161134294D01*
X99444866Y-161319866D01*
X99259294Y-161545986D01*
X99250000Y-161563374D01*
X99240706Y-161545986D01*
X99055134Y-161319866D01*
X98829014Y-161134294D01*
X98571034Y-160996401D01*
X98291111Y-160911487D01*
X98000000Y-160882815D01*
X97708890Y-160911487D01*
X97428967Y-160996401D01*
X97170987Y-161134294D01*
X96944866Y-161319866D01*
X96759294Y-161545986D01*
X96750000Y-161563374D01*
X96740706Y-161545986D01*
X96555134Y-161319866D01*
X96329014Y-161134294D01*
X96071034Y-160996401D01*
X95791111Y-160911487D01*
X95500000Y-160882815D01*
X95208890Y-160911487D01*
X94928967Y-160996401D01*
X94670987Y-161134294D01*
X94444866Y-161319866D01*
X94259294Y-161545986D01*
X94250000Y-161563374D01*
X94240706Y-161545986D01*
X94055134Y-161319866D01*
X93829014Y-161134294D01*
X93571034Y-160996401D01*
X93291111Y-160911487D01*
X93000000Y-160882815D01*
X92708890Y-160911487D01*
X92428967Y-160996401D01*
X92170987Y-161134294D01*
X91944866Y-161319866D01*
X91759294Y-161545986D01*
X91745538Y-161571722D01*
X91589049Y-161365571D01*
X91371193Y-161172504D01*
X91119858Y-161025648D01*
X90856890Y-160933524D01*
X90627000Y-161054845D01*
X90627000Y-162373000D01*
X90647000Y-162373000D01*
X90647000Y-162627000D01*
X90627000Y-162627000D01*
X90627000Y-162647000D01*
X90373000Y-162647000D01*
X90373000Y-162627000D01*
X90353000Y-162627000D01*
X90353000Y-162373000D01*
X90373000Y-162373000D01*
X90373000Y-161054845D01*
X90143110Y-160933524D01*
X89880142Y-161025648D01*
X89628807Y-161172504D01*
X89410951Y-161365571D01*
X89234947Y-161597430D01*
X89118529Y-161836628D01*
X87656901Y-160375000D01*
X111561928Y-160375000D01*
X111561928Y-161625000D01*
X111578992Y-161798254D01*
X111629528Y-161964850D01*
X111711595Y-162118386D01*
X111822038Y-162252962D01*
X111956614Y-162363405D01*
X112110150Y-162445472D01*
X112276746Y-162496008D01*
X112450000Y-162513072D01*
X113350771Y-162513072D01*
X118536205Y-167698508D01*
X118559999Y-167727501D01*
X118588992Y-167751295D01*
X118588996Y-167751299D01*
X118659685Y-167809311D01*
X118675724Y-167822474D01*
X118807753Y-167893046D01*
X118951014Y-167936503D01*
X119062667Y-167947500D01*
X119062676Y-167947500D01*
X119099999Y-167951176D01*
X119137322Y-167947500D01*
X119141681Y-167947500D01*
X119154528Y-167989850D01*
X119236595Y-168143386D01*
X119347038Y-168277962D01*
X119481614Y-168388405D01*
X119635150Y-168470472D01*
X119801746Y-168521008D01*
X119975000Y-168538072D01*
X121225000Y-168538072D01*
X121398254Y-168521008D01*
X121564850Y-168470472D01*
X121718386Y-168388405D01*
X121852962Y-168277962D01*
X121963405Y-168143386D01*
X122045472Y-167989850D01*
X122096008Y-167823254D01*
X122113072Y-167650000D01*
X122113072Y-166725000D01*
X122096008Y-166551746D01*
X122045472Y-166385150D01*
X121963405Y-166231614D01*
X121852962Y-166097038D01*
X121770200Y-166029117D01*
X137465000Y-166029117D01*
X137465000Y-166370883D01*
X137531675Y-166706081D01*
X137662463Y-167021831D01*
X137852337Y-167305998D01*
X138094002Y-167547663D01*
X138378169Y-167737537D01*
X138693919Y-167868325D01*
X139029117Y-167935000D01*
X139370883Y-167935000D01*
X139706081Y-167868325D01*
X140021831Y-167737537D01*
X140305998Y-167547663D01*
X140547663Y-167305998D01*
X140737537Y-167021831D01*
X140868325Y-166706081D01*
X140935000Y-166370883D01*
X140935000Y-166029117D01*
X140868325Y-165693919D01*
X140737537Y-165378169D01*
X140547663Y-165094002D01*
X140305998Y-164852337D01*
X140021831Y-164662463D01*
X139706081Y-164531675D01*
X139370883Y-164465000D01*
X139029117Y-164465000D01*
X138693919Y-164531675D01*
X138378169Y-164662463D01*
X138094002Y-164852337D01*
X137852337Y-165094002D01*
X137662463Y-165378169D01*
X137531675Y-165693919D01*
X137465000Y-166029117D01*
X121770200Y-166029117D01*
X121718386Y-165986595D01*
X121564850Y-165904528D01*
X121398254Y-165853992D01*
X121225000Y-165836928D01*
X119975000Y-165836928D01*
X119801746Y-165853992D01*
X119635150Y-165904528D01*
X119481614Y-165986595D01*
X119347038Y-166097038D01*
X119236595Y-166231614D01*
X119230437Y-166243134D01*
X115498048Y-162510747D01*
X115601750Y-162510000D01*
X115760500Y-162351250D01*
X115760500Y-161127000D01*
X116014500Y-161127000D01*
X116014500Y-162351250D01*
X116173250Y-162510000D01*
X116600000Y-162513072D01*
X116724482Y-162500812D01*
X116844180Y-162464502D01*
X116954494Y-162405537D01*
X117051185Y-162326185D01*
X117130537Y-162229494D01*
X117189502Y-162119180D01*
X117225812Y-161999482D01*
X117238072Y-161875000D01*
X117235000Y-161285750D01*
X117076250Y-161127000D01*
X116014500Y-161127000D01*
X115760500Y-161127000D01*
X114698750Y-161127000D01*
X114540000Y-161285750D01*
X114538616Y-161551314D01*
X114263072Y-161275771D01*
X114263072Y-160375000D01*
X114246008Y-160201746D01*
X114222728Y-160125000D01*
X114536928Y-160125000D01*
X114540000Y-160714250D01*
X114698750Y-160873000D01*
X115760500Y-160873000D01*
X115760500Y-159648750D01*
X116014500Y-159648750D01*
X116014500Y-160873000D01*
X117076250Y-160873000D01*
X117235000Y-160714250D01*
X117238072Y-160125000D01*
X117225812Y-160000518D01*
X117189502Y-159880820D01*
X117130537Y-159770506D01*
X117051185Y-159673815D01*
X116954494Y-159594463D01*
X116844180Y-159535498D01*
X116724482Y-159499188D01*
X116600000Y-159486928D01*
X116173250Y-159490000D01*
X116014500Y-159648750D01*
X115760500Y-159648750D01*
X115601750Y-159490000D01*
X115175000Y-159486928D01*
X115050518Y-159499188D01*
X114930820Y-159535498D01*
X114820506Y-159594463D01*
X114723815Y-159673815D01*
X114644463Y-159770506D01*
X114585498Y-159880820D01*
X114549188Y-160000518D01*
X114536928Y-160125000D01*
X114222728Y-160125000D01*
X114195472Y-160035150D01*
X114113405Y-159881614D01*
X114002962Y-159747038D01*
X113868386Y-159636595D01*
X113714850Y-159554528D01*
X113548254Y-159503992D01*
X113375000Y-159486928D01*
X112450000Y-159486928D01*
X112276746Y-159503992D01*
X112110150Y-159554528D01*
X111956614Y-159636595D01*
X111822038Y-159747038D01*
X111711595Y-159881614D01*
X111629528Y-160035150D01*
X111578992Y-160201746D01*
X111561928Y-160375000D01*
X87656901Y-160375000D01*
X85922500Y-158640599D01*
X85922500Y-158425000D01*
X117136928Y-158425000D01*
X117149188Y-158549482D01*
X117185498Y-158669180D01*
X117244463Y-158779494D01*
X117323815Y-158876185D01*
X117420506Y-158955537D01*
X117530820Y-159014502D01*
X117650518Y-159050812D01*
X117775000Y-159063072D01*
X118014250Y-159060000D01*
X118173000Y-158901250D01*
X118173000Y-157902000D01*
X118427000Y-157902000D01*
X118427000Y-158901250D01*
X118585750Y-159060000D01*
X118825000Y-159063072D01*
X118949482Y-159050812D01*
X119069180Y-159014502D01*
X119179494Y-158955537D01*
X119276185Y-158876185D01*
X119355537Y-158779494D01*
X119414502Y-158669180D01*
X119450812Y-158549482D01*
X119463072Y-158425000D01*
X119460000Y-158060750D01*
X119301250Y-157902000D01*
X118427000Y-157902000D01*
X118173000Y-157902000D01*
X117298750Y-157902000D01*
X117140000Y-158060750D01*
X117136928Y-158425000D01*
X85922500Y-158425000D01*
X85922500Y-157550000D01*
X112511928Y-157550000D01*
X112524188Y-157674482D01*
X112560498Y-157794180D01*
X112619463Y-157904494D01*
X112698815Y-158001185D01*
X112795506Y-158080537D01*
X112905820Y-158139502D01*
X113025518Y-158175812D01*
X113150000Y-158188072D01*
X113864250Y-158185000D01*
X114023000Y-158026250D01*
X114023000Y-156927000D01*
X114277000Y-156927000D01*
X114277000Y-158026250D01*
X114435750Y-158185000D01*
X115150000Y-158188072D01*
X115274482Y-158175812D01*
X115394180Y-158139502D01*
X115504494Y-158080537D01*
X115601185Y-158001185D01*
X115680537Y-157904494D01*
X115739502Y-157794180D01*
X115775812Y-157674482D01*
X115788072Y-157550000D01*
X115785000Y-157085750D01*
X115626250Y-156927000D01*
X114277000Y-156927000D01*
X114023000Y-156927000D01*
X112673750Y-156927000D01*
X112515000Y-157085750D01*
X112511928Y-157550000D01*
X85922500Y-157550000D01*
X85922500Y-152388072D01*
X87225000Y-152388072D01*
X87398254Y-152371008D01*
X87564850Y-152320472D01*
X87718386Y-152238405D01*
X87852962Y-152127962D01*
X87963405Y-151993386D01*
X88045472Y-151839850D01*
X88096008Y-151673254D01*
X88113072Y-151500000D01*
X88113072Y-150300000D01*
X88096008Y-150126746D01*
X88045472Y-149960150D01*
X87963405Y-149806614D01*
X87852962Y-149672038D01*
X87718386Y-149561595D01*
X87616663Y-149507223D01*
X87680134Y-149455134D01*
X87865706Y-149229014D01*
X87902595Y-149160000D01*
X90237378Y-149160000D01*
X90274700Y-149163676D01*
X90312022Y-149160000D01*
X90312033Y-149160000D01*
X90423686Y-149149003D01*
X90566947Y-149105546D01*
X90698976Y-149034974D01*
X90814701Y-148940001D01*
X90838504Y-148910997D01*
X91860053Y-147889449D01*
X91985241Y-148014637D01*
X92217759Y-148170000D01*
X91985241Y-148325363D01*
X91785363Y-148525241D01*
X91628320Y-148760273D01*
X91520147Y-149021426D01*
X91465000Y-149298665D01*
X91465000Y-149581335D01*
X91520147Y-149858574D01*
X91628320Y-150119727D01*
X91785363Y-150354759D01*
X91985241Y-150554637D01*
X92217759Y-150710000D01*
X91985241Y-150865363D01*
X91785363Y-151065241D01*
X91628320Y-151300273D01*
X91520147Y-151561426D01*
X91465000Y-151838665D01*
X91465000Y-152121335D01*
X91520147Y-152398574D01*
X91628320Y-152659727D01*
X91785363Y-152894759D01*
X91985241Y-153094637D01*
X92220273Y-153251680D01*
X92481426Y-153359853D01*
X92758665Y-153415000D01*
X93041335Y-153415000D01*
X93318574Y-153359853D01*
X93579727Y-153251680D01*
X93814759Y-153094637D01*
X94014637Y-152894759D01*
X94171680Y-152659727D01*
X94279853Y-152398574D01*
X94335000Y-152121335D01*
X94335000Y-151838665D01*
X94279853Y-151561426D01*
X94171680Y-151300273D01*
X94014637Y-151065241D01*
X93814759Y-150865363D01*
X93582241Y-150710000D01*
X93814759Y-150554637D01*
X94014637Y-150354759D01*
X94171680Y-150119727D01*
X94279853Y-149858574D01*
X94335000Y-149581335D01*
X94335000Y-149298665D01*
X94279853Y-149021426D01*
X94171680Y-148760273D01*
X94014637Y-148525241D01*
X93814759Y-148325363D01*
X93582241Y-148170000D01*
X93814759Y-148014637D01*
X94014637Y-147814759D01*
X94171680Y-147579727D01*
X94279853Y-147318574D01*
X94335000Y-147041335D01*
X94335000Y-146758665D01*
X94279853Y-146481426D01*
X94171680Y-146220273D01*
X94014637Y-145985241D01*
X93814759Y-145785363D01*
X93579727Y-145628320D01*
X93569135Y-145623933D01*
X93755131Y-145512385D01*
X93963519Y-145323414D01*
X94131037Y-145097420D01*
X94251246Y-144843087D01*
X94291904Y-144709039D01*
X94169915Y-144487000D01*
X93027000Y-144487000D01*
X93027000Y-144507000D01*
X92773000Y-144507000D01*
X92773000Y-144487000D01*
X91630085Y-144487000D01*
X91508096Y-144709039D01*
X91548754Y-144843087D01*
X91668963Y-145097420D01*
X91836481Y-145323414D01*
X92044869Y-145512385D01*
X92230865Y-145623933D01*
X92220273Y-145628320D01*
X91985241Y-145785363D01*
X91785363Y-145985241D01*
X91678053Y-146145842D01*
X91625714Y-146150997D01*
X91482453Y-146194454D01*
X91350424Y-146265026D01*
X91234699Y-146359999D01*
X91210901Y-146388997D01*
X89959899Y-147640000D01*
X87902595Y-147640000D01*
X87865706Y-147570986D01*
X87680134Y-147344866D01*
X87454014Y-147159294D01*
X87436626Y-147150000D01*
X87454014Y-147140706D01*
X87680134Y-146955134D01*
X87865706Y-146729014D01*
X88003599Y-146471034D01*
X88088513Y-146191111D01*
X88117185Y-145900000D01*
X88088513Y-145608889D01*
X88003599Y-145328966D01*
X87865706Y-145070986D01*
X87680134Y-144844866D01*
X87454014Y-144659294D01*
X87436626Y-144650000D01*
X87454014Y-144640706D01*
X87680134Y-144455134D01*
X87865706Y-144229014D01*
X88003599Y-143971034D01*
X88088513Y-143691111D01*
X88117185Y-143400000D01*
X88088513Y-143108889D01*
X88003599Y-142828966D01*
X87865706Y-142570986D01*
X87680134Y-142344866D01*
X87465889Y-142169039D01*
X91508096Y-142169039D01*
X91548754Y-142303087D01*
X91668963Y-142557420D01*
X91836481Y-142783414D01*
X92044869Y-142972385D01*
X92240982Y-143090000D01*
X92044869Y-143207615D01*
X91836481Y-143396586D01*
X91668963Y-143622580D01*
X91548754Y-143876913D01*
X91508096Y-144010961D01*
X91630085Y-144233000D01*
X92773000Y-144233000D01*
X92773000Y-141947000D01*
X93027000Y-141947000D01*
X93027000Y-144233000D01*
X94169915Y-144233000D01*
X94291904Y-144010961D01*
X94251246Y-143876913D01*
X94131037Y-143622580D01*
X93963519Y-143396586D01*
X93755131Y-143207615D01*
X93559018Y-143090000D01*
X93755131Y-142972385D01*
X93963519Y-142783414D01*
X94131037Y-142557420D01*
X94251246Y-142303087D01*
X94291904Y-142169039D01*
X94169915Y-141947000D01*
X93027000Y-141947000D01*
X92773000Y-141947000D01*
X91630085Y-141947000D01*
X91508096Y-142169039D01*
X87465889Y-142169039D01*
X87454014Y-142159294D01*
X87260000Y-142055591D01*
X87260000Y-138160101D01*
X88806089Y-136614013D01*
X88865026Y-136724276D01*
X88904871Y-136772826D01*
X88959999Y-136840001D01*
X88989003Y-136863804D01*
X89376196Y-137250997D01*
X89399999Y-137280001D01*
X89466160Y-137334298D01*
X89515723Y-137374974D01*
X89607068Y-137423799D01*
X89647753Y-137445546D01*
X89791014Y-137489003D01*
X89902667Y-137500000D01*
X89902677Y-137500000D01*
X89940000Y-137503676D01*
X89977323Y-137500000D01*
X91681957Y-137500000D01*
X91785363Y-137654759D01*
X91985241Y-137854637D01*
X92217759Y-138010000D01*
X91985241Y-138165363D01*
X91785363Y-138365241D01*
X91628320Y-138600273D01*
X91520147Y-138861426D01*
X91465000Y-139138665D01*
X91465000Y-139421335D01*
X91520147Y-139698574D01*
X91628320Y-139959727D01*
X91785363Y-140194759D01*
X91985241Y-140394637D01*
X92220273Y-140551680D01*
X92230865Y-140556067D01*
X92044869Y-140667615D01*
X91836481Y-140856586D01*
X91668963Y-141082580D01*
X91548754Y-141336913D01*
X91508096Y-141470961D01*
X91630085Y-141693000D01*
X92773000Y-141693000D01*
X92773000Y-141673000D01*
X93027000Y-141673000D01*
X93027000Y-141693000D01*
X94169915Y-141693000D01*
X94291904Y-141470961D01*
X94251246Y-141336913D01*
X94131037Y-141082580D01*
X93963519Y-140856586D01*
X93755131Y-140667615D01*
X93569135Y-140556067D01*
X93579727Y-140551680D01*
X93814759Y-140394637D01*
X94014637Y-140194759D01*
X94171680Y-139959727D01*
X94279853Y-139698574D01*
X94335000Y-139421335D01*
X94335000Y-139138665D01*
X94279853Y-138861426D01*
X94171680Y-138600273D01*
X94014637Y-138365241D01*
X93814759Y-138165363D01*
X93582241Y-138010000D01*
X93814759Y-137854637D01*
X94014637Y-137654759D01*
X94171680Y-137419727D01*
X94279853Y-137158574D01*
X94335000Y-136881335D01*
X94335000Y-136598665D01*
X94279853Y-136321426D01*
X94171680Y-136060273D01*
X94014637Y-135825241D01*
X93816039Y-135626643D01*
X93824482Y-135625812D01*
X93944180Y-135589502D01*
X94054494Y-135530537D01*
X94151185Y-135451185D01*
X94230537Y-135354494D01*
X94289502Y-135244180D01*
X94325812Y-135124482D01*
X94329701Y-135085000D01*
X94433422Y-135085000D01*
X95215000Y-135866579D01*
X95215001Y-150256521D01*
X95210719Y-150300000D01*
X95227805Y-150473490D01*
X95278412Y-150640313D01*
X95360590Y-150794059D01*
X95443468Y-150895046D01*
X95443471Y-150895049D01*
X95471184Y-150928817D01*
X95504951Y-150956529D01*
X97123470Y-152575049D01*
X97151183Y-152608817D01*
X97184951Y-152636530D01*
X97184953Y-152636532D01*
X97250416Y-152690256D01*
X97285941Y-152719411D01*
X97439687Y-152801589D01*
X97606510Y-152852195D01*
X97736523Y-152865000D01*
X97736531Y-152865000D01*
X97780000Y-152869281D01*
X97823469Y-152865000D01*
X99385479Y-152865000D01*
X99405363Y-152894759D01*
X99605241Y-153094637D01*
X99840273Y-153251680D01*
X100101426Y-153359853D01*
X100378665Y-153415000D01*
X100661335Y-153415000D01*
X100696439Y-153408017D01*
X102383470Y-155095049D01*
X102411183Y-155128817D01*
X102444951Y-155156530D01*
X102444953Y-155156532D01*
X102453462Y-155163515D01*
X102545941Y-155239411D01*
X102699687Y-155321589D01*
X102866510Y-155372195D01*
X102996523Y-155385000D01*
X102996533Y-155385000D01*
X103039999Y-155389281D01*
X103083465Y-155385000D01*
X106211928Y-155385000D01*
X106211928Y-156400000D01*
X106224188Y-156524482D01*
X106260498Y-156644180D01*
X106319463Y-156754494D01*
X106398815Y-156851185D01*
X106495506Y-156930537D01*
X106605820Y-156989502D01*
X106725518Y-157025812D01*
X106850000Y-157038072D01*
X108850000Y-157038072D01*
X108974482Y-157025812D01*
X109094180Y-156989502D01*
X109204494Y-156930537D01*
X109301185Y-156851185D01*
X109380537Y-156754494D01*
X109439502Y-156644180D01*
X109475812Y-156524482D01*
X109488072Y-156400000D01*
X109488072Y-155385000D01*
X112527379Y-155385000D01*
X112560498Y-155494180D01*
X112619463Y-155604494D01*
X112656809Y-155650000D01*
X112619463Y-155695506D01*
X112560498Y-155805820D01*
X112524188Y-155925518D01*
X112511928Y-156050000D01*
X112515000Y-156514250D01*
X112673750Y-156673000D01*
X114023000Y-156673000D01*
X114023000Y-156653000D01*
X114277000Y-156653000D01*
X114277000Y-156673000D01*
X115626250Y-156673000D01*
X115785000Y-156514250D01*
X115788072Y-156050000D01*
X115775812Y-155925518D01*
X115739502Y-155805820D01*
X115680537Y-155695506D01*
X115643191Y-155650000D01*
X115680537Y-155604494D01*
X115739502Y-155494180D01*
X115772621Y-155385000D01*
X117140868Y-155385000D01*
X117136928Y-155424999D01*
X117136928Y-156225001D01*
X117153992Y-156398255D01*
X117204528Y-156564851D01*
X117286595Y-156718387D01*
X117286915Y-156718777D01*
X117244463Y-156770506D01*
X117185498Y-156880820D01*
X117149188Y-157000518D01*
X117136928Y-157125000D01*
X117140000Y-157489250D01*
X117298750Y-157648000D01*
X118173000Y-157648000D01*
X118173000Y-157628000D01*
X118427000Y-157628000D01*
X118427000Y-157648000D01*
X119301250Y-157648000D01*
X119430974Y-157518276D01*
X119840000Y-157927302D01*
X119840001Y-162875224D01*
X119801746Y-162878992D01*
X119635150Y-162929528D01*
X119481614Y-163011595D01*
X119347038Y-163122038D01*
X119236595Y-163256614D01*
X119154528Y-163410150D01*
X119103992Y-163576746D01*
X119086928Y-163750000D01*
X119086928Y-164675000D01*
X119103992Y-164848254D01*
X119154528Y-165014850D01*
X119236595Y-165168386D01*
X119347038Y-165302962D01*
X119481614Y-165413405D01*
X119635150Y-165495472D01*
X119801746Y-165546008D01*
X119975000Y-165563072D01*
X121225000Y-165563072D01*
X121398254Y-165546008D01*
X121564850Y-165495472D01*
X121718386Y-165413405D01*
X121852962Y-165302962D01*
X121963405Y-165168386D01*
X122045472Y-165014850D01*
X122096008Y-164848254D01*
X122113072Y-164675000D01*
X122113072Y-163750000D01*
X122096008Y-163576746D01*
X122045472Y-163410150D01*
X121963405Y-163256614D01*
X121852962Y-163122038D01*
X121718386Y-163011595D01*
X121564850Y-162929528D01*
X121398254Y-162878992D01*
X121360000Y-162875224D01*
X121360000Y-162359742D01*
X125328715Y-162359742D01*
X125397904Y-162642745D01*
X125520975Y-162906812D01*
X125693198Y-163141795D01*
X125907954Y-163338664D01*
X126156991Y-163489854D01*
X126430739Y-163589554D01*
X126443110Y-163591476D01*
X126673000Y-163470155D01*
X126673000Y-162127000D01*
X125472768Y-162127000D01*
X125328715Y-162359742D01*
X121360000Y-162359742D01*
X121360000Y-161640258D01*
X125328715Y-161640258D01*
X125472768Y-161873000D01*
X126673000Y-161873000D01*
X126673000Y-160529845D01*
X126443110Y-160408524D01*
X126430739Y-160410446D01*
X126156991Y-160510146D01*
X125907954Y-160661336D01*
X125693198Y-160858205D01*
X125520975Y-161093188D01*
X125397904Y-161357255D01*
X125328715Y-161640258D01*
X121360000Y-161640258D01*
X121360000Y-157649822D01*
X121363676Y-157612499D01*
X121360000Y-157575176D01*
X121360000Y-157575167D01*
X121349003Y-157463514D01*
X121305546Y-157320253D01*
X121234974Y-157188224D01*
X121140001Y-157072499D01*
X121111004Y-157048702D01*
X119460425Y-155398124D01*
X119446008Y-155251745D01*
X119395472Y-155085149D01*
X119313405Y-154931613D01*
X119202962Y-154797038D01*
X119187761Y-154784563D01*
X119185000Y-154756533D01*
X119185000Y-154756523D01*
X119172195Y-154626510D01*
X119121589Y-154459687D01*
X119039411Y-154305941D01*
X118928817Y-154171183D01*
X118895044Y-154143466D01*
X118656534Y-153904956D01*
X118628817Y-153871183D01*
X118494059Y-153760589D01*
X118340313Y-153678411D01*
X118173490Y-153627805D01*
X118043477Y-153615000D01*
X118043469Y-153615000D01*
X118000000Y-153610719D01*
X117956531Y-153615000D01*
X115772621Y-153615000D01*
X115739502Y-153505820D01*
X115680537Y-153395506D01*
X115643191Y-153350000D01*
X115680537Y-153304494D01*
X115739502Y-153194180D01*
X115775812Y-153074482D01*
X115784625Y-152985000D01*
X120145479Y-152985000D01*
X120165363Y-153014759D01*
X120365241Y-153214637D01*
X120600273Y-153371680D01*
X120861426Y-153479853D01*
X121138665Y-153535000D01*
X121421335Y-153535000D01*
X121698574Y-153479853D01*
X121959727Y-153371680D01*
X122194759Y-153214637D01*
X122394637Y-153014759D01*
X122414521Y-152985000D01*
X123433422Y-152985000D01*
X128415000Y-157966579D01*
X128415001Y-160412889D01*
X128360150Y-160429528D01*
X128206614Y-160511595D01*
X128072038Y-160622038D01*
X127961595Y-160756614D01*
X127907086Y-160858593D01*
X127906802Y-160858205D01*
X127692046Y-160661336D01*
X127443009Y-160510146D01*
X127169261Y-160410446D01*
X127156890Y-160408524D01*
X126927000Y-160529845D01*
X126927000Y-161873000D01*
X126947000Y-161873000D01*
X126947000Y-162127000D01*
X126927000Y-162127000D01*
X126927000Y-163470155D01*
X127156890Y-163591476D01*
X127169261Y-163589554D01*
X127443009Y-163489854D01*
X127692046Y-163338664D01*
X127906802Y-163141795D01*
X127907086Y-163141407D01*
X127961595Y-163243386D01*
X128072038Y-163377962D01*
X128206614Y-163488405D01*
X128360150Y-163570472D01*
X128526746Y-163621008D01*
X128700000Y-163638072D01*
X129900000Y-163638072D01*
X130073254Y-163621008D01*
X130239850Y-163570472D01*
X130393386Y-163488405D01*
X130527962Y-163377962D01*
X130638405Y-163243386D01*
X130720472Y-163089850D01*
X130771008Y-162923254D01*
X130788072Y-162750000D01*
X130788072Y-161250000D01*
X130771008Y-161076746D01*
X130720472Y-160910150D01*
X130638405Y-160756614D01*
X130527962Y-160622038D01*
X130393386Y-160511595D01*
X130239850Y-160429528D01*
X130185000Y-160412890D01*
X130185000Y-157643469D01*
X130189281Y-157600000D01*
X130185000Y-157556531D01*
X130185000Y-157556523D01*
X130172195Y-157426510D01*
X130139962Y-157320253D01*
X130121589Y-157259686D01*
X130039411Y-157105941D01*
X129956532Y-157004953D01*
X129956530Y-157004951D01*
X129928817Y-156971183D01*
X129895051Y-156943472D01*
X127425979Y-154474400D01*
X133623578Y-154474400D01*
X133660900Y-154478076D01*
X133698222Y-154474400D01*
X133698233Y-154474400D01*
X133809886Y-154463403D01*
X133953147Y-154419946D01*
X134085176Y-154349374D01*
X134200901Y-154254401D01*
X134224703Y-154225398D01*
X135811008Y-152639095D01*
X135840001Y-152615301D01*
X135863795Y-152586308D01*
X135863799Y-152586304D01*
X135934973Y-152499577D01*
X135934974Y-152499576D01*
X136005546Y-152367547D01*
X136039590Y-152255318D01*
X136254014Y-152140706D01*
X136480134Y-151955134D01*
X136665706Y-151729014D01*
X136803599Y-151471034D01*
X136888513Y-151191111D01*
X136917185Y-150900000D01*
X136888513Y-150608889D01*
X136803599Y-150328966D01*
X136665706Y-150070986D01*
X136480134Y-149844866D01*
X136254014Y-149659294D01*
X136236626Y-149650000D01*
X136254014Y-149640706D01*
X136480134Y-149455134D01*
X136665706Y-149229014D01*
X136803599Y-148971034D01*
X136888513Y-148691111D01*
X136917185Y-148400000D01*
X136888513Y-148108889D01*
X136803599Y-147828966D01*
X136665706Y-147570986D01*
X136480134Y-147344866D01*
X136254014Y-147159294D01*
X136236626Y-147150000D01*
X136254014Y-147140706D01*
X136480134Y-146955134D01*
X136665706Y-146729014D01*
X136803599Y-146471034D01*
X136888513Y-146191111D01*
X136917185Y-145900000D01*
X136888513Y-145608889D01*
X136803599Y-145328966D01*
X136665706Y-145070986D01*
X136480134Y-144844866D01*
X136416663Y-144792777D01*
X136518386Y-144738405D01*
X136652962Y-144627962D01*
X136763405Y-144493386D01*
X136845472Y-144339850D01*
X136896008Y-144173254D01*
X136913072Y-144000000D01*
X136913072Y-142800000D01*
X136896008Y-142626746D01*
X136845472Y-142460150D01*
X136763405Y-142306614D01*
X136652962Y-142172038D01*
X136518386Y-142061595D01*
X136364850Y-141979528D01*
X136198254Y-141928992D01*
X136025000Y-141911928D01*
X134575000Y-141911928D01*
X134401746Y-141928992D01*
X134235150Y-141979528D01*
X134081614Y-142061595D01*
X133947038Y-142172038D01*
X133836595Y-142306614D01*
X133754528Y-142460150D01*
X133703992Y-142626746D01*
X133686928Y-142800000D01*
X133686928Y-142860126D01*
X130785300Y-139958499D01*
X130785300Y-139437333D01*
X130788977Y-139400000D01*
X130774303Y-139251014D01*
X130730846Y-139107753D01*
X130660274Y-138975724D01*
X130565301Y-138859999D01*
X130449576Y-138765026D01*
X130317547Y-138694454D01*
X130174286Y-138650997D01*
X130121947Y-138645842D01*
X130014637Y-138485241D01*
X129814759Y-138285363D01*
X129582241Y-138130000D01*
X129814759Y-137974637D01*
X130014637Y-137774759D01*
X130171680Y-137539727D01*
X130279853Y-137278574D01*
X130335000Y-137001335D01*
X130335000Y-136718665D01*
X130279853Y-136441426D01*
X130171680Y-136180273D01*
X130014637Y-135945241D01*
X129814759Y-135745363D01*
X129582241Y-135590000D01*
X129814759Y-135434637D01*
X130014637Y-135234759D01*
X130171680Y-134999727D01*
X130279853Y-134738574D01*
X130335000Y-134461335D01*
X130335000Y-134178665D01*
X130279853Y-133901426D01*
X130171680Y-133640273D01*
X130164226Y-133629117D01*
X137365000Y-133629117D01*
X137365000Y-133970883D01*
X137431675Y-134306081D01*
X137562463Y-134621831D01*
X137752337Y-134905998D01*
X137994002Y-135147663D01*
X138278169Y-135337537D01*
X138593919Y-135468325D01*
X138929117Y-135535000D01*
X139270883Y-135535000D01*
X139606081Y-135468325D01*
X139921831Y-135337537D01*
X140205998Y-135147663D01*
X140447663Y-134905998D01*
X140637537Y-134621831D01*
X140768325Y-134306081D01*
X140835000Y-133970883D01*
X140835000Y-133629117D01*
X140768325Y-133293919D01*
X140637537Y-132978169D01*
X140447663Y-132694002D01*
X140205998Y-132452337D01*
X139921831Y-132262463D01*
X139606081Y-132131675D01*
X139270883Y-132065000D01*
X138929117Y-132065000D01*
X138593919Y-132131675D01*
X138278169Y-132262463D01*
X137994002Y-132452337D01*
X137752337Y-132694002D01*
X137562463Y-132978169D01*
X137431675Y-133293919D01*
X137365000Y-133629117D01*
X130164226Y-133629117D01*
X130014637Y-133405241D01*
X129814759Y-133205363D01*
X129579727Y-133048320D01*
X129318574Y-132940147D01*
X129041335Y-132885000D01*
X128758665Y-132885000D01*
X128481426Y-132940147D01*
X128220273Y-133048320D01*
X127985241Y-133205363D01*
X127785363Y-133405241D01*
X127628320Y-133640273D01*
X127520147Y-133901426D01*
X127465000Y-134178665D01*
X127465000Y-134461335D01*
X127520147Y-134738574D01*
X127628320Y-134999727D01*
X127785363Y-135234759D01*
X127985241Y-135434637D01*
X128217759Y-135590000D01*
X127985241Y-135745363D01*
X127860053Y-135870551D01*
X124605204Y-132615703D01*
X124581401Y-132586699D01*
X124465676Y-132491726D01*
X124333647Y-132421154D01*
X124190386Y-132377697D01*
X124078733Y-132366700D01*
X124078722Y-132366700D01*
X124041400Y-132363024D01*
X124004078Y-132366700D01*
X120876622Y-132366700D01*
X120839299Y-132363024D01*
X120801976Y-132366700D01*
X120801967Y-132366700D01*
X120690314Y-132377697D01*
X120547053Y-132421154D01*
X120415023Y-132491726D01*
X120362783Y-132534599D01*
X120299299Y-132586699D01*
X120275501Y-132615698D01*
X119643602Y-133247597D01*
X119614599Y-133271399D01*
X119559471Y-133338574D01*
X119519626Y-133387124D01*
X119460141Y-133498412D01*
X119449054Y-133519154D01*
X119405597Y-133662415D01*
X119394600Y-133774068D01*
X119394600Y-133774078D01*
X119390924Y-133811400D01*
X119394600Y-133848723D01*
X119394601Y-134754768D01*
X119390924Y-134792100D01*
X119394601Y-134829433D01*
X119396354Y-134847226D01*
X119405598Y-134941085D01*
X119449054Y-135084346D01*
X119519626Y-135216376D01*
X119573685Y-135282246D01*
X119614600Y-135332101D01*
X119643598Y-135355899D01*
X120199151Y-135911453D01*
X120165363Y-135945241D01*
X120058053Y-136105842D01*
X120005714Y-136110997D01*
X119862453Y-136154454D01*
X119730424Y-136225026D01*
X119614699Y-136319999D01*
X119519726Y-136435724D01*
X119449154Y-136567753D01*
X119405697Y-136711014D01*
X119391023Y-136860000D01*
X119394700Y-136897333D01*
X119394700Y-137351698D01*
X118120600Y-138625798D01*
X118120600Y-137262933D01*
X118124277Y-137225600D01*
X118109603Y-137076614D01*
X118066146Y-136933353D01*
X117995574Y-136801324D01*
X117924399Y-136714597D01*
X117900601Y-136685599D01*
X117871604Y-136661802D01*
X117613072Y-136403270D01*
X117613072Y-136115129D01*
X117842498Y-135885703D01*
X117871501Y-135861901D01*
X117966474Y-135746176D01*
X118037046Y-135614147D01*
X118080503Y-135470886D01*
X118091500Y-135359233D01*
X118091500Y-135359224D01*
X118095176Y-135321901D01*
X118091500Y-135284578D01*
X118091500Y-134682422D01*
X118095176Y-134645099D01*
X118091500Y-134607776D01*
X118091500Y-134607767D01*
X118080503Y-134496114D01*
X118037046Y-134352853D01*
X117966474Y-134220824D01*
X117871501Y-134105099D01*
X117842497Y-134081296D01*
X117613072Y-133851871D01*
X117613072Y-133570000D01*
X117597929Y-133416255D01*
X117553084Y-133268418D01*
X117480258Y-133132171D01*
X117382251Y-133012749D01*
X117262829Y-132914742D01*
X117126582Y-132841916D01*
X116978745Y-132797071D01*
X116825000Y-132781928D01*
X115075000Y-132781928D01*
X114921255Y-132797071D01*
X114866504Y-132813679D01*
X114787656Y-132760995D01*
X114599298Y-132682974D01*
X114399339Y-132643200D01*
X114195461Y-132643200D01*
X113995502Y-132682974D01*
X113807144Y-132760995D01*
X113637626Y-132874263D01*
X113493463Y-133018426D01*
X113380195Y-133187944D01*
X113302174Y-133376302D01*
X113262400Y-133576261D01*
X113262400Y-133595000D01*
X108313072Y-133595000D01*
X108313072Y-133570000D01*
X108297929Y-133416255D01*
X108253084Y-133268418D01*
X108180258Y-133132171D01*
X108082251Y-133012749D01*
X107962829Y-132914742D01*
X107826582Y-132841916D01*
X107678745Y-132797071D01*
X107525000Y-132781928D01*
X106786730Y-132781928D01*
X105464801Y-131460000D01*
X139167721Y-131460000D01*
X139653893Y-131507670D01*
X140090498Y-131639489D01*
X140493185Y-131853600D01*
X140846612Y-132141848D01*
X141137327Y-132493261D01*
X141354242Y-132894439D01*
X141489106Y-133330113D01*
X141540001Y-133814353D01*
X141540000Y-166167721D01*
X141492330Y-166653894D01*
X141360512Y-167090497D01*
X141146399Y-167493186D01*
X140858150Y-167846613D01*
X140506739Y-168137327D01*
X140105564Y-168354240D01*
X139669886Y-168489106D01*
X139185664Y-168540000D01*
X82532279Y-168540000D01*
X82046106Y-168492330D01*
X81609503Y-168360512D01*
X81206814Y-168146399D01*
X80853387Y-167858150D01*
X80562673Y-167506739D01*
X80345760Y-167105564D01*
X80210894Y-166669886D01*
X80160000Y-166185664D01*
X80160000Y-166029117D01*
X80765000Y-166029117D01*
X80765000Y-166370883D01*
X80831675Y-166706081D01*
X80962463Y-167021831D01*
X81152337Y-167305998D01*
X81394002Y-167547663D01*
X81678169Y-167737537D01*
X81993919Y-167868325D01*
X82329117Y-167935000D01*
X82670883Y-167935000D01*
X83006081Y-167868325D01*
X83321831Y-167737537D01*
X83605998Y-167547663D01*
X83847663Y-167305998D01*
X84037537Y-167021831D01*
X84168325Y-166706081D01*
X84235000Y-166370883D01*
X84235000Y-166029117D01*
X84168325Y-165693919D01*
X84037537Y-165378169D01*
X83847663Y-165094002D01*
X83605998Y-164852337D01*
X83321831Y-164662463D01*
X83006081Y-164531675D01*
X82670883Y-164465000D01*
X82329117Y-164465000D01*
X81993919Y-164531675D01*
X81678169Y-164662463D01*
X81394002Y-164852337D01*
X81152337Y-165094002D01*
X80962463Y-165378169D01*
X80831675Y-165693919D01*
X80765000Y-166029117D01*
X80160000Y-166029117D01*
X80160000Y-133832279D01*
X80179920Y-133629117D01*
X80765000Y-133629117D01*
X80765000Y-133970883D01*
X80831675Y-134306081D01*
X80962463Y-134621831D01*
X81152337Y-134905998D01*
X81394002Y-135147663D01*
X81678169Y-135337537D01*
X81993919Y-135468325D01*
X82329117Y-135535000D01*
X82670883Y-135535000D01*
X83006081Y-135468325D01*
X83321831Y-135337537D01*
X83605998Y-135147663D01*
X83847663Y-134905998D01*
X84037537Y-134621831D01*
X84168325Y-134306081D01*
X84235000Y-133970883D01*
X84235000Y-133629117D01*
X84168325Y-133293919D01*
X84037537Y-132978169D01*
X83847663Y-132694002D01*
X83605998Y-132452337D01*
X83321831Y-132262463D01*
X83006081Y-132131675D01*
X82670883Y-132065000D01*
X82329117Y-132065000D01*
X81993919Y-132131675D01*
X81678169Y-132262463D01*
X81394002Y-132452337D01*
X81152337Y-132694002D01*
X80962463Y-132978169D01*
X80831675Y-133293919D01*
X80765000Y-133629117D01*
X80179920Y-133629117D01*
X80207670Y-133346107D01*
X80339489Y-132909502D01*
X80553600Y-132506815D01*
X80841848Y-132153388D01*
X81193261Y-131862673D01*
X81594439Y-131645758D01*
X82030113Y-131510894D01*
X82514344Y-131460000D01*
X90536698Y-131460000D01*
X84201103Y-137795596D01*
G37*
X84201103Y-137795596D02*
X84172099Y-137819399D01*
X84127135Y-137874188D01*
X84077126Y-137935124D01*
X84015190Y-138050997D01*
X84006554Y-138067154D01*
X83963097Y-138210415D01*
X83952100Y-138322068D01*
X83952100Y-138322078D01*
X83948424Y-138359400D01*
X83952100Y-138396722D01*
X83952101Y-159225467D01*
X83948424Y-159262800D01*
X83963098Y-159411785D01*
X84006554Y-159555046D01*
X84077126Y-159687076D01*
X84145596Y-159770506D01*
X84172100Y-159802801D01*
X84201098Y-159826599D01*
X89175101Y-164800603D01*
X89198899Y-164829601D01*
X89314624Y-164924574D01*
X89446653Y-164995146D01*
X89589914Y-165038603D01*
X89701567Y-165049600D01*
X89701575Y-165049600D01*
X89738900Y-165053276D01*
X89776225Y-165049600D01*
X98011978Y-165049600D01*
X98049300Y-165053276D01*
X98086622Y-165049600D01*
X98086633Y-165049600D01*
X98198286Y-165038603D01*
X98341547Y-164995146D01*
X98473576Y-164924574D01*
X98589301Y-164829601D01*
X98613104Y-164800597D01*
X99603434Y-163810268D01*
X99670986Y-163865706D01*
X99928966Y-164003599D01*
X100208889Y-164088513D01*
X100500000Y-164117185D01*
X100791110Y-164088513D01*
X101071033Y-164003599D01*
X101329013Y-163865706D01*
X101555134Y-163680134D01*
X101607223Y-163616663D01*
X101661595Y-163718386D01*
X101772038Y-163852962D01*
X101906614Y-163963405D01*
X102060150Y-164045472D01*
X102226746Y-164096008D01*
X102400000Y-164113072D01*
X103600000Y-164113072D01*
X103773254Y-164096008D01*
X103939850Y-164045472D01*
X104093386Y-163963405D01*
X104227962Y-163852962D01*
X104338405Y-163718386D01*
X104420472Y-163564850D01*
X104471008Y-163398254D01*
X104488072Y-163225000D01*
X104488072Y-161775000D01*
X104471008Y-161601746D01*
X104420472Y-161435150D01*
X104338405Y-161281614D01*
X104227962Y-161147038D01*
X104093386Y-161036595D01*
X103939850Y-160954528D01*
X103773254Y-160903992D01*
X103600000Y-160886928D01*
X102400000Y-160886928D01*
X102226746Y-160903992D01*
X102060150Y-160954528D01*
X101906614Y-161036595D01*
X101772038Y-161147038D01*
X101661595Y-161281614D01*
X101607223Y-161383337D01*
X101555134Y-161319866D01*
X101329014Y-161134294D01*
X101071034Y-160996401D01*
X100791111Y-160911487D01*
X100500000Y-160882815D01*
X100208890Y-160911487D01*
X99928967Y-160996401D01*
X99670987Y-161134294D01*
X99444866Y-161319866D01*
X99259294Y-161545986D01*
X99250000Y-161563374D01*
X99240706Y-161545986D01*
X99055134Y-161319866D01*
X98829014Y-161134294D01*
X98571034Y-160996401D01*
X98291111Y-160911487D01*
X98000000Y-160882815D01*
X97708890Y-160911487D01*
X97428967Y-160996401D01*
X97170987Y-161134294D01*
X96944866Y-161319866D01*
X96759294Y-161545986D01*
X96750000Y-161563374D01*
X96740706Y-161545986D01*
X96555134Y-161319866D01*
X96329014Y-161134294D01*
X96071034Y-160996401D01*
X95791111Y-160911487D01*
X95500000Y-160882815D01*
X95208890Y-160911487D01*
X94928967Y-160996401D01*
X94670987Y-161134294D01*
X94444866Y-161319866D01*
X94259294Y-161545986D01*
X94250000Y-161563374D01*
X94240706Y-161545986D01*
X94055134Y-161319866D01*
X93829014Y-161134294D01*
X93571034Y-160996401D01*
X93291111Y-160911487D01*
X93000000Y-160882815D01*
X92708890Y-160911487D01*
X92428967Y-160996401D01*
X92170987Y-161134294D01*
X91944866Y-161319866D01*
X91759294Y-161545986D01*
X91745538Y-161571722D01*
X91589049Y-161365571D01*
X91371193Y-161172504D01*
X91119858Y-161025648D01*
X90856890Y-160933524D01*
X90627000Y-161054845D01*
X90627000Y-162373000D01*
X90647000Y-162373000D01*
X90647000Y-162627000D01*
X90627000Y-162627000D01*
X90627000Y-162647000D01*
X90373000Y-162647000D01*
X90373000Y-162627000D01*
X90353000Y-162627000D01*
X90353000Y-162373000D01*
X90373000Y-162373000D01*
X90373000Y-161054845D01*
X90143110Y-160933524D01*
X89880142Y-161025648D01*
X89628807Y-161172504D01*
X89410951Y-161365571D01*
X89234947Y-161597430D01*
X89118529Y-161836628D01*
X87656901Y-160375000D01*
X111561928Y-160375000D01*
X111561928Y-161625000D01*
X111578992Y-161798254D01*
X111629528Y-161964850D01*
X111711595Y-162118386D01*
X111822038Y-162252962D01*
X111956614Y-162363405D01*
X112110150Y-162445472D01*
X112276746Y-162496008D01*
X112450000Y-162513072D01*
X113350771Y-162513072D01*
X118536205Y-167698508D01*
X118559999Y-167727501D01*
X118588992Y-167751295D01*
X118588996Y-167751299D01*
X118659685Y-167809311D01*
X118675724Y-167822474D01*
X118807753Y-167893046D01*
X118951014Y-167936503D01*
X119062667Y-167947500D01*
X119062676Y-167947500D01*
X119099999Y-167951176D01*
X119137322Y-167947500D01*
X119141681Y-167947500D01*
X119154528Y-167989850D01*
X119236595Y-168143386D01*
X119347038Y-168277962D01*
X119481614Y-168388405D01*
X119635150Y-168470472D01*
X119801746Y-168521008D01*
X119975000Y-168538072D01*
X121225000Y-168538072D01*
X121398254Y-168521008D01*
X121564850Y-168470472D01*
X121718386Y-168388405D01*
X121852962Y-168277962D01*
X121963405Y-168143386D01*
X122045472Y-167989850D01*
X122096008Y-167823254D01*
X122113072Y-167650000D01*
X122113072Y-166725000D01*
X122096008Y-166551746D01*
X122045472Y-166385150D01*
X121963405Y-166231614D01*
X121852962Y-166097038D01*
X121770200Y-166029117D01*
X137465000Y-166029117D01*
X137465000Y-166370883D01*
X137531675Y-166706081D01*
X137662463Y-167021831D01*
X137852337Y-167305998D01*
X138094002Y-167547663D01*
X138378169Y-167737537D01*
X138693919Y-167868325D01*
X139029117Y-167935000D01*
X139370883Y-167935000D01*
X139706081Y-167868325D01*
X140021831Y-167737537D01*
X140305998Y-167547663D01*
X140547663Y-167305998D01*
X140737537Y-167021831D01*
X140868325Y-166706081D01*
X140935000Y-166370883D01*
X140935000Y-166029117D01*
X140868325Y-165693919D01*
X140737537Y-165378169D01*
X140547663Y-165094002D01*
X140305998Y-164852337D01*
X140021831Y-164662463D01*
X139706081Y-164531675D01*
X139370883Y-164465000D01*
X139029117Y-164465000D01*
X138693919Y-164531675D01*
X138378169Y-164662463D01*
X138094002Y-164852337D01*
X137852337Y-165094002D01*
X137662463Y-165378169D01*
X137531675Y-165693919D01*
X137465000Y-166029117D01*
X121770200Y-166029117D01*
X121718386Y-165986595D01*
X121564850Y-165904528D01*
X121398254Y-165853992D01*
X121225000Y-165836928D01*
X119975000Y-165836928D01*
X119801746Y-165853992D01*
X119635150Y-165904528D01*
X119481614Y-165986595D01*
X119347038Y-166097038D01*
X119236595Y-166231614D01*
X119230437Y-166243134D01*
X115498048Y-162510747D01*
X115601750Y-162510000D01*
X115760500Y-162351250D01*
X115760500Y-161127000D01*
X116014500Y-161127000D01*
X116014500Y-162351250D01*
X116173250Y-162510000D01*
X116600000Y-162513072D01*
X116724482Y-162500812D01*
X116844180Y-162464502D01*
X116954494Y-162405537D01*
X117051185Y-162326185D01*
X117130537Y-162229494D01*
X117189502Y-162119180D01*
X117225812Y-161999482D01*
X117238072Y-161875000D01*
X117235000Y-161285750D01*
X117076250Y-161127000D01*
X116014500Y-161127000D01*
X115760500Y-161127000D01*
X114698750Y-161127000D01*
X114540000Y-161285750D01*
X114538616Y-161551314D01*
X114263072Y-161275771D01*
X114263072Y-160375000D01*
X114246008Y-160201746D01*
X114222728Y-160125000D01*
X114536928Y-160125000D01*
X114540000Y-160714250D01*
X114698750Y-160873000D01*
X115760500Y-160873000D01*
X115760500Y-159648750D01*
X116014500Y-159648750D01*
X116014500Y-160873000D01*
X117076250Y-160873000D01*
X117235000Y-160714250D01*
X117238072Y-160125000D01*
X117225812Y-160000518D01*
X117189502Y-159880820D01*
X117130537Y-159770506D01*
X117051185Y-159673815D01*
X116954494Y-159594463D01*
X116844180Y-159535498D01*
X116724482Y-159499188D01*
X116600000Y-159486928D01*
X116173250Y-159490000D01*
X116014500Y-159648750D01*
X115760500Y-159648750D01*
X115601750Y-159490000D01*
X115175000Y-159486928D01*
X115050518Y-159499188D01*
X114930820Y-159535498D01*
X114820506Y-159594463D01*
X114723815Y-159673815D01*
X114644463Y-159770506D01*
X114585498Y-159880820D01*
X114549188Y-160000518D01*
X114536928Y-160125000D01*
X114222728Y-160125000D01*
X114195472Y-160035150D01*
X114113405Y-159881614D01*
X114002962Y-159747038D01*
X113868386Y-159636595D01*
X113714850Y-159554528D01*
X113548254Y-159503992D01*
X113375000Y-159486928D01*
X112450000Y-159486928D01*
X112276746Y-159503992D01*
X112110150Y-159554528D01*
X111956614Y-159636595D01*
X111822038Y-159747038D01*
X111711595Y-159881614D01*
X111629528Y-160035150D01*
X111578992Y-160201746D01*
X111561928Y-160375000D01*
X87656901Y-160375000D01*
X85922500Y-158640599D01*
X85922500Y-158425000D01*
X117136928Y-158425000D01*
X117149188Y-158549482D01*
X117185498Y-158669180D01*
X117244463Y-158779494D01*
X117323815Y-158876185D01*
X117420506Y-158955537D01*
X117530820Y-159014502D01*
X117650518Y-159050812D01*
X117775000Y-159063072D01*
X118014250Y-159060000D01*
X118173000Y-158901250D01*
X118173000Y-157902000D01*
X118427000Y-157902000D01*
X118427000Y-158901250D01*
X118585750Y-159060000D01*
X118825000Y-159063072D01*
X118949482Y-159050812D01*
X119069180Y-159014502D01*
X119179494Y-158955537D01*
X119276185Y-158876185D01*
X119355537Y-158779494D01*
X119414502Y-158669180D01*
X119450812Y-158549482D01*
X119463072Y-158425000D01*
X119460000Y-158060750D01*
X119301250Y-157902000D01*
X118427000Y-157902000D01*
X118173000Y-157902000D01*
X117298750Y-157902000D01*
X117140000Y-158060750D01*
X117136928Y-158425000D01*
X85922500Y-158425000D01*
X85922500Y-157550000D01*
X112511928Y-157550000D01*
X112524188Y-157674482D01*
X112560498Y-157794180D01*
X112619463Y-157904494D01*
X112698815Y-158001185D01*
X112795506Y-158080537D01*
X112905820Y-158139502D01*
X113025518Y-158175812D01*
X113150000Y-158188072D01*
X113864250Y-158185000D01*
X114023000Y-158026250D01*
X114023000Y-156927000D01*
X114277000Y-156927000D01*
X114277000Y-158026250D01*
X114435750Y-158185000D01*
X115150000Y-158188072D01*
X115274482Y-158175812D01*
X115394180Y-158139502D01*
X115504494Y-158080537D01*
X115601185Y-158001185D01*
X115680537Y-157904494D01*
X115739502Y-157794180D01*
X115775812Y-157674482D01*
X115788072Y-157550000D01*
X115785000Y-157085750D01*
X115626250Y-156927000D01*
X114277000Y-156927000D01*
X114023000Y-156927000D01*
X112673750Y-156927000D01*
X112515000Y-157085750D01*
X112511928Y-157550000D01*
X85922500Y-157550000D01*
X85922500Y-152388072D01*
X87225000Y-152388072D01*
X87398254Y-152371008D01*
X87564850Y-152320472D01*
X87718386Y-152238405D01*
X87852962Y-152127962D01*
X87963405Y-151993386D01*
X88045472Y-151839850D01*
X88096008Y-151673254D01*
X88113072Y-151500000D01*
X88113072Y-150300000D01*
X88096008Y-150126746D01*
X88045472Y-149960150D01*
X87963405Y-149806614D01*
X87852962Y-149672038D01*
X87718386Y-149561595D01*
X87616663Y-149507223D01*
X87680134Y-149455134D01*
X87865706Y-149229014D01*
X87902595Y-149160000D01*
X90237378Y-149160000D01*
X90274700Y-149163676D01*
X90312022Y-149160000D01*
X90312033Y-149160000D01*
X90423686Y-149149003D01*
X90566947Y-149105546D01*
X90698976Y-149034974D01*
X90814701Y-148940001D01*
X90838504Y-148910997D01*
X91860053Y-147889449D01*
X91985241Y-148014637D01*
X92217759Y-148170000D01*
X91985241Y-148325363D01*
X91785363Y-148525241D01*
X91628320Y-148760273D01*
X91520147Y-149021426D01*
X91465000Y-149298665D01*
X91465000Y-149581335D01*
X91520147Y-149858574D01*
X91628320Y-150119727D01*
X91785363Y-150354759D01*
X91985241Y-150554637D01*
X92217759Y-150710000D01*
X91985241Y-150865363D01*
X91785363Y-151065241D01*
X91628320Y-151300273D01*
X91520147Y-151561426D01*
X91465000Y-151838665D01*
X91465000Y-152121335D01*
X91520147Y-152398574D01*
X91628320Y-152659727D01*
X91785363Y-152894759D01*
X91985241Y-153094637D01*
X92220273Y-153251680D01*
X92481426Y-153359853D01*
X92758665Y-153415000D01*
X93041335Y-153415000D01*
X93318574Y-153359853D01*
X93579727Y-153251680D01*
X93814759Y-153094637D01*
X94014637Y-152894759D01*
X94171680Y-152659727D01*
X94279853Y-152398574D01*
X94335000Y-152121335D01*
X94335000Y-151838665D01*
X94279853Y-151561426D01*
X94171680Y-151300273D01*
X94014637Y-151065241D01*
X93814759Y-150865363D01*
X93582241Y-150710000D01*
X93814759Y-150554637D01*
X94014637Y-150354759D01*
X94171680Y-150119727D01*
X94279853Y-149858574D01*
X94335000Y-149581335D01*
X94335000Y-149298665D01*
X94279853Y-149021426D01*
X94171680Y-148760273D01*
X94014637Y-148525241D01*
X93814759Y-148325363D01*
X93582241Y-148170000D01*
X93814759Y-148014637D01*
X94014637Y-147814759D01*
X94171680Y-147579727D01*
X94279853Y-147318574D01*
X94335000Y-147041335D01*
X94335000Y-146758665D01*
X94279853Y-146481426D01*
X94171680Y-146220273D01*
X94014637Y-145985241D01*
X93814759Y-145785363D01*
X93579727Y-145628320D01*
X93569135Y-145623933D01*
X93755131Y-145512385D01*
X93963519Y-145323414D01*
X94131037Y-145097420D01*
X94251246Y-144843087D01*
X94291904Y-144709039D01*
X94169915Y-144487000D01*
X93027000Y-144487000D01*
X93027000Y-144507000D01*
X92773000Y-144507000D01*
X92773000Y-144487000D01*
X91630085Y-144487000D01*
X91508096Y-144709039D01*
X91548754Y-144843087D01*
X91668963Y-145097420D01*
X91836481Y-145323414D01*
X92044869Y-145512385D01*
X92230865Y-145623933D01*
X92220273Y-145628320D01*
X91985241Y-145785363D01*
X91785363Y-145985241D01*
X91678053Y-146145842D01*
X91625714Y-146150997D01*
X91482453Y-146194454D01*
X91350424Y-146265026D01*
X91234699Y-146359999D01*
X91210901Y-146388997D01*
X89959899Y-147640000D01*
X87902595Y-147640000D01*
X87865706Y-147570986D01*
X87680134Y-147344866D01*
X87454014Y-147159294D01*
X87436626Y-147150000D01*
X87454014Y-147140706D01*
X87680134Y-146955134D01*
X87865706Y-146729014D01*
X88003599Y-146471034D01*
X88088513Y-146191111D01*
X88117185Y-145900000D01*
X88088513Y-145608889D01*
X88003599Y-145328966D01*
X87865706Y-145070986D01*
X87680134Y-144844866D01*
X87454014Y-144659294D01*
X87436626Y-144650000D01*
X87454014Y-144640706D01*
X87680134Y-144455134D01*
X87865706Y-144229014D01*
X88003599Y-143971034D01*
X88088513Y-143691111D01*
X88117185Y-143400000D01*
X88088513Y-143108889D01*
X88003599Y-142828966D01*
X87865706Y-142570986D01*
X87680134Y-142344866D01*
X87465889Y-142169039D01*
X91508096Y-142169039D01*
X91548754Y-142303087D01*
X91668963Y-142557420D01*
X91836481Y-142783414D01*
X92044869Y-142972385D01*
X92240982Y-143090000D01*
X92044869Y-143207615D01*
X91836481Y-143396586D01*
X91668963Y-143622580D01*
X91548754Y-143876913D01*
X91508096Y-144010961D01*
X91630085Y-144233000D01*
X92773000Y-144233000D01*
X92773000Y-141947000D01*
X93027000Y-141947000D01*
X93027000Y-144233000D01*
X94169915Y-144233000D01*
X94291904Y-144010961D01*
X94251246Y-143876913D01*
X94131037Y-143622580D01*
X93963519Y-143396586D01*
X93755131Y-143207615D01*
X93559018Y-143090000D01*
X93755131Y-142972385D01*
X93963519Y-142783414D01*
X94131037Y-142557420D01*
X94251246Y-142303087D01*
X94291904Y-142169039D01*
X94169915Y-141947000D01*
X93027000Y-141947000D01*
X92773000Y-141947000D01*
X91630085Y-141947000D01*
X91508096Y-142169039D01*
X87465889Y-142169039D01*
X87454014Y-142159294D01*
X87260000Y-142055591D01*
X87260000Y-138160101D01*
X88806089Y-136614013D01*
X88865026Y-136724276D01*
X88904871Y-136772826D01*
X88959999Y-136840001D01*
X88989003Y-136863804D01*
X89376196Y-137250997D01*
X89399999Y-137280001D01*
X89466160Y-137334298D01*
X89515723Y-137374974D01*
X89607068Y-137423799D01*
X89647753Y-137445546D01*
X89791014Y-137489003D01*
X89902667Y-137500000D01*
X89902677Y-137500000D01*
X89940000Y-137503676D01*
X89977323Y-137500000D01*
X91681957Y-137500000D01*
X91785363Y-137654759D01*
X91985241Y-137854637D01*
X92217759Y-138010000D01*
X91985241Y-138165363D01*
X91785363Y-138365241D01*
X91628320Y-138600273D01*
X91520147Y-138861426D01*
X91465000Y-139138665D01*
X91465000Y-139421335D01*
X91520147Y-139698574D01*
X91628320Y-139959727D01*
X91785363Y-140194759D01*
X91985241Y-140394637D01*
X92220273Y-140551680D01*
X92230865Y-140556067D01*
X92044869Y-140667615D01*
X91836481Y-140856586D01*
X91668963Y-141082580D01*
X91548754Y-141336913D01*
X91508096Y-141470961D01*
X91630085Y-141693000D01*
X92773000Y-141693000D01*
X92773000Y-141673000D01*
X93027000Y-141673000D01*
X93027000Y-141693000D01*
X94169915Y-141693000D01*
X94291904Y-141470961D01*
X94251246Y-141336913D01*
X94131037Y-141082580D01*
X93963519Y-140856586D01*
X93755131Y-140667615D01*
X93569135Y-140556067D01*
X93579727Y-140551680D01*
X93814759Y-140394637D01*
X94014637Y-140194759D01*
X94171680Y-139959727D01*
X94279853Y-139698574D01*
X94335000Y-139421335D01*
X94335000Y-139138665D01*
X94279853Y-138861426D01*
X94171680Y-138600273D01*
X94014637Y-138365241D01*
X93814759Y-138165363D01*
X93582241Y-138010000D01*
X93814759Y-137854637D01*
X94014637Y-137654759D01*
X94171680Y-137419727D01*
X94279853Y-137158574D01*
X94335000Y-136881335D01*
X94335000Y-136598665D01*
X94279853Y-136321426D01*
X94171680Y-136060273D01*
X94014637Y-135825241D01*
X93816039Y-135626643D01*
X93824482Y-135625812D01*
X93944180Y-135589502D01*
X94054494Y-135530537D01*
X94151185Y-135451185D01*
X94230537Y-135354494D01*
X94289502Y-135244180D01*
X94325812Y-135124482D01*
X94329701Y-135085000D01*
X94433422Y-135085000D01*
X95215000Y-135866579D01*
X95215001Y-150256521D01*
X95210719Y-150300000D01*
X95227805Y-150473490D01*
X95278412Y-150640313D01*
X95360590Y-150794059D01*
X95443468Y-150895046D01*
X95443471Y-150895049D01*
X95471184Y-150928817D01*
X95504951Y-150956529D01*
X97123470Y-152575049D01*
X97151183Y-152608817D01*
X97184951Y-152636530D01*
X97184953Y-152636532D01*
X97250416Y-152690256D01*
X97285941Y-152719411D01*
X97439687Y-152801589D01*
X97606510Y-152852195D01*
X97736523Y-152865000D01*
X97736531Y-152865000D01*
X97780000Y-152869281D01*
X97823469Y-152865000D01*
X99385479Y-152865000D01*
X99405363Y-152894759D01*
X99605241Y-153094637D01*
X99840273Y-153251680D01*
X100101426Y-153359853D01*
X100378665Y-153415000D01*
X100661335Y-153415000D01*
X100696439Y-153408017D01*
X102383470Y-155095049D01*
X102411183Y-155128817D01*
X102444951Y-155156530D01*
X102444953Y-155156532D01*
X102453462Y-155163515D01*
X102545941Y-155239411D01*
X102699687Y-155321589D01*
X102866510Y-155372195D01*
X102996523Y-155385000D01*
X102996533Y-155385000D01*
X103039999Y-155389281D01*
X103083465Y-155385000D01*
X106211928Y-155385000D01*
X106211928Y-156400000D01*
X106224188Y-156524482D01*
X106260498Y-156644180D01*
X106319463Y-156754494D01*
X106398815Y-156851185D01*
X106495506Y-156930537D01*
X106605820Y-156989502D01*
X106725518Y-157025812D01*
X106850000Y-157038072D01*
X108850000Y-157038072D01*
X108974482Y-157025812D01*
X109094180Y-156989502D01*
X109204494Y-156930537D01*
X109301185Y-156851185D01*
X109380537Y-156754494D01*
X109439502Y-156644180D01*
X109475812Y-156524482D01*
X109488072Y-156400000D01*
X109488072Y-155385000D01*
X112527379Y-155385000D01*
X112560498Y-155494180D01*
X112619463Y-155604494D01*
X112656809Y-155650000D01*
X112619463Y-155695506D01*
X112560498Y-155805820D01*
X112524188Y-155925518D01*
X112511928Y-156050000D01*
X112515000Y-156514250D01*
X112673750Y-156673000D01*
X114023000Y-156673000D01*
X114023000Y-156653000D01*
X114277000Y-156653000D01*
X114277000Y-156673000D01*
X115626250Y-156673000D01*
X115785000Y-156514250D01*
X115788072Y-156050000D01*
X115775812Y-155925518D01*
X115739502Y-155805820D01*
X115680537Y-155695506D01*
X115643191Y-155650000D01*
X115680537Y-155604494D01*
X115739502Y-155494180D01*
X115772621Y-155385000D01*
X117140868Y-155385000D01*
X117136928Y-155424999D01*
X117136928Y-156225001D01*
X117153992Y-156398255D01*
X117204528Y-156564851D01*
X117286595Y-156718387D01*
X117286915Y-156718777D01*
X117244463Y-156770506D01*
X117185498Y-156880820D01*
X117149188Y-157000518D01*
X117136928Y-157125000D01*
X117140000Y-157489250D01*
X117298750Y-157648000D01*
X118173000Y-157648000D01*
X118173000Y-157628000D01*
X118427000Y-157628000D01*
X118427000Y-157648000D01*
X119301250Y-157648000D01*
X119430974Y-157518276D01*
X119840000Y-157927302D01*
X119840001Y-162875224D01*
X119801746Y-162878992D01*
X119635150Y-162929528D01*
X119481614Y-163011595D01*
X119347038Y-163122038D01*
X119236595Y-163256614D01*
X119154528Y-163410150D01*
X119103992Y-163576746D01*
X119086928Y-163750000D01*
X119086928Y-164675000D01*
X119103992Y-164848254D01*
X119154528Y-165014850D01*
X119236595Y-165168386D01*
X119347038Y-165302962D01*
X119481614Y-165413405D01*
X119635150Y-165495472D01*
X119801746Y-165546008D01*
X119975000Y-165563072D01*
X121225000Y-165563072D01*
X121398254Y-165546008D01*
X121564850Y-165495472D01*
X121718386Y-165413405D01*
X121852962Y-165302962D01*
X121963405Y-165168386D01*
X122045472Y-165014850D01*
X122096008Y-164848254D01*
X122113072Y-164675000D01*
X122113072Y-163750000D01*
X122096008Y-163576746D01*
X122045472Y-163410150D01*
X121963405Y-163256614D01*
X121852962Y-163122038D01*
X121718386Y-163011595D01*
X121564850Y-162929528D01*
X121398254Y-162878992D01*
X121360000Y-162875224D01*
X121360000Y-162359742D01*
X125328715Y-162359742D01*
X125397904Y-162642745D01*
X125520975Y-162906812D01*
X125693198Y-163141795D01*
X125907954Y-163338664D01*
X126156991Y-163489854D01*
X126430739Y-163589554D01*
X126443110Y-163591476D01*
X126673000Y-163470155D01*
X126673000Y-162127000D01*
X125472768Y-162127000D01*
X125328715Y-162359742D01*
X121360000Y-162359742D01*
X121360000Y-161640258D01*
X125328715Y-161640258D01*
X125472768Y-161873000D01*
X126673000Y-161873000D01*
X126673000Y-160529845D01*
X126443110Y-160408524D01*
X126430739Y-160410446D01*
X126156991Y-160510146D01*
X125907954Y-160661336D01*
X125693198Y-160858205D01*
X125520975Y-161093188D01*
X125397904Y-161357255D01*
X125328715Y-161640258D01*
X121360000Y-161640258D01*
X121360000Y-157649822D01*
X121363676Y-157612499D01*
X121360000Y-157575176D01*
X121360000Y-157575167D01*
X121349003Y-157463514D01*
X121305546Y-157320253D01*
X121234974Y-157188224D01*
X121140001Y-157072499D01*
X121111004Y-157048702D01*
X119460425Y-155398124D01*
X119446008Y-155251745D01*
X119395472Y-155085149D01*
X119313405Y-154931613D01*
X119202962Y-154797038D01*
X119187761Y-154784563D01*
X119185000Y-154756533D01*
X119185000Y-154756523D01*
X119172195Y-154626510D01*
X119121589Y-154459687D01*
X119039411Y-154305941D01*
X118928817Y-154171183D01*
X118895044Y-154143466D01*
X118656534Y-153904956D01*
X118628817Y-153871183D01*
X118494059Y-153760589D01*
X118340313Y-153678411D01*
X118173490Y-153627805D01*
X118043477Y-153615000D01*
X118043469Y-153615000D01*
X118000000Y-153610719D01*
X117956531Y-153615000D01*
X115772621Y-153615000D01*
X115739502Y-153505820D01*
X115680537Y-153395506D01*
X115643191Y-153350000D01*
X115680537Y-153304494D01*
X115739502Y-153194180D01*
X115775812Y-153074482D01*
X115784625Y-152985000D01*
X120145479Y-152985000D01*
X120165363Y-153014759D01*
X120365241Y-153214637D01*
X120600273Y-153371680D01*
X120861426Y-153479853D01*
X121138665Y-153535000D01*
X121421335Y-153535000D01*
X121698574Y-153479853D01*
X121959727Y-153371680D01*
X122194759Y-153214637D01*
X122394637Y-153014759D01*
X122414521Y-152985000D01*
X123433422Y-152985000D01*
X128415000Y-157966579D01*
X128415001Y-160412889D01*
X128360150Y-160429528D01*
X128206614Y-160511595D01*
X128072038Y-160622038D01*
X127961595Y-160756614D01*
X127907086Y-160858593D01*
X127906802Y-160858205D01*
X127692046Y-160661336D01*
X127443009Y-160510146D01*
X127169261Y-160410446D01*
X127156890Y-160408524D01*
X126927000Y-160529845D01*
X126927000Y-161873000D01*
X126947000Y-161873000D01*
X126947000Y-162127000D01*
X126927000Y-162127000D01*
X126927000Y-163470155D01*
X127156890Y-163591476D01*
X127169261Y-163589554D01*
X127443009Y-163489854D01*
X127692046Y-163338664D01*
X127906802Y-163141795D01*
X127907086Y-163141407D01*
X127961595Y-163243386D01*
X128072038Y-163377962D01*
X128206614Y-163488405D01*
X128360150Y-163570472D01*
X128526746Y-163621008D01*
X128700000Y-163638072D01*
X129900000Y-163638072D01*
X130073254Y-163621008D01*
X130239850Y-163570472D01*
X130393386Y-163488405D01*
X130527962Y-163377962D01*
X130638405Y-163243386D01*
X130720472Y-163089850D01*
X130771008Y-162923254D01*
X130788072Y-162750000D01*
X130788072Y-161250000D01*
X130771008Y-161076746D01*
X130720472Y-160910150D01*
X130638405Y-160756614D01*
X130527962Y-160622038D01*
X130393386Y-160511595D01*
X130239850Y-160429528D01*
X130185000Y-160412890D01*
X130185000Y-157643469D01*
X130189281Y-157600000D01*
X130185000Y-157556531D01*
X130185000Y-157556523D01*
X130172195Y-157426510D01*
X130139962Y-157320253D01*
X130121589Y-157259686D01*
X130039411Y-157105941D01*
X129956532Y-157004953D01*
X129956530Y-157004951D01*
X129928817Y-156971183D01*
X129895051Y-156943472D01*
X127425979Y-154474400D01*
X133623578Y-154474400D01*
X133660900Y-154478076D01*
X133698222Y-154474400D01*
X133698233Y-154474400D01*
X133809886Y-154463403D01*
X133953147Y-154419946D01*
X134085176Y-154349374D01*
X134200901Y-154254401D01*
X134224703Y-154225398D01*
X135811008Y-152639095D01*
X135840001Y-152615301D01*
X135863795Y-152586308D01*
X135863799Y-152586304D01*
X135934973Y-152499577D01*
X135934974Y-152499576D01*
X136005546Y-152367547D01*
X136039590Y-152255318D01*
X136254014Y-152140706D01*
X136480134Y-151955134D01*
X136665706Y-151729014D01*
X136803599Y-151471034D01*
X136888513Y-151191111D01*
X136917185Y-150900000D01*
X136888513Y-150608889D01*
X136803599Y-150328966D01*
X136665706Y-150070986D01*
X136480134Y-149844866D01*
X136254014Y-149659294D01*
X136236626Y-149650000D01*
X136254014Y-149640706D01*
X136480134Y-149455134D01*
X136665706Y-149229014D01*
X136803599Y-148971034D01*
X136888513Y-148691111D01*
X136917185Y-148400000D01*
X136888513Y-148108889D01*
X136803599Y-147828966D01*
X136665706Y-147570986D01*
X136480134Y-147344866D01*
X136254014Y-147159294D01*
X136236626Y-147150000D01*
X136254014Y-147140706D01*
X136480134Y-146955134D01*
X136665706Y-146729014D01*
X136803599Y-146471034D01*
X136888513Y-146191111D01*
X136917185Y-145900000D01*
X136888513Y-145608889D01*
X136803599Y-145328966D01*
X136665706Y-145070986D01*
X136480134Y-144844866D01*
X136416663Y-144792777D01*
X136518386Y-144738405D01*
X136652962Y-144627962D01*
X136763405Y-144493386D01*
X136845472Y-144339850D01*
X136896008Y-144173254D01*
X136913072Y-144000000D01*
X136913072Y-142800000D01*
X136896008Y-142626746D01*
X136845472Y-142460150D01*
X136763405Y-142306614D01*
X136652962Y-142172038D01*
X136518386Y-142061595D01*
X136364850Y-141979528D01*
X136198254Y-141928992D01*
X136025000Y-141911928D01*
X134575000Y-141911928D01*
X134401746Y-141928992D01*
X134235150Y-141979528D01*
X134081614Y-142061595D01*
X133947038Y-142172038D01*
X133836595Y-142306614D01*
X133754528Y-142460150D01*
X133703992Y-142626746D01*
X133686928Y-142800000D01*
X133686928Y-142860126D01*
X130785300Y-139958499D01*
X130785300Y-139437333D01*
X130788977Y-139400000D01*
X130774303Y-139251014D01*
X130730846Y-139107753D01*
X130660274Y-138975724D01*
X130565301Y-138859999D01*
X130449576Y-138765026D01*
X130317547Y-138694454D01*
X130174286Y-138650997D01*
X130121947Y-138645842D01*
X130014637Y-138485241D01*
X129814759Y-138285363D01*
X129582241Y-138130000D01*
X129814759Y-137974637D01*
X130014637Y-137774759D01*
X130171680Y-137539727D01*
X130279853Y-137278574D01*
X130335000Y-137001335D01*
X130335000Y-136718665D01*
X130279853Y-136441426D01*
X130171680Y-136180273D01*
X130014637Y-135945241D01*
X129814759Y-135745363D01*
X129582241Y-135590000D01*
X129814759Y-135434637D01*
X130014637Y-135234759D01*
X130171680Y-134999727D01*
X130279853Y-134738574D01*
X130335000Y-134461335D01*
X130335000Y-134178665D01*
X130279853Y-133901426D01*
X130171680Y-133640273D01*
X130164226Y-133629117D01*
X137365000Y-133629117D01*
X137365000Y-133970883D01*
X137431675Y-134306081D01*
X137562463Y-134621831D01*
X137752337Y-134905998D01*
X137994002Y-135147663D01*
X138278169Y-135337537D01*
X138593919Y-135468325D01*
X138929117Y-135535000D01*
X139270883Y-135535000D01*
X139606081Y-135468325D01*
X139921831Y-135337537D01*
X140205998Y-135147663D01*
X140447663Y-134905998D01*
X140637537Y-134621831D01*
X140768325Y-134306081D01*
X140835000Y-133970883D01*
X140835000Y-133629117D01*
X140768325Y-133293919D01*
X140637537Y-132978169D01*
X140447663Y-132694002D01*
X140205998Y-132452337D01*
X139921831Y-132262463D01*
X139606081Y-132131675D01*
X139270883Y-132065000D01*
X138929117Y-132065000D01*
X138593919Y-132131675D01*
X138278169Y-132262463D01*
X137994002Y-132452337D01*
X137752337Y-132694002D01*
X137562463Y-132978169D01*
X137431675Y-133293919D01*
X137365000Y-133629117D01*
X130164226Y-133629117D01*
X130014637Y-133405241D01*
X129814759Y-133205363D01*
X129579727Y-133048320D01*
X129318574Y-132940147D01*
X129041335Y-132885000D01*
X128758665Y-132885000D01*
X128481426Y-132940147D01*
X128220273Y-133048320D01*
X127985241Y-133205363D01*
X127785363Y-133405241D01*
X127628320Y-133640273D01*
X127520147Y-133901426D01*
X127465000Y-134178665D01*
X127465000Y-134461335D01*
X127520147Y-134738574D01*
X127628320Y-134999727D01*
X127785363Y-135234759D01*
X127985241Y-135434637D01*
X128217759Y-135590000D01*
X127985241Y-135745363D01*
X127860053Y-135870551D01*
X124605204Y-132615703D01*
X124581401Y-132586699D01*
X124465676Y-132491726D01*
X124333647Y-132421154D01*
X124190386Y-132377697D01*
X124078733Y-132366700D01*
X124078722Y-132366700D01*
X124041400Y-132363024D01*
X124004078Y-132366700D01*
X120876622Y-132366700D01*
X120839299Y-132363024D01*
X120801976Y-132366700D01*
X120801967Y-132366700D01*
X120690314Y-132377697D01*
X120547053Y-132421154D01*
X120415023Y-132491726D01*
X120362783Y-132534599D01*
X120299299Y-132586699D01*
X120275501Y-132615698D01*
X119643602Y-133247597D01*
X119614599Y-133271399D01*
X119559471Y-133338574D01*
X119519626Y-133387124D01*
X119460141Y-133498412D01*
X119449054Y-133519154D01*
X119405597Y-133662415D01*
X119394600Y-133774068D01*
X119394600Y-133774078D01*
X119390924Y-133811400D01*
X119394600Y-133848723D01*
X119394601Y-134754768D01*
X119390924Y-134792100D01*
X119394601Y-134829433D01*
X119396354Y-134847226D01*
X119405598Y-134941085D01*
X119449054Y-135084346D01*
X119519626Y-135216376D01*
X119573685Y-135282246D01*
X119614600Y-135332101D01*
X119643598Y-135355899D01*
X120199151Y-135911453D01*
X120165363Y-135945241D01*
X120058053Y-136105842D01*
X120005714Y-136110997D01*
X119862453Y-136154454D01*
X119730424Y-136225026D01*
X119614699Y-136319999D01*
X119519726Y-136435724D01*
X119449154Y-136567753D01*
X119405697Y-136711014D01*
X119391023Y-136860000D01*
X119394700Y-136897333D01*
X119394700Y-137351698D01*
X118120600Y-138625798D01*
X118120600Y-137262933D01*
X118124277Y-137225600D01*
X118109603Y-137076614D01*
X118066146Y-136933353D01*
X117995574Y-136801324D01*
X117924399Y-136714597D01*
X117900601Y-136685599D01*
X117871604Y-136661802D01*
X117613072Y-136403270D01*
X117613072Y-136115129D01*
X117842498Y-135885703D01*
X117871501Y-135861901D01*
X117966474Y-135746176D01*
X118037046Y-135614147D01*
X118080503Y-135470886D01*
X118091500Y-135359233D01*
X118091500Y-135359224D01*
X118095176Y-135321901D01*
X118091500Y-135284578D01*
X118091500Y-134682422D01*
X118095176Y-134645099D01*
X118091500Y-134607776D01*
X118091500Y-134607767D01*
X118080503Y-134496114D01*
X118037046Y-134352853D01*
X117966474Y-134220824D01*
X117871501Y-134105099D01*
X117842497Y-134081296D01*
X117613072Y-133851871D01*
X117613072Y-133570000D01*
X117597929Y-133416255D01*
X117553084Y-133268418D01*
X117480258Y-133132171D01*
X117382251Y-133012749D01*
X117262829Y-132914742D01*
X117126582Y-132841916D01*
X116978745Y-132797071D01*
X116825000Y-132781928D01*
X115075000Y-132781928D01*
X114921255Y-132797071D01*
X114866504Y-132813679D01*
X114787656Y-132760995D01*
X114599298Y-132682974D01*
X114399339Y-132643200D01*
X114195461Y-132643200D01*
X113995502Y-132682974D01*
X113807144Y-132760995D01*
X113637626Y-132874263D01*
X113493463Y-133018426D01*
X113380195Y-133187944D01*
X113302174Y-133376302D01*
X113262400Y-133576261D01*
X113262400Y-133595000D01*
X108313072Y-133595000D01*
X108313072Y-133570000D01*
X108297929Y-133416255D01*
X108253084Y-133268418D01*
X108180258Y-133132171D01*
X108082251Y-133012749D01*
X107962829Y-132914742D01*
X107826582Y-132841916D01*
X107678745Y-132797071D01*
X107525000Y-132781928D01*
X106786730Y-132781928D01*
X105464801Y-131460000D01*
X139167721Y-131460000D01*
X139653893Y-131507670D01*
X140090498Y-131639489D01*
X140493185Y-131853600D01*
X140846612Y-132141848D01*
X141137327Y-132493261D01*
X141354242Y-132894439D01*
X141489106Y-133330113D01*
X141540001Y-133814353D01*
X141540000Y-166167721D01*
X141492330Y-166653894D01*
X141360512Y-167090497D01*
X141146399Y-167493186D01*
X140858150Y-167846613D01*
X140506739Y-168137327D01*
X140105564Y-168354240D01*
X139669886Y-168489106D01*
X139185664Y-168540000D01*
X82532279Y-168540000D01*
X82046106Y-168492330D01*
X81609503Y-168360512D01*
X81206814Y-168146399D01*
X80853387Y-167858150D01*
X80562673Y-167506739D01*
X80345760Y-167105564D01*
X80210894Y-166669886D01*
X80160000Y-166185664D01*
X80160000Y-166029117D01*
X80765000Y-166029117D01*
X80765000Y-166370883D01*
X80831675Y-166706081D01*
X80962463Y-167021831D01*
X81152337Y-167305998D01*
X81394002Y-167547663D01*
X81678169Y-167737537D01*
X81993919Y-167868325D01*
X82329117Y-167935000D01*
X82670883Y-167935000D01*
X83006081Y-167868325D01*
X83321831Y-167737537D01*
X83605998Y-167547663D01*
X83847663Y-167305998D01*
X84037537Y-167021831D01*
X84168325Y-166706081D01*
X84235000Y-166370883D01*
X84235000Y-166029117D01*
X84168325Y-165693919D01*
X84037537Y-165378169D01*
X83847663Y-165094002D01*
X83605998Y-164852337D01*
X83321831Y-164662463D01*
X83006081Y-164531675D01*
X82670883Y-164465000D01*
X82329117Y-164465000D01*
X81993919Y-164531675D01*
X81678169Y-164662463D01*
X81394002Y-164852337D01*
X81152337Y-165094002D01*
X80962463Y-165378169D01*
X80831675Y-165693919D01*
X80765000Y-166029117D01*
X80160000Y-166029117D01*
X80160000Y-133832279D01*
X80179920Y-133629117D01*
X80765000Y-133629117D01*
X80765000Y-133970883D01*
X80831675Y-134306081D01*
X80962463Y-134621831D01*
X81152337Y-134905998D01*
X81394002Y-135147663D01*
X81678169Y-135337537D01*
X81993919Y-135468325D01*
X82329117Y-135535000D01*
X82670883Y-135535000D01*
X83006081Y-135468325D01*
X83321831Y-135337537D01*
X83605998Y-135147663D01*
X83847663Y-134905998D01*
X84037537Y-134621831D01*
X84168325Y-134306081D01*
X84235000Y-133970883D01*
X84235000Y-133629117D01*
X84168325Y-133293919D01*
X84037537Y-132978169D01*
X83847663Y-132694002D01*
X83605998Y-132452337D01*
X83321831Y-132262463D01*
X83006081Y-132131675D01*
X82670883Y-132065000D01*
X82329117Y-132065000D01*
X81993919Y-132131675D01*
X81678169Y-132262463D01*
X81394002Y-132452337D01*
X81152337Y-132694002D01*
X80962463Y-132978169D01*
X80831675Y-133293919D01*
X80765000Y-133629117D01*
X80179920Y-133629117D01*
X80207670Y-133346107D01*
X80339489Y-132909502D01*
X80553600Y-132506815D01*
X80841848Y-132153388D01*
X81193261Y-131862673D01*
X81594439Y-131645758D01*
X82030113Y-131510894D01*
X82514344Y-131460000D01*
X90536698Y-131460000D01*
X84201103Y-137795596D01*
G36*
X127210905Y-137371008D02*
G01*
X127234699Y-137400001D01*
X127263692Y-137423795D01*
X127263696Y-137423799D01*
X127325352Y-137474398D01*
X127350424Y-137494974D01*
X127482453Y-137565546D01*
X127625714Y-137609003D01*
X127678053Y-137614158D01*
X127785363Y-137774759D01*
X127985241Y-137974637D01*
X128217759Y-138130000D01*
X127985241Y-138285363D01*
X127785363Y-138485241D01*
X127628320Y-138720273D01*
X127520147Y-138981426D01*
X127465000Y-139258665D01*
X127465000Y-139541335D01*
X127520147Y-139818574D01*
X127628320Y-140079727D01*
X127785363Y-140314759D01*
X127985241Y-140514637D01*
X128220273Y-140671680D01*
X128230865Y-140676067D01*
X128044869Y-140787615D01*
X127836481Y-140976586D01*
X127668963Y-141202580D01*
X127548754Y-141456913D01*
X127508096Y-141590961D01*
X127630085Y-141813000D01*
X128773000Y-141813000D01*
X128773000Y-141793000D01*
X129027000Y-141793000D01*
X129027000Y-141813000D01*
X130169915Y-141813000D01*
X130283485Y-141606286D01*
X133869467Y-145192269D01*
X133796401Y-145328966D01*
X133711487Y-145608889D01*
X133682815Y-145900000D01*
X133711487Y-146191111D01*
X133796401Y-146471034D01*
X133934294Y-146729014D01*
X134119866Y-146955134D01*
X134345986Y-147140706D01*
X134363374Y-147150000D01*
X134345986Y-147159294D01*
X134119866Y-147344866D01*
X133934294Y-147570986D01*
X133796401Y-147828966D01*
X133711487Y-148108889D01*
X133682815Y-148400000D01*
X133711487Y-148691111D01*
X133796401Y-148971034D01*
X133934294Y-149229014D01*
X134119866Y-149455134D01*
X134345986Y-149640706D01*
X134363374Y-149650000D01*
X134345986Y-149659294D01*
X134119866Y-149844866D01*
X133934294Y-150070986D01*
X133796401Y-150328966D01*
X133711487Y-150608889D01*
X133682815Y-150900000D01*
X133711487Y-151191111D01*
X133796401Y-151471034D01*
X133934294Y-151729014D01*
X134119866Y-151955134D01*
X134243720Y-152056778D01*
X133346099Y-152954400D01*
X130785300Y-152954400D01*
X130785300Y-151144525D01*
X130788976Y-151107200D01*
X130785300Y-151069875D01*
X130785300Y-151069867D01*
X130774303Y-150958214D01*
X130730846Y-150814953D01*
X130660274Y-150682924D01*
X130565301Y-150567199D01*
X130536297Y-150543396D01*
X130189531Y-150196630D01*
X130279853Y-149978574D01*
X130335000Y-149701335D01*
X130335000Y-149418665D01*
X130279853Y-149141426D01*
X130171680Y-148880273D01*
X130014637Y-148645241D01*
X129814759Y-148445363D01*
X129582241Y-148290000D01*
X129814759Y-148134637D01*
X130014637Y-147934759D01*
X130171680Y-147699727D01*
X130279853Y-147438574D01*
X130335000Y-147161335D01*
X130335000Y-146878665D01*
X130279853Y-146601426D01*
X130171680Y-146340273D01*
X130014637Y-146105241D01*
X129814759Y-145905363D01*
X129579727Y-145748320D01*
X129569135Y-145743933D01*
X129755131Y-145632385D01*
X129963519Y-145443414D01*
X130131037Y-145217420D01*
X130251246Y-144963087D01*
X130291904Y-144829039D01*
X130169915Y-144607000D01*
X129027000Y-144607000D01*
X129027000Y-144627000D01*
X128773000Y-144627000D01*
X128773000Y-144607000D01*
X127630085Y-144607000D01*
X127508096Y-144829039D01*
X127548754Y-144963087D01*
X127668963Y-145217420D01*
X127836481Y-145443414D01*
X128044869Y-145632385D01*
X128230865Y-145743933D01*
X128220273Y-145748320D01*
X127985241Y-145905363D01*
X127785363Y-146105241D01*
X127628320Y-146340273D01*
X127520147Y-146601426D01*
X127465000Y-146878665D01*
X127465000Y-147161335D01*
X127520147Y-147438574D01*
X127628320Y-147699727D01*
X127785363Y-147934759D01*
X127985241Y-148134637D01*
X128217759Y-148290000D01*
X127985241Y-148445363D01*
X127785363Y-148645241D01*
X127628320Y-148880273D01*
X127520147Y-149141426D01*
X127465000Y-149418665D01*
X127465000Y-149701335D01*
X127520147Y-149978574D01*
X127628320Y-150239727D01*
X127785363Y-150474759D01*
X127983961Y-150673357D01*
X127975518Y-150674188D01*
X127855820Y-150710498D01*
X127745506Y-150769463D01*
X127648815Y-150848815D01*
X127569463Y-150945506D01*
X127510498Y-151055820D01*
X127474188Y-151175518D01*
X127470299Y-151215000D01*
X127466579Y-151215000D01*
X125485000Y-149233422D01*
X125485000Y-142289039D01*
X127508096Y-142289039D01*
X127548754Y-142423087D01*
X127668963Y-142677420D01*
X127836481Y-142903414D01*
X128044869Y-143092385D01*
X128240982Y-143210000D01*
X128044869Y-143327615D01*
X127836481Y-143516586D01*
X127668963Y-143742580D01*
X127548754Y-143996913D01*
X127508096Y-144130961D01*
X127630085Y-144353000D01*
X128773000Y-144353000D01*
X128773000Y-142067000D01*
X129027000Y-142067000D01*
X129027000Y-144353000D01*
X130169915Y-144353000D01*
X130291904Y-144130961D01*
X130251246Y-143996913D01*
X130131037Y-143742580D01*
X129963519Y-143516586D01*
X129755131Y-143327615D01*
X129559018Y-143210000D01*
X129755131Y-143092385D01*
X129963519Y-142903414D01*
X130131037Y-142677420D01*
X130251246Y-142423087D01*
X130291904Y-142289039D01*
X130169915Y-142067000D01*
X129027000Y-142067000D01*
X128773000Y-142067000D01*
X127630085Y-142067000D01*
X127508096Y-142289039D01*
X125485000Y-142289039D01*
X125485000Y-136243465D01*
X125489281Y-136199999D01*
X125485000Y-136156532D01*
X125485000Y-136156523D01*
X125472195Y-136026510D01*
X125421589Y-135859687D01*
X125339411Y-135705941D01*
X125276255Y-135628986D01*
X125256532Y-135604953D01*
X125256530Y-135604951D01*
X125228817Y-135571183D01*
X125195050Y-135543471D01*
X123538278Y-133886700D01*
X123726599Y-133886700D01*
X127210905Y-137371008D01*
G37*
X127210905Y-137371008D02*
X127234699Y-137400001D01*
X127263692Y-137423795D01*
X127263696Y-137423799D01*
X127325352Y-137474398D01*
X127350424Y-137494974D01*
X127482453Y-137565546D01*
X127625714Y-137609003D01*
X127678053Y-137614158D01*
X127785363Y-137774759D01*
X127985241Y-137974637D01*
X128217759Y-138130000D01*
X127985241Y-138285363D01*
X127785363Y-138485241D01*
X127628320Y-138720273D01*
X127520147Y-138981426D01*
X127465000Y-139258665D01*
X127465000Y-139541335D01*
X127520147Y-139818574D01*
X127628320Y-140079727D01*
X127785363Y-140314759D01*
X127985241Y-140514637D01*
X128220273Y-140671680D01*
X128230865Y-140676067D01*
X128044869Y-140787615D01*
X127836481Y-140976586D01*
X127668963Y-141202580D01*
X127548754Y-141456913D01*
X127508096Y-141590961D01*
X127630085Y-141813000D01*
X128773000Y-141813000D01*
X128773000Y-141793000D01*
X129027000Y-141793000D01*
X129027000Y-141813000D01*
X130169915Y-141813000D01*
X130283485Y-141606286D01*
X133869467Y-145192269D01*
X133796401Y-145328966D01*
X133711487Y-145608889D01*
X133682815Y-145900000D01*
X133711487Y-146191111D01*
X133796401Y-146471034D01*
X133934294Y-146729014D01*
X134119866Y-146955134D01*
X134345986Y-147140706D01*
X134363374Y-147150000D01*
X134345986Y-147159294D01*
X134119866Y-147344866D01*
X133934294Y-147570986D01*
X133796401Y-147828966D01*
X133711487Y-148108889D01*
X133682815Y-148400000D01*
X133711487Y-148691111D01*
X133796401Y-148971034D01*
X133934294Y-149229014D01*
X134119866Y-149455134D01*
X134345986Y-149640706D01*
X134363374Y-149650000D01*
X134345986Y-149659294D01*
X134119866Y-149844866D01*
X133934294Y-150070986D01*
X133796401Y-150328966D01*
X133711487Y-150608889D01*
X133682815Y-150900000D01*
X133711487Y-151191111D01*
X133796401Y-151471034D01*
X133934294Y-151729014D01*
X134119866Y-151955134D01*
X134243720Y-152056778D01*
X133346099Y-152954400D01*
X130785300Y-152954400D01*
X130785300Y-151144525D01*
X130788976Y-151107200D01*
X130785300Y-151069875D01*
X130785300Y-151069867D01*
X130774303Y-150958214D01*
X130730846Y-150814953D01*
X130660274Y-150682924D01*
X130565301Y-150567199D01*
X130536297Y-150543396D01*
X130189531Y-150196630D01*
X130279853Y-149978574D01*
X130335000Y-149701335D01*
X130335000Y-149418665D01*
X130279853Y-149141426D01*
X130171680Y-148880273D01*
X130014637Y-148645241D01*
X129814759Y-148445363D01*
X129582241Y-148290000D01*
X129814759Y-148134637D01*
X130014637Y-147934759D01*
X130171680Y-147699727D01*
X130279853Y-147438574D01*
X130335000Y-147161335D01*
X130335000Y-146878665D01*
X130279853Y-146601426D01*
X130171680Y-146340273D01*
X130014637Y-146105241D01*
X129814759Y-145905363D01*
X129579727Y-145748320D01*
X129569135Y-145743933D01*
X129755131Y-145632385D01*
X129963519Y-145443414D01*
X130131037Y-145217420D01*
X130251246Y-144963087D01*
X130291904Y-144829039D01*
X130169915Y-144607000D01*
X129027000Y-144607000D01*
X129027000Y-144627000D01*
X128773000Y-144627000D01*
X128773000Y-144607000D01*
X127630085Y-144607000D01*
X127508096Y-144829039D01*
X127548754Y-144963087D01*
X127668963Y-145217420D01*
X127836481Y-145443414D01*
X128044869Y-145632385D01*
X128230865Y-145743933D01*
X128220273Y-145748320D01*
X127985241Y-145905363D01*
X127785363Y-146105241D01*
X127628320Y-146340273D01*
X127520147Y-146601426D01*
X127465000Y-146878665D01*
X127465000Y-147161335D01*
X127520147Y-147438574D01*
X127628320Y-147699727D01*
X127785363Y-147934759D01*
X127985241Y-148134637D01*
X128217759Y-148290000D01*
X127985241Y-148445363D01*
X127785363Y-148645241D01*
X127628320Y-148880273D01*
X127520147Y-149141426D01*
X127465000Y-149418665D01*
X127465000Y-149701335D01*
X127520147Y-149978574D01*
X127628320Y-150239727D01*
X127785363Y-150474759D01*
X127983961Y-150673357D01*
X127975518Y-150674188D01*
X127855820Y-150710498D01*
X127745506Y-150769463D01*
X127648815Y-150848815D01*
X127569463Y-150945506D01*
X127510498Y-151055820D01*
X127474188Y-151175518D01*
X127470299Y-151215000D01*
X127466579Y-151215000D01*
X125485000Y-149233422D01*
X125485000Y-142289039D01*
X127508096Y-142289039D01*
X127548754Y-142423087D01*
X127668963Y-142677420D01*
X127836481Y-142903414D01*
X128044869Y-143092385D01*
X128240982Y-143210000D01*
X128044869Y-143327615D01*
X127836481Y-143516586D01*
X127668963Y-143742580D01*
X127548754Y-143996913D01*
X127508096Y-144130961D01*
X127630085Y-144353000D01*
X128773000Y-144353000D01*
X128773000Y-142067000D01*
X129027000Y-142067000D01*
X129027000Y-144353000D01*
X130169915Y-144353000D01*
X130291904Y-144130961D01*
X130251246Y-143996913D01*
X130131037Y-143742580D01*
X129963519Y-143516586D01*
X129755131Y-143327615D01*
X129559018Y-143210000D01*
X129755131Y-143092385D01*
X129963519Y-142903414D01*
X130131037Y-142677420D01*
X130251246Y-142423087D01*
X130291904Y-142289039D01*
X130169915Y-142067000D01*
X129027000Y-142067000D01*
X128773000Y-142067000D01*
X127630085Y-142067000D01*
X127508096Y-142289039D01*
X125485000Y-142289039D01*
X125485000Y-136243465D01*
X125489281Y-136199999D01*
X125485000Y-136156532D01*
X125485000Y-136156523D01*
X125472195Y-136026510D01*
X125421589Y-135859687D01*
X125339411Y-135705941D01*
X125276255Y-135628986D01*
X125256532Y-135604953D01*
X125256530Y-135604951D01*
X125228817Y-135571183D01*
X125195050Y-135543471D01*
X123538278Y-133886700D01*
X123726599Y-133886700D01*
X127210905Y-137371008D01*
G36*
X98423151Y-138081653D02*
G01*
X98423150Y-142365827D01*
X98419474Y-142403150D01*
X98423150Y-142440472D01*
X98423150Y-142440482D01*
X98434147Y-142552135D01*
X98472530Y-142678668D01*
X98477604Y-142695396D01*
X98548176Y-142827426D01*
X98562036Y-142844314D01*
X98643149Y-142943151D01*
X98672152Y-142966953D01*
X99266200Y-143561002D01*
X99289999Y-143590001D01*
X99304370Y-143601795D01*
X99288963Y-143622580D01*
X99168754Y-143876913D01*
X99128096Y-144010961D01*
X99250085Y-144233000D01*
X100393000Y-144233000D01*
X100393000Y-144213000D01*
X100647000Y-144213000D01*
X100647000Y-144233000D01*
X101789915Y-144233000D01*
X101819033Y-144180000D01*
X104986928Y-144180000D01*
X104999188Y-144304482D01*
X105035498Y-144424180D01*
X105094463Y-144534494D01*
X105173815Y-144631185D01*
X105270506Y-144710537D01*
X105380820Y-144769502D01*
X105500518Y-144805812D01*
X105625000Y-144818072D01*
X106364250Y-144815000D01*
X106523000Y-144656250D01*
X106523000Y-144007000D01*
X105148750Y-144007000D01*
X104990000Y-144165750D01*
X104986928Y-144180000D01*
X101819033Y-144180000D01*
X101911904Y-144010961D01*
X101871246Y-143876913D01*
X101751037Y-143622580D01*
X101685631Y-143534343D01*
X101686901Y-143533301D01*
X101710704Y-143504297D01*
X104987652Y-140227350D01*
X105002071Y-140373745D01*
X105046916Y-140521582D01*
X105119742Y-140657829D01*
X105158454Y-140705000D01*
X105119742Y-140752171D01*
X105046916Y-140888418D01*
X105002071Y-141036255D01*
X104986928Y-141190000D01*
X104986928Y-141490000D01*
X105002071Y-141643745D01*
X105046916Y-141791582D01*
X105119742Y-141927829D01*
X105158454Y-141975000D01*
X105119742Y-142022171D01*
X105046916Y-142158418D01*
X105002071Y-142306255D01*
X104986928Y-142460000D01*
X104986928Y-142760000D01*
X105002071Y-142913745D01*
X105046916Y-143061582D01*
X105118730Y-143195936D01*
X105094463Y-143225506D01*
X105035498Y-143335820D01*
X104999188Y-143455518D01*
X104986928Y-143580000D01*
X104990000Y-143594250D01*
X105148750Y-143753000D01*
X106523000Y-143753000D01*
X106523000Y-143733000D01*
X106777000Y-143733000D01*
X106777000Y-143753000D01*
X106797000Y-143753000D01*
X106797000Y-144007000D01*
X106777000Y-144007000D01*
X106777000Y-144656250D01*
X106935750Y-144815000D01*
X107675000Y-144818072D01*
X107786117Y-144807128D01*
X107913526Y-144934537D01*
X108083044Y-145047805D01*
X108144244Y-145073155D01*
X104537399Y-148680000D01*
X101738043Y-148680000D01*
X101634637Y-148525241D01*
X101434759Y-148325363D01*
X101202241Y-148170000D01*
X101434759Y-148014637D01*
X101634637Y-147814759D01*
X101791680Y-147579727D01*
X101899853Y-147318574D01*
X101955000Y-147041335D01*
X101955000Y-146758665D01*
X101899853Y-146481426D01*
X101791680Y-146220273D01*
X101634637Y-145985241D01*
X101434759Y-145785363D01*
X101199727Y-145628320D01*
X101189135Y-145623933D01*
X101375131Y-145512385D01*
X101583519Y-145323414D01*
X101751037Y-145097420D01*
X101871246Y-144843087D01*
X101911904Y-144709039D01*
X101789915Y-144487000D01*
X100647000Y-144487000D01*
X100647000Y-144507000D01*
X100393000Y-144507000D01*
X100393000Y-144487000D01*
X99250085Y-144487000D01*
X99128096Y-144709039D01*
X99168754Y-144843087D01*
X99288963Y-145097420D01*
X99456481Y-145323414D01*
X99664869Y-145512385D01*
X99850865Y-145623933D01*
X99840273Y-145628320D01*
X99605241Y-145785363D01*
X99405363Y-145985241D01*
X99248320Y-146220273D01*
X99140147Y-146481426D01*
X99085000Y-146758665D01*
X99085000Y-147041335D01*
X99140147Y-147318574D01*
X99248320Y-147579727D01*
X99405363Y-147814759D01*
X99605241Y-148014637D01*
X99837759Y-148170000D01*
X99605241Y-148325363D01*
X99405363Y-148525241D01*
X99248320Y-148760273D01*
X99140147Y-149021426D01*
X99085000Y-149298665D01*
X99085000Y-149581335D01*
X99140147Y-149858574D01*
X99248320Y-150119727D01*
X99405363Y-150354759D01*
X99605241Y-150554637D01*
X99837759Y-150710000D01*
X99605241Y-150865363D01*
X99405363Y-151065241D01*
X99385479Y-151095000D01*
X98146579Y-151095000D01*
X96985000Y-149933422D01*
X96985000Y-136643502D01*
X98423151Y-138081653D01*
G37*
X98423151Y-138081653D02*
X98423150Y-142365827D01*
X98419474Y-142403150D01*
X98423150Y-142440472D01*
X98423150Y-142440482D01*
X98434147Y-142552135D01*
X98472530Y-142678668D01*
X98477604Y-142695396D01*
X98548176Y-142827426D01*
X98562036Y-142844314D01*
X98643149Y-142943151D01*
X98672152Y-142966953D01*
X99266200Y-143561002D01*
X99289999Y-143590001D01*
X99304370Y-143601795D01*
X99288963Y-143622580D01*
X99168754Y-143876913D01*
X99128096Y-144010961D01*
X99250085Y-144233000D01*
X100393000Y-144233000D01*
X100393000Y-144213000D01*
X100647000Y-144213000D01*
X100647000Y-144233000D01*
X101789915Y-144233000D01*
X101819033Y-144180000D01*
X104986928Y-144180000D01*
X104999188Y-144304482D01*
X105035498Y-144424180D01*
X105094463Y-144534494D01*
X105173815Y-144631185D01*
X105270506Y-144710537D01*
X105380820Y-144769502D01*
X105500518Y-144805812D01*
X105625000Y-144818072D01*
X106364250Y-144815000D01*
X106523000Y-144656250D01*
X106523000Y-144007000D01*
X105148750Y-144007000D01*
X104990000Y-144165750D01*
X104986928Y-144180000D01*
X101819033Y-144180000D01*
X101911904Y-144010961D01*
X101871246Y-143876913D01*
X101751037Y-143622580D01*
X101685631Y-143534343D01*
X101686901Y-143533301D01*
X101710704Y-143504297D01*
X104987652Y-140227350D01*
X105002071Y-140373745D01*
X105046916Y-140521582D01*
X105119742Y-140657829D01*
X105158454Y-140705000D01*
X105119742Y-140752171D01*
X105046916Y-140888418D01*
X105002071Y-141036255D01*
X104986928Y-141190000D01*
X104986928Y-141490000D01*
X105002071Y-141643745D01*
X105046916Y-141791582D01*
X105119742Y-141927829D01*
X105158454Y-141975000D01*
X105119742Y-142022171D01*
X105046916Y-142158418D01*
X105002071Y-142306255D01*
X104986928Y-142460000D01*
X104986928Y-142760000D01*
X105002071Y-142913745D01*
X105046916Y-143061582D01*
X105118730Y-143195936D01*
X105094463Y-143225506D01*
X105035498Y-143335820D01*
X104999188Y-143455518D01*
X104986928Y-143580000D01*
X104990000Y-143594250D01*
X105148750Y-143753000D01*
X106523000Y-143753000D01*
X106523000Y-143733000D01*
X106777000Y-143733000D01*
X106777000Y-143753000D01*
X106797000Y-143753000D01*
X106797000Y-144007000D01*
X106777000Y-144007000D01*
X106777000Y-144656250D01*
X106935750Y-144815000D01*
X107675000Y-144818072D01*
X107786117Y-144807128D01*
X107913526Y-144934537D01*
X108083044Y-145047805D01*
X108144244Y-145073155D01*
X104537399Y-148680000D01*
X101738043Y-148680000D01*
X101634637Y-148525241D01*
X101434759Y-148325363D01*
X101202241Y-148170000D01*
X101434759Y-148014637D01*
X101634637Y-147814759D01*
X101791680Y-147579727D01*
X101899853Y-147318574D01*
X101955000Y-147041335D01*
X101955000Y-146758665D01*
X101899853Y-146481426D01*
X101791680Y-146220273D01*
X101634637Y-145985241D01*
X101434759Y-145785363D01*
X101199727Y-145628320D01*
X101189135Y-145623933D01*
X101375131Y-145512385D01*
X101583519Y-145323414D01*
X101751037Y-145097420D01*
X101871246Y-144843087D01*
X101911904Y-144709039D01*
X101789915Y-144487000D01*
X100647000Y-144487000D01*
X100647000Y-144507000D01*
X100393000Y-144507000D01*
X100393000Y-144487000D01*
X99250085Y-144487000D01*
X99128096Y-144709039D01*
X99168754Y-144843087D01*
X99288963Y-145097420D01*
X99456481Y-145323414D01*
X99664869Y-145512385D01*
X99850865Y-145623933D01*
X99840273Y-145628320D01*
X99605241Y-145785363D01*
X99405363Y-145985241D01*
X99248320Y-146220273D01*
X99140147Y-146481426D01*
X99085000Y-146758665D01*
X99085000Y-147041335D01*
X99140147Y-147318574D01*
X99248320Y-147579727D01*
X99405363Y-147814759D01*
X99605241Y-148014637D01*
X99837759Y-148170000D01*
X99605241Y-148325363D01*
X99405363Y-148525241D01*
X99248320Y-148760273D01*
X99140147Y-149021426D01*
X99085000Y-149298665D01*
X99085000Y-149581335D01*
X99140147Y-149858574D01*
X99248320Y-150119727D01*
X99405363Y-150354759D01*
X99605241Y-150554637D01*
X99837759Y-150710000D01*
X99605241Y-150865363D01*
X99405363Y-151065241D01*
X99385479Y-151095000D01*
X98146579Y-151095000D01*
X96985000Y-149933422D01*
X96985000Y-136643502D01*
X98423151Y-138081653D01*
G36*
X123715000Y-136566579D02*
G01*
X123715001Y-146901112D01*
X123690746Y-146821153D01*
X123620174Y-146689124D01*
X123525201Y-146573399D01*
X123496204Y-146549602D01*
X122363312Y-145416711D01*
X122511037Y-145217420D01*
X122631246Y-144963087D01*
X122671904Y-144829039D01*
X122549915Y-144607000D01*
X121407000Y-144607000D01*
X121407000Y-144627000D01*
X121153000Y-144627000D01*
X121153000Y-144607000D01*
X120010085Y-144607000D01*
X119888096Y-144829039D01*
X119928754Y-144963087D01*
X119941474Y-144990000D01*
X118134802Y-144990000D01*
X117526367Y-144381566D01*
X117553084Y-144331582D01*
X117597929Y-144183745D01*
X117613072Y-144030000D01*
X117613072Y-143730000D01*
X117597929Y-143576255D01*
X117553084Y-143428418D01*
X117480258Y-143292171D01*
X117441546Y-143245000D01*
X117480258Y-143197829D01*
X117553084Y-143061582D01*
X117597929Y-142913745D01*
X117613072Y-142760000D01*
X117613072Y-142460000D01*
X117612097Y-142450104D01*
X117773162Y-142289039D01*
X119888096Y-142289039D01*
X119928754Y-142423087D01*
X120048963Y-142677420D01*
X120216481Y-142903414D01*
X120424869Y-143092385D01*
X120620982Y-143210000D01*
X120424869Y-143327615D01*
X120216481Y-143516586D01*
X120048963Y-143742580D01*
X119928754Y-143996913D01*
X119888096Y-144130961D01*
X120010085Y-144353000D01*
X121153000Y-144353000D01*
X121153000Y-142067000D01*
X121407000Y-142067000D01*
X121407000Y-144353000D01*
X122549915Y-144353000D01*
X122671904Y-144130961D01*
X122631246Y-143996913D01*
X122511037Y-143742580D01*
X122343519Y-143516586D01*
X122135131Y-143327615D01*
X121939018Y-143210000D01*
X122135131Y-143092385D01*
X122343519Y-142903414D01*
X122511037Y-142677420D01*
X122631246Y-142423087D01*
X122671904Y-142289039D01*
X122549915Y-142067000D01*
X121407000Y-142067000D01*
X121153000Y-142067000D01*
X120010085Y-142067000D01*
X119888096Y-142289039D01*
X117773162Y-142289039D01*
X120000750Y-140061452D01*
X120008320Y-140079727D01*
X120165363Y-140314759D01*
X120365241Y-140514637D01*
X120600273Y-140671680D01*
X120610865Y-140676067D01*
X120424869Y-140787615D01*
X120216481Y-140976586D01*
X120048963Y-141202580D01*
X119928754Y-141456913D01*
X119888096Y-141590961D01*
X120010085Y-141813000D01*
X121153000Y-141813000D01*
X121153000Y-141793000D01*
X121407000Y-141793000D01*
X121407000Y-141813000D01*
X122549915Y-141813000D01*
X122671904Y-141590961D01*
X122631246Y-141456913D01*
X122511037Y-141202580D01*
X122343519Y-140976586D01*
X122135131Y-140787615D01*
X121949135Y-140676067D01*
X121959727Y-140671680D01*
X122194759Y-140514637D01*
X122394637Y-140314759D01*
X122551680Y-140079727D01*
X122659853Y-139818574D01*
X122715000Y-139541335D01*
X122715000Y-139258665D01*
X122659853Y-138981426D01*
X122551680Y-138720273D01*
X122395367Y-138486334D01*
X122963802Y-137917900D01*
X122992801Y-137894101D01*
X123025188Y-137854637D01*
X123087774Y-137778377D01*
X123158346Y-137646347D01*
X123182856Y-137565546D01*
X123201803Y-137503086D01*
X123212800Y-137391433D01*
X123212800Y-137391424D01*
X123216476Y-137354101D01*
X123212800Y-137316778D01*
X123212800Y-136462923D01*
X123216476Y-136425600D01*
X123212800Y-136388277D01*
X123212800Y-136388267D01*
X123201803Y-136276614D01*
X123158346Y-136133353D01*
X123087774Y-136001324D01*
X122992801Y-135885599D01*
X122963804Y-135861802D01*
X122365699Y-135263697D01*
X122388909Y-135240487D01*
X123715000Y-136566579D01*
G37*
X123715000Y-136566579D02*
X123715001Y-146901112D01*
X123690746Y-146821153D01*
X123620174Y-146689124D01*
X123525201Y-146573399D01*
X123496204Y-146549602D01*
X122363312Y-145416711D01*
X122511037Y-145217420D01*
X122631246Y-144963087D01*
X122671904Y-144829039D01*
X122549915Y-144607000D01*
X121407000Y-144607000D01*
X121407000Y-144627000D01*
X121153000Y-144627000D01*
X121153000Y-144607000D01*
X120010085Y-144607000D01*
X119888096Y-144829039D01*
X119928754Y-144963087D01*
X119941474Y-144990000D01*
X118134802Y-144990000D01*
X117526367Y-144381566D01*
X117553084Y-144331582D01*
X117597929Y-144183745D01*
X117613072Y-144030000D01*
X117613072Y-143730000D01*
X117597929Y-143576255D01*
X117553084Y-143428418D01*
X117480258Y-143292171D01*
X117441546Y-143245000D01*
X117480258Y-143197829D01*
X117553084Y-143061582D01*
X117597929Y-142913745D01*
X117613072Y-142760000D01*
X117613072Y-142460000D01*
X117612097Y-142450104D01*
X117773162Y-142289039D01*
X119888096Y-142289039D01*
X119928754Y-142423087D01*
X120048963Y-142677420D01*
X120216481Y-142903414D01*
X120424869Y-143092385D01*
X120620982Y-143210000D01*
X120424869Y-143327615D01*
X120216481Y-143516586D01*
X120048963Y-143742580D01*
X119928754Y-143996913D01*
X119888096Y-144130961D01*
X120010085Y-144353000D01*
X121153000Y-144353000D01*
X121153000Y-142067000D01*
X121407000Y-142067000D01*
X121407000Y-144353000D01*
X122549915Y-144353000D01*
X122671904Y-144130961D01*
X122631246Y-143996913D01*
X122511037Y-143742580D01*
X122343519Y-143516586D01*
X122135131Y-143327615D01*
X121939018Y-143210000D01*
X122135131Y-143092385D01*
X122343519Y-142903414D01*
X122511037Y-142677420D01*
X122631246Y-142423087D01*
X122671904Y-142289039D01*
X122549915Y-142067000D01*
X121407000Y-142067000D01*
X121153000Y-142067000D01*
X120010085Y-142067000D01*
X119888096Y-142289039D01*
X117773162Y-142289039D01*
X120000750Y-140061452D01*
X120008320Y-140079727D01*
X120165363Y-140314759D01*
X120365241Y-140514637D01*
X120600273Y-140671680D01*
X120610865Y-140676067D01*
X120424869Y-140787615D01*
X120216481Y-140976586D01*
X120048963Y-141202580D01*
X119928754Y-141456913D01*
X119888096Y-141590961D01*
X120010085Y-141813000D01*
X121153000Y-141813000D01*
X121153000Y-141793000D01*
X121407000Y-141793000D01*
X121407000Y-141813000D01*
X122549915Y-141813000D01*
X122671904Y-141590961D01*
X122631246Y-141456913D01*
X122511037Y-141202580D01*
X122343519Y-140976586D01*
X122135131Y-140787615D01*
X121949135Y-140676067D01*
X121959727Y-140671680D01*
X122194759Y-140514637D01*
X122394637Y-140314759D01*
X122551680Y-140079727D01*
X122659853Y-139818574D01*
X122715000Y-139541335D01*
X122715000Y-139258665D01*
X122659853Y-138981426D01*
X122551680Y-138720273D01*
X122395367Y-138486334D01*
X122963802Y-137917900D01*
X122992801Y-137894101D01*
X123025188Y-137854637D01*
X123087774Y-137778377D01*
X123158346Y-137646347D01*
X123182856Y-137565546D01*
X123201803Y-137503086D01*
X123212800Y-137391433D01*
X123212800Y-137391424D01*
X123216476Y-137354101D01*
X123212800Y-137316778D01*
X123212800Y-136462923D01*
X123216476Y-136425600D01*
X123212800Y-136388277D01*
X123212800Y-136388267D01*
X123201803Y-136276614D01*
X123158346Y-136133353D01*
X123087774Y-136001324D01*
X122992801Y-135885599D01*
X122963804Y-135861802D01*
X122365699Y-135263697D01*
X122388909Y-135240487D01*
X123715000Y-136566579D01*
G36*
X100647000Y-141693000D02*
G01*
X100667000Y-141693000D01*
X100667000Y-141947000D01*
X100647000Y-141947000D01*
X100647000Y-141967000D01*
X100393000Y-141967000D01*
X100393000Y-141947000D01*
X100373000Y-141947000D01*
X100373000Y-141693000D01*
X100393000Y-141693000D01*
X100393000Y-141673000D01*
X100647000Y-141673000D01*
X100647000Y-141693000D01*
G37*
X100647000Y-141693000D02*
X100667000Y-141693000D01*
X100667000Y-141947000D01*
X100647000Y-141947000D01*
X100647000Y-141967000D01*
X100393000Y-141967000D01*
X100393000Y-141947000D01*
X100373000Y-141947000D01*
X100373000Y-141693000D01*
X100393000Y-141693000D01*
X100393000Y-141673000D01*
X100647000Y-141673000D01*
X100647000Y-141693000D01*
G36*
X101651314Y-137644003D02*
G01*
X101762967Y-137655000D01*
X101762976Y-137655000D01*
X101800299Y-137658676D01*
X101837622Y-137655000D01*
X104990000Y-137655000D01*
X104990000Y-137657002D01*
X105148748Y-137657002D01*
X104990000Y-137815750D01*
X104986928Y-137830000D01*
X104999188Y-137954482D01*
X105035498Y-138074180D01*
X105084043Y-138165000D01*
X105035498Y-138255820D01*
X104999188Y-138375518D01*
X104986928Y-138500000D01*
X104990000Y-138514250D01*
X105148748Y-138672998D01*
X104990000Y-138672998D01*
X104990000Y-138675000D01*
X104742522Y-138675000D01*
X104705199Y-138671324D01*
X104667876Y-138675000D01*
X104667867Y-138675000D01*
X104556214Y-138685997D01*
X104425246Y-138725725D01*
X104412953Y-138729454D01*
X104280923Y-138800026D01*
X104210583Y-138857753D01*
X104165199Y-138894999D01*
X104141401Y-138923997D01*
X101825427Y-141239971D01*
X101751037Y-141082580D01*
X101583519Y-140856586D01*
X101375131Y-140667615D01*
X101189135Y-140556067D01*
X101199727Y-140551680D01*
X101434759Y-140394637D01*
X101634637Y-140194759D01*
X101791680Y-139959727D01*
X101899853Y-139698574D01*
X101955000Y-139421335D01*
X101955000Y-139138665D01*
X101899853Y-138861426D01*
X101791680Y-138600273D01*
X101634637Y-138365241D01*
X101434759Y-138165363D01*
X101202241Y-138010000D01*
X101434759Y-137854637D01*
X101634637Y-137654759D01*
X101643423Y-137641609D01*
X101651314Y-137644003D01*
G37*
X101651314Y-137644003D02*
X101762967Y-137655000D01*
X101762976Y-137655000D01*
X101800299Y-137658676D01*
X101837622Y-137655000D01*
X104990000Y-137655000D01*
X104990000Y-137657002D01*
X105148748Y-137657002D01*
X104990000Y-137815750D01*
X104986928Y-137830000D01*
X104999188Y-137954482D01*
X105035498Y-138074180D01*
X105084043Y-138165000D01*
X105035498Y-138255820D01*
X104999188Y-138375518D01*
X104986928Y-138500000D01*
X104990000Y-138514250D01*
X105148748Y-138672998D01*
X104990000Y-138672998D01*
X104990000Y-138675000D01*
X104742522Y-138675000D01*
X104705199Y-138671324D01*
X104667876Y-138675000D01*
X104667867Y-138675000D01*
X104556214Y-138685997D01*
X104425246Y-138725725D01*
X104412953Y-138729454D01*
X104280923Y-138800026D01*
X104210583Y-138857753D01*
X104165199Y-138894999D01*
X104141401Y-138923997D01*
X101825427Y-141239971D01*
X101751037Y-141082580D01*
X101583519Y-140856586D01*
X101375131Y-140667615D01*
X101189135Y-140556067D01*
X101199727Y-140551680D01*
X101434759Y-140394637D01*
X101634637Y-140194759D01*
X101791680Y-139959727D01*
X101899853Y-139698574D01*
X101955000Y-139421335D01*
X101955000Y-139138665D01*
X101899853Y-138861426D01*
X101791680Y-138600273D01*
X101634637Y-138365241D01*
X101434759Y-138165363D01*
X101202241Y-138010000D01*
X101434759Y-137854637D01*
X101634637Y-137654759D01*
X101643423Y-137641609D01*
X101651314Y-137644003D01*
%TD*%
M02*
